<?xml version="1.0" encoding="UTF-8" standalone="no"?><!DOCTYPE svg PUBLIC "-//W3C//DTD SVG 1.1//EN" "http://www.w3.org/Graphics/SVG/1.1/DTD/svg11.dtd"><svg width="100%" height="100%" viewBox="0 0 759 200" version="1.1" xmlns="http://www.w3.org/2000/svg" xmlns:xlink="http://www.w3.org/1999/xlink" xml:space="preserve" xmlns:serif="http://www.serif.com/" style="fill-rule:evenodd;clip-rule:evenodd;stroke-miterlimit:10;"><rect id="Artboard1" x="0" y="0" width="759" height="199.5" style="fill:none;"/><g id="Layer_1-2"><g><path d="M100.137,78.766c-0.165,3.729 -1.213,6.552 -3.145,8.468c-1.931,1.917 -4.657,2.875 -8.175,2.875c-3.699,0 -6.533,-1.216 -8.502,-3.65c-1.969,-2.433 -2.954,-5.903 -2.954,-10.41l0,-5.503c0,-4.492 1.019,-7.955 3.055,-10.388c2.037,-2.434 4.867,-3.65 8.49,-3.65c3.564,0 6.271,0.995 8.12,2.987c1.849,1.991 2.901,4.852 3.156,8.58l-6.626,0c-0.06,-2.306 -0.416,-3.897 -1.067,-4.773c-0.651,-0.876 -1.846,-1.314 -3.583,-1.314c-1.767,0 -3.017,0.618 -3.751,1.853c-0.733,1.236 -1.123,3.268 -1.168,6.098l0,6.177c0,3.249 0.364,5.481 1.09,6.693c0.726,1.213 1.973,1.82 3.74,1.82c1.737,0 2.934,-0.423 3.593,-1.269c0.659,-0.846 1.034,-2.377 1.123,-4.594l6.604,0Z" style="fill:#fff;fill-rule:nonzero;"/><path d="M110.806,84.18l11.59,0l0,5.48l-18.194,0l0,-32.703l6.604,0l0,27.223Z" style="fill:#fff;fill-rule:nonzero;"/><rect x="126.506" y="56.957" width="6.604" height="32.703" style="fill:#fff;"/><path d="M147.283,56.957l6.177,23.651l6.154,-23.651l8.625,0l0,32.703l-6.626,0l0,-8.85l0.606,-13.633l-6.536,22.483l-4.492,0l-6.536,-22.483l0.606,13.633l0,8.85l-6.603,0l0,-32.703l8.625,0Z" style="fill:#fff;fill-rule:nonzero;"/><path d="M189.558,82.967l-9.007,0l-1.752,6.693l-6.985,0l10.22,-32.703l6.042,0l10.287,32.703l-7.053,0l-1.752,-6.693Zm-7.569,-5.503l6.109,0l-3.054,-11.658l-3.055,11.658Z" style="fill:#fff;fill-rule:nonzero;"/><path d="M219.899,62.46l-8.086,0l0,27.2l-6.626,0l0,-27.2l-7.951,0l0,-5.503l22.663,0l0,5.503Z" style="fill:#fff;fill-rule:nonzero;"/><path d="M240.585,75.51l-10.287,0l0,8.67l12.174,0l0,5.48l-18.778,0l0,-32.703l18.733,0l0,5.503l-12.129,0l0,7.726l10.287,0l0,5.324Z" style="fill:#fff;fill-rule:nonzero;"/><path d="M272.48,82.967l-9.007,0l-1.752,6.693l-6.985,0l10.219,-32.703l6.042,0l10.287,32.703l-7.052,0l-1.752,-6.693Zm-7.57,-5.503l6.11,0l-3.055,-11.658l-3.055,11.658Z" style="fill:#fff;fill-rule:nonzero;"/><path d="M307.204,89.66l-6.603,0l-9.658,-21.45l0,21.45l-6.604,0l0,-32.703l6.604,0l9.68,21.473l0,-21.473l6.581,0l0,32.703Z" style="fill:#fff;fill-rule:nonzero;"/><path d="M312.505,89.66l0,-32.703l8.648,0c3.818,0 6.861,1.213 9.13,3.639c2.268,2.425 3.425,5.75 3.47,9.972l0,5.301c0,4.298 -1.134,7.67 -3.403,10.119c-2.268,2.448 -5.394,3.672 -9.377,3.672l-8.468,0Zm6.604,-27.2l0,21.72l1.976,0c2.201,0 3.751,-0.581 4.65,-1.741c0.898,-1.161 1.37,-3.163 1.415,-6.008l0,-5.683c0,-3.055 -0.427,-5.185 -1.281,-6.39c-0.853,-1.206 -2.306,-1.838 -4.357,-1.898l-2.403,0Z" style="fill:#fff;fill-rule:nonzero;"/><path d="M365.985,75.51l-10.288,0l0,8.67l12.174,0l0,5.48l-18.777,0l0,-32.703l18.732,0l0,5.503l-12.129,0l0,7.726l10.288,0l0,5.324Z" style="fill:#fff;fill-rule:nonzero;"/><path d="M394.532,89.66l-6.603,0l-9.658,-21.45l0,21.45l-6.604,0l0,-32.703l6.604,0l9.68,21.473l0,-21.473l6.581,0l0,32.703Z" style="fill:#fff;fill-rule:nonzero;"/><path d="M416.724,75.51l-10.287,0l0,8.67l12.174,0l0,5.48l-18.778,0l0,-32.703l18.733,0l0,5.503l-12.129,0l0,7.726l10.287,0l0,5.324Z" style="fill:#fff;fill-rule:nonzero;"/><path d="M432.312,77.711l-3.28,0l0,11.949l-6.603,0l0,-32.703l10.534,0c3.309,0 5.866,0.857 7.67,2.572c1.805,1.714 2.707,4.151 2.707,7.311c0,4.342 -1.58,7.382 -4.739,9.119l5.727,13.387l0,0.314l-7.097,0l-4.919,-11.949Zm-3.28,-5.503l3.751,0c1.318,0 2.306,-0.438 2.965,-1.314c0.659,-0.876 0.988,-2.048 0.988,-3.515c0,-3.28 -1.28,-4.919 -3.84,-4.919l-3.864,0l0,9.748Z" style="fill:#fff;fill-rule:nonzero;"/><path d="M470.113,85.954c-1.272,1.378 -2.833,2.414 -4.683,3.111c-1.849,0.696 -3.874,1.044 -6.075,1.044c-3.759,0 -6.679,-1.164 -8.76,-3.492c-2.081,-2.329 -3.152,-5.717 -3.212,-10.164l0,-5.885c0,-4.507 0.985,-7.977 2.954,-10.41c1.969,-2.434 4.84,-3.65 8.613,-3.65c3.549,0 6.226,0.876 8.03,2.628c1.804,1.752 2.849,4.499 3.133,8.243l-6.423,0c-0.18,-2.082 -0.614,-3.5 -1.303,-4.257c-0.689,-0.756 -1.767,-1.134 -3.234,-1.134c-1.782,0 -3.078,0.651 -3.886,1.954c-0.809,1.303 -1.228,3.377 -1.258,6.222l0,5.93c0,2.979 0.445,5.147 1.336,6.502c0.891,1.355 2.355,2.033 4.391,2.033c1.303,0 2.359,-0.262 3.167,-0.786l0.584,-0.405l0,-5.997l-4.626,0l0,-4.986l11.252,0l0,13.499Z" style="fill:#fff;fill-rule:nonzero;"/><path d="M484.646,71.646l4.919,-14.689l7.187,0l-8.76,20.844l0,11.859l-6.693,0l0,-11.859l-8.782,-20.844l7.187,0l4.942,14.689Z" style="fill:#fff;fill-rule:nonzero;"/><rect x="510.633" y="56.957" width="6.604" height="32.703" style="fill:#fff;"/><path d="M545.65,89.66l-6.604,0l-9.658,-21.45l0,21.45l-6.604,0l0,-32.703l6.604,0l9.681,21.473l0,-21.473l6.581,0l0,32.703Z" style="fill:#fff;fill-rule:nonzero;"/><path d="M581.389,62.46l-8.086,0l0,27.2l-6.626,0l0,-27.2l-7.951,0l0,-5.503l22.663,0l0,5.503Z" style="fill:#fff;fill-rule:nonzero;"/><path d="M608.117,89.66l-6.581,0l0,-13.993l-9.748,0l0,13.993l-6.604,0l0,-32.703l6.604,0l0,13.229l9.748,0l0,-13.229l6.581,0l0,32.703Z" style="fill:#fff;fill-rule:nonzero;"/><path d="M630.309,75.51l-10.288,0l0,8.67l12.174,0l0,5.48l-18.777,0l0,-32.703l18.732,0l0,5.503l-12.129,0l0,7.726l10.288,0l0,5.324Z" style="fill:#fff;fill-rule:nonzero;"/><path d="M663.483,75.51l-10.287,0l0,8.67l12.174,0l0,5.48l-18.777,0l0,-32.703l18.732,0l0,5.503l-12.129,0l0,7.726l10.287,0l0,5.324Z" style="fill:#fff;fill-rule:nonzero;"/><path d="M690.436,56.957l0,22.64c-0.03,3.4 -0.965,6.001 -2.807,7.806c-1.842,1.804 -4.485,2.706 -7.929,2.706c-3.504,0 -6.18,-0.913 -8.03,-2.74c-1.849,-1.827 -2.774,-4.47 -2.774,-7.929l0,-22.483l6.649,0l0,22.506c0,1.857 0.299,3.182 0.898,3.975c0.599,0.794 1.685,1.191 3.257,1.191c1.572,0 2.651,-0.393 3.234,-1.179c0.584,-0.787 0.884,-2.078 0.899,-3.875l0,-22.618l6.603,0Z" style="fill:#fff;fill-rule:nonzero;"/></g><path d="M53,0l0,155.5" style="fill:none;fill-rule:nonzero;stroke:#fff;stroke-width:1px;"/><path d="M0,124.84l554.5,0" style="fill:none;fill-rule:nonzero;stroke:#fff;stroke-width:1px;"/><g><path d="M144.241,145.649l-4.503,0l-1.048,6.071l-1.69,0l2.378,-13.748l6.959,0l-0.264,1.483l-5.258,0l-0.823,4.712l4.513,0l-0.264,1.482Z" style="fill:#fff;fill-rule:nonzero;"/><path d="M147.631,151.72l-1.633,0l1.774,-10.217l1.635,0l-1.776,10.217Zm0.519,-12.917c0.013,-0.27 0.102,-0.507 0.265,-0.708c0.163,-0.201 0.387,-0.308 0.671,-0.321c0.27,-0.013 0.493,0.079 0.67,0.274c0.175,0.195 0.258,0.437 0.245,0.726c-0.013,0.277 -0.102,0.516 -0.27,0.713c-0.166,0.199 -0.391,0.302 -0.674,0.308c-0.277,0.012 -0.501,-0.08 -0.67,-0.274c-0.17,-0.195 -0.249,-0.435 -0.237,-0.718Z" style="fill:#fff;fill-rule:nonzero;"/><path d="M153.56,141.494l-0.216,1.114c0.742,-0.875 1.585,-1.306 2.53,-1.293c0.649,0.007 1.163,0.226 1.543,0.66c0.382,0.435 0.597,1.026 0.647,1.775c0.025,0.435 0.016,0.86 -0.028,1.275l-1.114,6.695l-1.624,0l1.123,-6.723l0.038,-0.745c0,-0.965 -0.397,-1.454 -1.189,-1.474c-0.649,-0.019 -1.253,0.35 -1.813,1.105l-0.284,0.406l-1.284,7.431l-1.633,0l1.775,-10.217l1.529,-0.009Z" style="fill:#fff;fill-rule:nonzero;"/><path d="M164.06,141.324c0.937,0.026 1.636,0.422 2.096,1.19l0.981,-5.297l1.635,0l-2.513,14.503l-1.482,0l0.18,-1.096c-0.674,0.882 -1.482,1.31 -2.427,1.284c-0.85,-0.012 -1.506,-0.343 -1.969,-0.991c-0.462,-0.648 -0.693,-1.577 -0.693,-2.785c0,-0.561 0.072,-1.303 0.216,-2.229c0.146,-0.924 0.369,-1.708 0.671,-2.35c0.718,-1.53 1.819,-2.273 3.305,-2.229Zm-2.568,7.214c0.031,1.252 0.551,1.889 1.557,1.907c0.359,0.013 0.703,-0.078 1.029,-0.27c0.328,-0.19 0.659,-0.52 0.992,-0.986l0.888,-5.174c-0.315,-0.787 -0.841,-1.195 -1.577,-1.228c-1.491,-0.074 -2.392,1.02 -2.701,3.286c-0.15,1.108 -0.214,1.93 -0.188,2.465Z" style="fill:#fff;fill-rule:nonzero;"/><path d="M174.984,151.72l-1.633,0l1.775,-10.217l1.633,0l-1.775,10.217Zm0.52,-12.917c0.011,-0.27 0.1,-0.507 0.264,-0.708c0.164,-0.201 0.387,-0.308 0.67,-0.321c0.271,-0.013 0.494,0.079 0.671,0.274c0.176,0.195 0.258,0.437 0.245,0.726c-0.012,0.277 -0.102,0.516 -0.268,0.713c-0.168,0.199 -0.392,0.302 -0.676,0.308c-0.277,0.012 -0.5,-0.08 -0.67,-0.274c-0.17,-0.195 -0.249,-0.435 -0.236,-0.718Z" style="fill:#fff;fill-rule:nonzero;"/><path d="M180.914,141.494l-0.218,1.114c0.743,-0.875 1.587,-1.306 2.531,-1.293c0.648,0.007 1.163,0.226 1.543,0.66c0.382,0.435 0.597,1.026 0.647,1.775c0.026,0.435 0.016,0.86 -0.028,1.275l-1.114,6.695l-1.624,0l1.124,-6.723l0.037,-0.745c0,-0.965 -0.397,-1.454 -1.19,-1.474c-0.648,-0.019 -1.251,0.35 -1.812,1.105l-0.284,0.406l-1.284,7.431l-1.633,0l1.775,-10.217l1.53,-0.009Z" style="fill:#fff;fill-rule:nonzero;"/><path d="M187.494,151.72l1.539,-8.866l-1.293,0l0.236,-1.351l1.293,0l0.133,-1.009c0.151,-1.133 0.521,-2.002 1.11,-2.607c0.588,-0.604 1.338,-0.899 2.251,-0.887c0.327,0.012 0.68,0.073 1.058,0.181l-0.236,1.414c-0.253,-0.062 -0.504,-0.1 -0.755,-0.113c-0.97,0 -1.565,0.687 -1.786,2.061l-0.151,0.96l1.701,0l-0.237,1.351l-1.69,0l-1.538,8.866l-1.635,0Z" style="fill:#fff;fill-rule:nonzero;"/><path d="M193.481,146.158c0.207,-1.467 0.71,-2.647 1.505,-3.545c0.797,-0.897 1.803,-1.33 3.017,-1.298c0.755,0.018 1.386,0.237 1.889,0.656c0.504,0.418 0.863,0.996 1.081,1.733c0.217,0.736 0.275,1.548 0.174,2.435l-0.113,0.963c-0.208,1.461 -0.711,2.635 -1.51,3.522c-0.8,0.888 -1.803,1.316 -3.013,1.284c-0.755,-0.018 -1.384,-0.236 -1.888,-0.651c-0.503,-0.415 -0.864,-0.991 -1.08,-1.728c-0.218,-0.737 -0.276,-1.545 -0.176,-2.427l0.114,-0.944Zm1.463,1.634c-0.018,0.843 0.112,1.498 0.392,1.964c0.281,0.466 0.704,0.711 1.27,0.736c0.73,0.031 1.335,-0.228 1.813,-0.778c0.479,-0.552 0.8,-1.378 0.963,-2.479l0.142,-1.105l0.047,-0.679c0.019,-0.85 -0.115,-1.509 -0.401,-1.974c-0.287,-0.465 -0.711,-0.712 -1.27,-0.736c-0.743,-0.032 -1.361,0.274 -1.855,0.92c-0.495,0.645 -0.815,1.541 -0.959,2.687l-0.114,0.935l-0.028,0.509Z" style="fill:#fff;fill-rule:nonzero;"/><path d="M207.983,143.062c-0.27,-0.057 -0.513,-0.085 -0.727,-0.085c-0.825,0 -1.504,0.474 -2.039,1.426l-1.265,7.317l-1.633,0l1.774,-10.217l1.578,-0.009l-0.227,1.048c0.598,-0.849 1.271,-1.266 2.02,-1.246c0.151,0.006 0.384,0.054 0.699,0.142l-0.18,1.624Z" style="fill:#fff;fill-rule:nonzero;"/><path d="M211.42,141.494l-0.198,0.954c0.724,-0.781 1.561,-1.159 2.511,-1.133c0.498,0.012 0.933,0.142 1.308,0.387c0.374,0.245 0.641,0.607 0.798,1.085c0.813,-1 1.741,-1.494 2.785,-1.482c0.687,0.019 1.228,0.236 1.624,0.652c0.397,0.415 0.627,0.994 0.69,1.737c0.037,0.434 0.035,0.872 -0.009,1.312l-1.124,6.714l-1.614,0l1.114,-6.732l0.028,-0.793c-0.013,-0.447 -0.132,-0.795 -0.355,-1.044c-0.223,-0.249 -0.542,-0.373 -0.957,-0.373c-0.498,-0.013 -0.945,0.189 -1.341,0.605c-0.397,0.415 -0.639,0.909 -0.727,1.482l0,0.047l-1.162,6.808l-1.643,0l1.124,-6.723c0.026,-0.251 0.031,-0.509 0.019,-0.774c-0.045,-0.925 -0.473,-1.403 -1.284,-1.436c-0.775,-0.011 -1.42,0.41 -1.936,1.266l-1.321,7.667l-1.625,0l1.775,-10.217l1.52,-0.009Z" style="fill:#fff;fill-rule:nonzero;"/><path d="M227.565,151.72c-0.037,-0.189 -0.053,-0.375 -0.046,-0.557l0.037,-0.557c-0.723,0.874 -1.504,1.312 -2.341,1.312c-0.818,0 -1.455,-0.265 -1.912,-0.798c-0.456,-0.532 -0.66,-1.235 -0.609,-2.11c0.069,-1.057 0.505,-1.904 1.308,-2.54c0.802,-0.635 1.855,-0.954 3.159,-0.954l1.131,0l0.162,-1.085c0.113,-1.127 -0.312,-1.69 -1.275,-1.69c-0.498,0 -0.912,0.146 -1.242,0.438c-0.33,0.293 -0.54,0.676 -0.628,1.148l-1.614,0.009c0.082,-0.862 0.473,-1.586 1.175,-2.171c0.702,-0.586 1.529,-0.872 2.479,-0.86c0.919,0.013 1.625,0.295 2.119,0.845c0.495,0.551 0.695,1.321 0.6,2.309l-0.831,5.032c-0.056,0.359 -0.078,0.702 -0.065,1.03l0.056,1.038l-0.019,0.161l-1.644,0Zm-2.011,-1.313c0.819,0 1.524,-0.399 2.116,-1.199l0.425,-2.445l-0.746,-0.01c-0.642,0 -1.212,0.118 -1.71,0.354c-0.496,0.236 -0.848,0.564 -1.052,0.983c-0.205,0.418 -0.275,0.872 -0.212,1.363c0.081,0.636 0.475,0.954 1.179,0.954Z" style="fill:#fff;fill-rule:nonzero;"/><path d="M235.753,139.029l-0.435,2.474l1.501,0l-0.236,1.351l-1.492,0l-1.076,6.354l-0.019,0.378c-0.025,0.535 0.167,0.802 0.576,0.802c0.151,0.006 0.377,-0.024 0.679,-0.094l-0.14,1.426c-0.354,0.126 -0.709,0.183 -1.068,0.17c-0.572,0 -1.004,-0.236 -1.294,-0.708c-0.289,-0.473 -0.396,-1.139 -0.321,-2.002l1.039,-6.326l-1.52,0l0.245,-1.351l1.502,0l0.434,-2.474l1.625,0Z" style="fill:#fff;fill-rule:nonzero;"/><path d="M238.812,151.72l-1.634,0l1.774,-10.217l1.635,0l-1.775,10.217Zm0.518,-12.917c0.013,-0.27 0.102,-0.507 0.266,-0.708c0.162,-0.201 0.386,-0.308 0.67,-0.321c0.271,-0.013 0.494,0.079 0.67,0.274c0.176,0.195 0.258,0.437 0.245,0.726c-0.013,0.277 -0.102,0.516 -0.269,0.713c-0.167,0.199 -0.392,0.302 -0.675,0.308c-0.277,0.012 -0.501,-0.08 -0.67,-0.274c-0.17,-0.195 -0.249,-0.435 -0.237,-0.718Z" style="fill:#fff;fill-rule:nonzero;"/><path d="M242.107,146.158c0.207,-1.467 0.709,-2.647 1.505,-3.545c0.797,-0.897 1.803,-1.33 3.017,-1.298c0.755,0.018 1.385,0.237 1.889,0.656c0.504,0.418 0.863,0.996 1.081,1.733c0.217,0.736 0.275,1.548 0.174,2.435l-0.113,0.963c-0.208,1.461 -0.712,2.635 -1.511,3.522c-0.799,0.888 -1.804,1.316 -3.012,1.284c-0.755,-0.018 -1.384,-0.236 -1.888,-0.651c-0.504,-0.415 -0.864,-0.991 -1.082,-1.728c-0.216,-0.737 -0.274,-1.545 -0.174,-2.427l0.114,-0.944Zm1.463,1.634c-0.019,0.843 0.112,1.498 0.392,1.964c0.28,0.466 0.704,0.711 1.27,0.736c0.729,0.031 1.334,-0.228 1.812,-0.778c0.478,-0.552 0.799,-1.378 0.963,-2.479l0.142,-1.105l0.048,-0.679c0.019,-0.85 -0.115,-1.509 -0.401,-1.974c-0.288,-0.465 -0.711,-0.712 -1.271,-0.736c-0.743,-0.032 -1.36,0.274 -1.855,0.92c-0.494,0.645 -0.814,1.541 -0.958,2.687l-0.114,0.935l-0.028,0.509Z" style="fill:#fff;fill-rule:nonzero;"/><path d="M254.249,141.494l-0.218,1.114c0.743,-0.875 1.587,-1.306 2.531,-1.293c0.648,0.007 1.163,0.226 1.544,0.66c0.38,0.435 0.596,1.026 0.646,1.775c0.026,0.435 0.017,0.86 -0.028,1.275l-1.114,6.695l-1.624,0l1.124,-6.723l0.037,-0.745c0,-0.965 -0.396,-1.454 -1.19,-1.474c-0.648,-0.019 -1.252,0.35 -1.812,1.105l-0.284,0.406l-1.284,7.431l-1.633,0l1.775,-10.217l1.53,-0.009Z" style="fill:#fff;fill-rule:nonzero;"/><path d="M265.173,146.158c0.208,-1.467 0.709,-2.647 1.506,-3.545c0.797,-0.897 1.802,-1.33 3.016,-1.298c0.756,0.018 1.385,0.237 1.889,0.656c0.504,0.418 0.864,0.996 1.082,1.733c0.216,0.736 0.274,1.548 0.174,2.435l-0.114,0.963c-0.207,1.461 -0.711,2.635 -1.511,3.522c-0.799,0.888 -1.803,1.316 -3.011,1.284c-0.756,-0.018 -1.385,-0.236 -1.889,-0.651c-0.504,-0.415 -0.863,-0.991 -1.081,-1.728c-0.217,-0.737 -0.275,-1.545 -0.174,-2.427l0.113,-0.944Zm1.463,1.634c-0.019,0.843 0.112,1.498 0.392,1.964c0.28,0.466 0.704,0.711 1.27,0.736c0.731,0.031 1.334,-0.228 1.813,-0.778c0.478,-0.552 0.8,-1.378 0.963,-2.479l0.141,-1.105l0.048,-0.679c0.019,-0.85 -0.115,-1.509 -0.401,-1.974c-0.286,-0.465 -0.71,-0.712 -1.27,-0.736c-0.744,-0.032 -1.361,0.274 -1.856,0.92c-0.494,0.645 -0.813,1.541 -0.958,2.687l-0.113,0.935l-0.029,0.509Z" style="fill:#fff;fill-rule:nonzero;"/><path d="M277.315,141.494l-0.217,1.114c0.742,-0.875 1.587,-1.306 2.53,-1.293c0.649,0.007 1.163,0.226 1.545,0.66c0.38,0.435 0.595,1.026 0.645,1.775c0.026,0.435 0.017,0.86 -0.028,1.275l-1.114,6.695l-1.624,0l1.124,-6.723l0.037,-0.745c0,-0.965 -0.395,-1.454 -1.189,-1.474c-0.648,-0.019 -1.252,0.35 -1.813,1.105l-0.284,0.406l-1.284,7.431l-1.633,0l1.775,-10.217l1.53,-0.009Z" style="fill:#fff;fill-rule:nonzero;"/><path d="M291.912,139.029l-0.434,2.474l1.502,0l-0.236,1.351l-1.493,0l-1.076,6.354l-0.018,0.378c-0.026,0.535 0.166,0.802 0.574,0.802c0.153,0.006 0.378,-0.024 0.681,-0.094l-0.142,1.426c-0.352,0.126 -0.707,0.183 -1.067,0.17c-0.572,0 -1.003,-0.236 -1.293,-0.708c-0.29,-0.473 -0.397,-1.139 -0.321,-2.002l1.039,-6.326l-1.521,0l0.246,-1.351l1.501,0l0.434,-2.474l1.624,0Z" style="fill:#fff;fill-rule:nonzero;"/><path d="M296.35,142.562c0.761,-0.851 1.589,-1.262 2.484,-1.238c0.653,0.007 1.169,0.222 1.543,0.647c0.375,0.424 0.588,1.019 0.638,1.779c0.024,0.435 0.015,0.86 -0.028,1.275l-1.116,6.695l-1.623,0l1.123,-6.723l0.038,-0.745c0,-0.965 -0.396,-1.454 -1.189,-1.474c-0.648,-0.019 -1.253,0.35 -1.814,1.105l-0.282,0.406l-1.284,7.431l-1.635,0l2.522,-14.503l1.633,0l-1.01,5.345Z" style="fill:#fff;fill-rule:nonzero;"/><path d="M306.17,151.908c-1.146,-0.012 -2.002,-0.424 -2.569,-1.236c-0.566,-0.813 -0.774,-1.92 -0.623,-3.324l0.123,-1.01c0.196,-1.586 0.678,-2.827 1.449,-3.725c0.772,-0.897 1.752,-1.33 2.941,-1.298c0.97,0.025 1.698,0.357 2.187,0.995c0.487,0.64 0.718,1.538 0.693,2.696l-0.085,1.133l-0.141,0.973l-5.477,-0.01c-0.081,0.567 -0.12,1.011 -0.113,1.332c0.013,0.635 0.17,1.134 0.472,1.496c0.303,0.363 0.733,0.547 1.294,0.553c0.402,0.012 0.8,-0.068 1.194,-0.241c0.393,-0.174 0.808,-0.477 1.241,-0.911l0.766,1.067c-0.404,0.529 -0.901,0.916 -1.493,1.161c-0.592,0.246 -1.21,0.362 -1.859,0.349Zm1.217,-9.167c-1.114,-0.05 -1.894,0.623 -2.341,2.02l-0.255,0.917l3.919,0.009l0.046,-0.247c0.039,-0.288 0.057,-0.591 0.057,-0.906c-0.025,-1.145 -0.5,-1.743 -1.426,-1.793Z" style="fill:#fff;fill-rule:nonzero;"/><path d="M323.363,145.366l-4.712,0l-0.849,4.871l5.496,0l-0.265,1.483l-7.176,0l2.379,-13.748l7.101,0l-0.264,1.483l-5.402,0l-0.773,4.428l4.721,0l-0.256,1.483Z" style="fill:#fff;fill-rule:nonzero;"/><path d="M335.722,137.972l-1.651,9.678c-0.183,1.347 -0.696,2.403 -1.539,3.169c-0.844,0.764 -1.904,1.134 -3.182,1.108c-1.216,-0.024 -2.136,-0.416 -2.763,-1.175c-0.626,-0.758 -0.866,-1.79 -0.722,-3.092l1.643,-9.688l1.681,0l-1.643,9.705c-0.045,0.378 -0.047,0.73 -0.01,1.058c0.107,1.103 0.743,1.672 1.908,1.71c0.799,0.032 1.448,-0.178 1.945,-0.628c0.497,-0.451 0.822,-1.127 0.972,-2.027l1.662,-9.818l1.699,0Z" style="fill:#fff;fill-rule:nonzero;"/><path d="M345.288,151.72c-0.038,-0.189 -0.055,-0.375 -0.048,-0.557l0.038,-0.557c-0.724,0.874 -1.504,1.312 -2.342,1.312c-0.818,0 -1.455,-0.265 -1.912,-0.798c-0.456,-0.532 -0.66,-1.235 -0.608,-2.11c0.068,-1.057 0.504,-1.904 1.307,-2.54c0.802,-0.635 1.855,-0.954 3.158,-0.954l1.134,0l0.159,-1.085c0.114,-1.127 -0.31,-1.69 -1.273,-1.69c-0.498,0 -0.912,0.146 -1.243,0.438c-0.33,0.293 -0.539,0.676 -0.628,1.148l-1.614,0.009c0.081,-0.862 0.473,-1.586 1.176,-2.171c0.701,-0.586 1.528,-0.872 2.478,-0.86c0.919,0.013 1.625,0.295 2.12,0.845c0.494,0.551 0.694,1.321 0.6,2.309l-0.832,5.032c-0.056,0.359 -0.078,0.702 -0.066,1.03l0.057,1.038l-0.019,0.161l-1.642,0Zm-2.012,-1.313c0.819,0 1.523,-0.399 2.115,-1.199l0.425,-2.445l-0.746,-0.01c-0.642,0 -1.212,0.118 -1.708,0.354c-0.498,0.236 -0.849,0.564 -1.054,0.983c-0.205,0.418 -0.276,0.872 -0.212,1.363c0.082,0.636 0.475,0.954 1.18,0.954Z" style="fill:#fff;fill-rule:nonzero;"/><path d="M352.434,141.494l-0.216,1.114c0.742,-0.875 1.586,-1.306 2.53,-1.293c0.649,0.007 1.163,0.226 1.544,0.66c0.381,0.435 0.596,1.026 0.647,1.775c0.024,0.435 0.015,0.86 -0.029,1.275l-1.113,6.695l-1.625,0l1.123,-6.723l0.039,-0.745c0,-0.965 -0.397,-1.454 -1.19,-1.474c-0.649,-0.019 -1.253,0.35 -1.813,1.105l-0.283,0.406l-1.284,7.431l-1.634,0l1.776,-10.217l1.528,-0.009Z" style="fill:#fff;fill-rule:nonzero;"/><path d="M362.934,141.324c0.938,0.026 1.636,0.422 2.097,1.19l0.981,-5.297l1.634,0l-2.512,14.503l-1.483,0l0.181,-1.096c-0.675,0.882 -1.483,1.31 -2.428,1.284c-0.849,-0.012 -1.505,-0.343 -1.968,-0.991c-0.463,-0.648 -0.694,-1.577 -0.694,-2.785c0,-0.561 0.072,-1.303 0.217,-2.229c0.145,-0.924 0.368,-1.708 0.67,-2.35c0.718,-1.53 1.819,-2.273 3.305,-2.229Zm-2.568,7.214c0.031,1.252 0.551,1.889 1.558,1.907c0.358,0.013 0.702,-0.078 1.028,-0.27c0.328,-0.19 0.659,-0.52 0.992,-0.986l0.888,-5.174c-0.315,-0.787 -0.84,-1.195 -1.577,-1.228c-1.491,-0.074 -2.392,1.02 -2.7,3.286c-0.151,1.108 -0.214,1.93 -0.189,2.465Z" style="fill:#fff;fill-rule:nonzero;"/><path d="M373.859,151.72l-1.634,0l1.775,-10.217l1.634,0l-1.775,10.217Zm0.519,-12.917c0.013,-0.27 0.101,-0.507 0.264,-0.708c0.164,-0.201 0.387,-0.308 0.671,-0.321c0.27,-0.013 0.493,0.079 0.67,0.274c0.177,0.195 0.258,0.437 0.245,0.726c-0.012,0.277 -0.102,0.516 -0.268,0.713c-0.168,0.199 -0.392,0.302 -0.676,0.308c-0.277,0.012 -0.5,-0.08 -0.67,-0.274c-0.17,-0.195 -0.249,-0.435 -0.236,-0.718Z" style="fill:#fff;fill-rule:nonzero;"/><path d="M380.826,139.029l-0.434,2.474l1.502,0l-0.236,1.351l-1.493,0l-1.075,6.354l-0.02,0.378c-0.025,0.535 0.167,0.802 0.577,0.802c0.151,0.006 0.377,-0.024 0.679,-0.094l-0.142,1.426c-0.352,0.126 -0.707,0.183 -1.066,0.17c-0.573,0 -1.004,-0.236 -1.294,-0.708c-0.29,-0.473 -0.397,-1.139 -0.321,-2.002l1.039,-6.326l-1.52,0l0.245,-1.351l1.502,0l0.433,-2.474l1.624,0Z" style="fill:#fff;fill-rule:nonzero;"/><path d="M387.445,149.029c0.082,-0.598 -0.252,-1.095 -1.001,-1.493l-1.264,-0.66c-0.655,-0.366 -1.113,-0.752 -1.375,-1.161c-0.261,-0.41 -0.376,-0.884 -0.344,-1.426c0.051,-0.862 0.402,-1.576 1.057,-2.144c0.655,-0.566 1.454,-0.843 2.398,-0.83c0.913,0.025 1.628,0.325 2.144,0.901c0.516,0.576 0.755,1.311 0.718,2.205l-1.615,0c0.013,-0.51 -0.101,-0.91 -0.341,-1.203c-0.238,-0.294 -0.572,-0.446 -1,-0.459c-0.485,0 -0.884,0.138 -1.199,0.411c-0.314,0.273 -0.504,0.628 -0.567,1.062c-0.075,0.51 0.174,0.929 0.746,1.256l1.596,0.812c1.177,0.655 1.734,1.524 1.671,2.606c-0.063,0.925 -0.434,1.664 -1.114,2.214c-0.679,0.551 -1.507,0.814 -2.483,0.788c-0.938,-0.012 -1.7,-0.318 -2.285,-0.921c-0.586,-0.6 -0.859,-1.376 -0.821,-2.326l1.642,0.009c-0.012,0.591 0.117,1.04 0.388,1.345c0.271,0.306 0.655,0.458 1.151,0.458c0.523,0 0.955,-0.131 1.298,-0.396c0.343,-0.264 0.544,-0.613 0.6,-1.048Z" style="fill:#fff;fill-rule:nonzero;"/><path d="M399.908,137.972l1.53,11.198l5.42,-11.198l2.209,0l-2.388,13.748l-1.691,0l0.944,-5.439l1.048,-5.108l-5.278,10.547l-1.293,0l-1.624,-10.765l-0.803,5.496l-0.906,5.269l-1.69,0l2.379,-13.748l2.143,0Z" style="fill:#fff;fill-rule:nonzero;"/><path d="M413.231,151.908c-1.146,-0.012 -2.002,-0.424 -2.568,-1.236c-0.567,-0.813 -0.775,-1.92 -0.624,-3.324l0.124,-1.01c0.195,-1.586 0.678,-2.827 1.449,-3.725c0.771,-0.897 1.751,-1.33 2.941,-1.298c0.969,0.025 1.697,0.357 2.186,0.995c0.487,0.64 0.719,1.538 0.693,2.696l-0.085,1.133l-0.141,0.973l-5.477,-0.01c-0.081,0.567 -0.118,1.011 -0.113,1.332c0.013,0.635 0.17,1.134 0.473,1.496c0.302,0.363 0.734,0.547 1.293,0.553c0.404,0.012 0.801,-0.068 1.195,-0.241c0.393,-0.174 0.807,-0.477 1.241,-0.911l0.765,1.067c-0.402,0.529 -0.9,0.916 -1.492,1.161c-0.591,0.246 -1.211,0.362 -1.86,0.349Zm1.218,-9.167c-1.115,-0.05 -1.895,0.623 -2.342,2.02l-0.254,0.917l3.918,0.009l0.047,-0.247c0.038,-0.288 0.057,-0.591 0.057,-0.906c-0.026,-1.145 -0.5,-1.743 -1.426,-1.793Z" style="fill:#fff;fill-rule:nonzero;"/><path d="M421.596,141.494l-0.198,0.954c0.724,-0.781 1.561,-1.159 2.512,-1.133c0.497,0.012 0.932,0.142 1.308,0.387c0.375,0.245 0.64,0.607 0.797,1.085c0.813,-1 1.741,-1.494 2.786,-1.482c0.686,0.019 1.228,0.236 1.623,0.652c0.397,0.415 0.627,0.994 0.69,1.737c0.037,0.434 0.035,0.872 -0.009,1.312l-1.124,6.714l-1.614,0l1.114,-6.732l0.028,-0.793c-0.013,-0.447 -0.13,-0.795 -0.354,-1.044c-0.223,-0.249 -0.543,-0.373 -0.958,-0.373c-0.498,-0.013 -0.945,0.189 -1.341,0.605c-0.397,0.415 -0.639,0.909 -0.727,1.482l0,0.047l-1.162,6.808l-1.643,0l1.124,-6.723c0.026,-0.251 0.031,-0.509 0.019,-0.774c-0.044,-0.925 -0.472,-1.403 -1.284,-1.436c-0.774,-0.011 -1.419,0.41 -1.936,1.266l-1.321,7.667l-1.625,0l1.775,-10.217l1.52,-0.009Z" style="fill:#fff;fill-rule:nonzero;"/><path d="M436.581,151.908c-1.045,-0.037 -1.785,-0.507 -2.218,-1.407l-0.35,1.219l-1.502,0l2.522,-14.503l1.623,0l-1.029,5.41c0.673,-0.899 1.485,-1.338 2.437,-1.312c0.887,0.012 1.556,0.338 2.006,0.977c0.45,0.638 0.662,1.569 0.636,2.79c-0.024,0.674 -0.1,1.426 -0.225,2.257c-0.126,0.83 -0.312,1.542 -0.558,2.134c-0.686,1.668 -1.8,2.48 -3.342,2.435Zm2.52,-7.213c-0.03,-0.661 -0.175,-1.142 -0.434,-1.445c-0.258,-0.302 -0.632,-0.459 -1.123,-0.472c-0.799,-0.019 -1.502,0.45 -2.106,1.407l-0.83,4.882c0.295,0.887 0.843,1.347 1.642,1.378c0.737,0.032 1.329,-0.228 1.775,-0.779c0.447,-0.55 0.741,-1.423 0.883,-2.616c0.142,-1.192 0.206,-1.977 0.193,-2.355Z" style="fill:#fff;fill-rule:nonzero;"/><path d="M445.664,151.908c-1.146,-0.012 -2.002,-0.424 -2.569,-1.236c-0.566,-0.813 -0.773,-1.92 -0.622,-3.324l0.122,-1.01c0.196,-1.586 0.678,-2.827 1.449,-3.725c0.772,-0.897 1.752,-1.33 2.942,-1.298c0.969,0.025 1.698,0.357 2.186,0.995c0.487,0.64 0.718,1.538 0.694,2.696l-0.085,1.133l-0.142,0.973l-5.476,-0.01c-0.082,0.567 -0.12,1.011 -0.114,1.332c0.013,0.635 0.17,1.134 0.472,1.496c0.303,0.363 0.733,0.547 1.294,0.553c0.402,0.012 0.801,-0.068 1.194,-0.241c0.393,-0.174 0.808,-0.477 1.241,-0.911l0.766,1.067c-0.403,0.529 -0.901,0.916 -1.493,1.161c-0.591,0.246 -1.21,0.362 -1.859,0.349Zm1.217,-9.167c-1.113,-0.05 -1.893,0.623 -2.341,2.02l-0.255,0.917l3.919,0.009l0.046,-0.247c0.039,-0.288 0.057,-0.591 0.057,-0.906c-0.024,-1.145 -0.5,-1.743 -1.426,-1.793Z" style="fill:#fff;fill-rule:nonzero;"/><path d="M456.39,143.062c-0.271,-0.057 -0.513,-0.085 -0.727,-0.085c-0.825,0 -1.504,0.474 -2.039,1.426l-1.266,7.317l-1.634,0l1.775,-10.217l1.577,-0.009l-0.226,1.048c0.599,-0.849 1.271,-1.266 2.02,-1.246c0.151,0.006 0.385,0.054 0.699,0.142l-0.179,1.624Z" style="fill:#fff;fill-rule:nonzero;"/><path d="M467.626,148.169c0.068,-0.572 -0.026,-1.053 -0.284,-1.44c-0.257,-0.386 -0.792,-0.756 -1.605,-1.108c-0.812,-0.353 -1.432,-0.716 -1.86,-1.087c-0.9,-0.773 -1.306,-1.749 -1.218,-2.926c0.089,-1.109 0.54,-2.029 1.355,-2.763c0.816,-0.732 1.798,-1.087 2.951,-1.062c1.107,0.026 1.982,0.428 2.624,1.209c0.642,0.78 0.923,1.762 0.841,2.946l-1.699,0c0.062,-0.869 -0.067,-1.528 -0.388,-1.978c-0.321,-0.45 -0.812,-0.682 -1.472,-0.695c-0.681,-0.011 -1.25,0.195 -1.71,0.62c-0.459,0.426 -0.727,0.989 -0.802,1.688c-0.063,0.517 0.056,0.973 0.359,1.366c0.301,0.395 0.829,0.751 1.582,1.069c0.751,0.319 1.342,0.655 1.77,1.008c0.943,0.774 1.362,1.819 1.255,3.134c-0.094,1.122 -0.545,2.034 -1.355,2.738c-0.808,0.705 -1.824,1.046 -3.045,1.02c-1.152,-0.025 -2.074,-0.428 -2.766,-1.208c-0.692,-0.78 -1.007,-1.773 -0.944,-2.974l1.699,0.009c-0.069,0.812 0.082,1.461 0.454,1.945c0.371,0.485 0.922,0.734 1.651,0.747c0.686,0.024 1.27,-0.168 1.752,-0.577c0.481,-0.409 0.766,-0.969 0.855,-1.681Z" style="fill:#fff;fill-rule:nonzero;"/><path d="M475.066,139.029l-0.435,2.474l1.502,0l-0.236,1.351l-1.491,0l-1.077,6.354l-0.019,0.378c-0.026,0.535 0.166,0.802 0.576,0.802c0.151,0.006 0.378,-0.024 0.679,-0.094l-0.141,1.426c-0.352,0.126 -0.708,0.183 -1.066,0.17c-0.574,0 -1.005,-0.236 -1.295,-0.708c-0.289,-0.473 -0.397,-1.139 -0.321,-2.002l1.039,-6.326l-1.52,0l0.245,-1.351l1.502,0l0.433,-2.474l1.625,0Z" style="fill:#fff;fill-rule:nonzero;"/><path d="M481.6,151.72c-0.038,-0.189 -0.054,-0.375 -0.047,-0.557l0.037,-0.557c-0.723,0.874 -1.504,1.312 -2.341,1.312c-0.819,0 -1.456,-0.265 -1.912,-0.798c-0.456,-0.532 -0.66,-1.235 -0.61,-2.11c0.07,-1.057 0.506,-1.904 1.309,-2.54c0.802,-0.635 1.855,-0.954 3.158,-0.954l1.133,0l0.16,-1.085c0.114,-1.127 -0.312,-1.69 -1.275,-1.69c-0.496,0 -0.911,0.146 -1.241,0.438c-0.33,0.293 -0.54,0.676 -0.628,1.148l-1.614,0.009c0.081,-0.862 0.473,-1.586 1.176,-2.171c0.701,-0.586 1.527,-0.872 2.477,-0.86c0.92,0.013 1.626,0.295 2.12,0.845c0.495,0.551 0.695,1.321 0.599,2.309l-0.83,5.032c-0.057,0.359 -0.079,0.702 -0.066,1.03l0.057,1.038l-0.019,0.161l-1.643,0Zm-2.011,-1.313c0.818,0 1.523,-0.399 2.114,-1.199l0.426,-2.445l-0.747,-0.01c-0.642,0 -1.211,0.118 -1.709,0.354c-0.496,0.236 -0.848,0.564 -1.052,0.983c-0.205,0.418 -0.276,0.872 -0.213,1.363c0.082,0.636 0.476,0.954 1.181,0.954Z" style="fill:#fff;fill-rule:nonzero;"/><path d="M489.786,139.029l-0.434,2.474l1.5,0l-0.236,1.351l-1.491,0l-1.077,6.354l-0.019,0.378c-0.024,0.535 0.168,0.802 0.576,0.802c0.151,0.006 0.378,-0.024 0.68,-0.094l-0.141,1.426c-0.353,0.126 -0.709,0.183 -1.067,0.17c-0.573,0 -1.004,-0.236 -1.293,-0.708c-0.29,-0.473 -0.397,-1.139 -0.321,-2.002l1.038,-6.326l-1.52,0l0.245,-1.351l1.501,0l0.435,-2.474l1.624,0Z" style="fill:#fff;fill-rule:nonzero;"/><path d="M494.894,151.908c-1.146,-0.012 -2.002,-0.424 -2.568,-1.236c-0.567,-0.813 -0.775,-1.92 -0.624,-3.324l0.124,-1.01c0.194,-1.586 0.678,-2.827 1.449,-3.725c0.771,-0.897 1.752,-1.33 2.94,-1.298c0.97,0.025 1.699,0.357 2.187,0.995c0.487,0.64 0.719,1.538 0.693,2.696l-0.085,1.133l-0.141,0.973l-5.476,-0.01c-0.082,0.567 -0.12,1.011 -0.113,1.332c0.011,0.635 0.169,1.134 0.472,1.496c0.301,0.363 0.733,0.547 1.293,0.553c0.403,0.012 0.801,-0.068 1.195,-0.241c0.393,-0.174 0.807,-0.477 1.241,-0.911l0.765,1.067c-0.403,0.529 -0.9,0.916 -1.492,1.161c-0.592,0.246 -1.212,0.362 -1.86,0.349Zm1.218,-9.167c-1.114,-0.05 -1.895,0.623 -2.342,2.02l-0.254,0.917l3.917,0.009l0.048,-0.247c0.037,-0.288 0.057,-0.591 0.057,-0.906c-0.026,-1.145 -0.5,-1.743 -1.426,-1.793Z" style="fill:#fff;fill-rule:nonzero;"/><path d="M505.28,149.029c0.082,-0.598 -0.252,-1.095 -1.001,-1.493l-1.265,-0.66c-0.655,-0.366 -1.113,-0.752 -1.374,-1.161c-0.261,-0.41 -0.377,-0.884 -0.344,-1.426c0.05,-0.862 0.402,-1.576 1.057,-2.144c0.655,-0.566 1.454,-0.843 2.399,-0.83c0.912,0.025 1.627,0.325 2.142,0.901c0.517,0.576 0.756,1.311 0.718,2.205l-1.615,0c0.013,-0.51 -0.1,-0.91 -0.339,-1.203c-0.24,-0.294 -0.574,-0.446 -1.002,-0.459c-0.484,0 -0.884,0.138 -1.199,0.411c-0.314,0.273 -0.502,0.628 -0.565,1.062c-0.077,0.51 0.172,0.929 0.745,1.256l1.596,0.812c1.177,0.655 1.733,1.524 1.67,2.606c-0.062,0.925 -0.433,1.664 -1.113,2.214c-0.68,0.551 -1.507,0.814 -2.483,0.788c-0.939,-0.012 -1.699,-0.318 -2.286,-0.921c-0.585,-0.6 -0.859,-1.376 -0.821,-2.326l1.643,0.009c-0.012,0.591 0.117,1.04 0.387,1.345c0.271,0.306 0.655,0.458 1.153,0.458c0.522,0 0.955,-0.131 1.298,-0.396c0.343,-0.264 0.543,-0.613 0.599,-1.048Z" style="fill:#fff;fill-rule:nonzero;"/><path d="M511.908,138.331l-0.717,3.408l-1.209,0l0.727,-4.522l1.378,0l-0.179,1.114Z" style="fill:#fff;fill-rule:nonzero;"/></g><g><path d="M82.091,177.201c-0.97,-0.026 -1.699,-0.419 -2.19,-1.181l-0.917,4.911l-1.623,0l2.455,-14.145l1.463,-0.009l-0.189,1.143c0.693,-0.9 1.52,-1.344 2.483,-1.332c0.907,0.013 1.583,0.352 2.031,1.016c0.446,0.664 0.651,1.584 0.613,2.761c-0.019,0.548 -0.091,1.262 -0.218,2.144c-0.125,0.88 -0.31,1.62 -0.556,2.218c-0.693,1.693 -1.81,2.518 -3.352,2.474Zm2.502,-7.233c-0.094,-1.245 -0.629,-1.878 -1.605,-1.898c-0.742,-0.018 -1.404,0.382 -1.983,1.199l-0.916,5.336c0.303,0.742 0.825,1.133 1.567,1.17c0.736,0.031 1.341,-0.229 1.813,-0.783c0.473,-0.555 0.784,-1.417 0.936,-2.588c0.151,-1.17 0.214,-1.982 0.188,-2.436Z" style="fill:#fff;fill-rule:nonzero;"/><path d="M93.043,168.345c-0.27,-0.057 -0.513,-0.085 -0.727,-0.085c-0.824,0 -1.504,0.474 -2.039,1.426l-1.265,7.317l-1.633,0l1.775,-10.217l1.577,-0.009l-0.227,1.048c0.598,-0.849 1.271,-1.266 2.02,-1.246c0.152,0.006 0.384,0.054 0.698,0.142l-0.179,1.624Z" style="fill:#fff;fill-rule:nonzero;"/><path d="M93.657,171.441c0.209,-1.467 0.71,-2.647 1.507,-3.545c0.795,-0.897 1.801,-1.33 3.016,-1.298c0.756,0.018 1.385,0.237 1.889,0.656c0.503,0.418 0.864,0.996 1.08,1.733c0.218,0.736 0.276,1.548 0.176,2.435l-0.114,0.963c-0.207,1.461 -0.711,2.635 -1.511,3.522c-0.799,0.888 -1.803,1.316 -3.011,1.284c-0.755,-0.018 -1.386,-0.236 -1.889,-0.651c-0.504,-0.415 -0.863,-0.991 -1.081,-1.728c-0.217,-0.737 -0.276,-1.545 -0.174,-2.427l0.112,-0.944Zm1.464,1.634c-0.019,0.843 0.111,1.498 0.392,1.964c0.28,0.466 0.703,0.711 1.27,0.736c0.73,0.031 1.334,-0.228 1.813,-0.778c0.478,-0.552 0.799,-1.378 0.963,-2.479l0.141,-1.105l0.048,-0.679c0.018,-0.85 -0.116,-1.509 -0.402,-1.974c-0.286,-0.465 -0.709,-0.712 -1.27,-0.736c-0.742,-0.032 -1.361,0.275 -1.855,0.92c-0.494,0.645 -0.813,1.541 -0.958,2.687l-0.113,0.935l-0.029,0.509Z" style="fill:#fff;fill-rule:nonzero;"/><path d="M107.131,166.598c1.002,0.025 1.722,0.472 2.162,1.341l0.34,-1.153l1.483,0l-1.747,10.302c-0.107,0.806 -0.344,1.513 -0.713,2.124c-0.369,0.61 -0.846,1.073 -1.431,1.389c-0.585,0.314 -1.252,0.459 -2.001,0.433c-0.535,-0.012 -1.074,-0.143 -1.615,-0.392c-0.541,-0.248 -0.978,-0.565 -1.312,-0.949l0.774,-1.123c0.61,0.667 1.306,1.014 2.086,1.038c0.687,0.026 1.252,-0.166 1.695,-0.575c0.444,-0.41 0.739,-1.026 0.884,-1.851l0.244,-1.19c-0.672,0.825 -1.459,1.225 -2.36,1.199c-0.874,-0.012 -1.54,-0.352 -1.997,-1.02c-0.456,-0.666 -0.678,-1.583 -0.665,-2.747c0,-0.498 0.059,-1.177 0.179,-2.039c0.221,-1.579 0.665,-2.781 1.336,-3.602c0.67,-0.821 1.557,-1.217 2.658,-1.185Zm-2.549,7.226c0.031,1.25 0.547,1.886 1.549,1.904c0.755,0.019 1.432,-0.405 2.029,-1.273l0.879,-5.12c-0.328,-0.806 -0.851,-1.223 -1.568,-1.254c-1.511,-0.057 -2.414,1.055 -2.71,3.337c-0.145,1.101 -0.204,1.902 -0.179,2.406Z" style="fill:#fff;fill-rule:nonzero;"/><path d="M117.498,168.345c-0.271,-0.057 -0.513,-0.085 -0.727,-0.085c-0.824,0 -1.504,0.474 -2.039,1.426l-1.265,7.317l-1.633,0l1.775,-10.217l1.576,-0.009l-0.226,1.048c0.598,-0.849 1.271,-1.266 2.02,-1.246c0.15,0.006 0.384,0.054 0.698,0.142l-0.179,1.624Z" style="fill:#fff;fill-rule:nonzero;"/><path d="M121.265,177.191c-1.145,-0.012 -2.001,-0.424 -2.568,-1.236c-0.566,-0.812 -0.773,-1.92 -0.623,-3.324l0.123,-1.01c0.194,-1.586 0.678,-2.827 1.449,-3.725c0.771,-0.897 1.752,-1.33 2.942,-1.298c0.969,0.025 1.697,0.357 2.185,0.995c0.488,0.64 0.719,1.538 0.695,2.696l-0.086,1.133l-0.141,0.973l-5.477,-0.01c-0.082,0.567 -0.119,1.011 -0.113,1.332c0.013,0.635 0.17,1.134 0.472,1.496c0.303,0.363 0.733,0.547 1.294,0.553c0.402,0.012 0.801,-0.068 1.194,-0.241c0.393,-0.174 0.807,-0.477 1.241,-0.911l0.766,1.067c-0.404,0.529 -0.901,0.916 -1.493,1.161c-0.592,0.246 -1.212,0.362 -1.86,0.349Zm1.218,-9.167c-1.114,-0.05 -1.894,0.623 -2.341,2.02l-0.255,0.917l3.919,0.009l0.046,-0.247c0.039,-0.288 0.057,-0.591 0.057,-0.906c-0.025,-1.145 -0.5,-1.743 -1.426,-1.793Z" style="fill:#fff;fill-rule:nonzero;"/><path d="M131.651,174.312c0.083,-0.598 -0.251,-1.095 -1,-1.493l-1.266,-0.66c-0.655,-0.366 -1.112,-0.752 -1.373,-1.161c-0.261,-0.41 -0.376,-0.884 -0.345,-1.426c0.05,-0.862 0.403,-1.576 1.058,-2.144c0.654,-0.566 1.454,-0.843 2.398,-0.83c0.913,0.025 1.627,0.325 2.144,0.901c0.515,0.576 0.754,1.311 0.717,2.205l-1.614,0c0.011,-0.51 -0.101,-0.91 -0.341,-1.203c-0.238,-0.294 -0.572,-0.446 -1,-0.459c-0.485,0 -0.885,0.138 -1.199,0.411c-0.316,0.274 -0.504,0.628 -0.567,1.062c-0.076,0.51 0.172,0.929 0.746,1.256l1.595,0.812c1.178,0.655 1.735,1.524 1.672,2.606c-0.063,0.925 -0.435,1.664 -1.114,2.214c-0.681,0.551 -1.508,0.814 -2.484,0.788c-0.937,-0.012 -1.699,-0.318 -2.285,-0.92c-0.585,-0.601 -0.859,-1.377 -0.821,-2.327l1.643,0.009c-0.013,0.591 0.116,1.04 0.386,1.345c0.271,0.306 0.655,0.458 1.153,0.458c0.522,0 0.955,-0.131 1.298,-0.396c0.343,-0.264 0.543,-0.613 0.599,-1.048Z" style="fill:#fff;fill-rule:nonzero;"/><path d="M140.291,174.312c0.081,-0.598 -0.252,-1.095 -1.001,-1.493l-1.265,-0.66c-0.655,-0.366 -1.113,-0.752 -1.374,-1.161c-0.261,-0.41 -0.375,-0.884 -0.344,-1.426c0.05,-0.862 0.402,-1.576 1.057,-2.144c0.654,-0.566 1.454,-0.843 2.399,-0.83c0.912,0.025 1.627,0.325 2.142,0.901c0.517,0.576 0.756,1.311 0.718,2.205l-1.615,0c0.013,-0.51 -0.101,-0.91 -0.339,-1.203c-0.24,-0.294 -0.574,-0.446 -1.002,-0.459c-0.484,0 -0.884,0.138 -1.199,0.411c-0.314,0.274 -0.502,0.628 -0.566,1.062c-0.076,0.51 0.173,0.929 0.746,1.256l1.596,0.812c1.177,0.655 1.733,1.524 1.672,2.606c-0.064,0.925 -0.435,1.664 -1.116,2.214c-0.679,0.551 -1.507,0.814 -2.482,0.788c-0.939,-0.012 -1.7,-0.318 -2.285,-0.92c-0.586,-0.601 -0.86,-1.377 -0.822,-2.327l1.643,0.009c-0.012,0.591 0.116,1.04 0.387,1.345c0.271,0.306 0.655,0.458 1.153,0.458c0.522,0 0.955,-0.131 1.298,-0.396c0.343,-0.264 0.543,-0.613 0.599,-1.048Z" style="fill:#fff;fill-rule:nonzero;"/><path d="M149.761,177.003l-1.633,0l1.775,-10.217l1.633,0l-1.775,10.217Zm0.52,-12.917c0.013,-0.27 0.1,-0.507 0.264,-0.708c0.164,-0.201 0.387,-0.308 0.67,-0.321c0.271,-0.013 0.494,0.079 0.671,0.274c0.176,0.195 0.258,0.438 0.245,0.726c-0.012,0.277 -0.102,0.516 -0.269,0.713c-0.167,0.199 -0.391,0.302 -0.675,0.308c-0.277,0.012 -0.5,-0.08 -0.67,-0.274c-0.171,-0.195 -0.249,-0.435 -0.236,-0.718Z" style="fill:#fff;fill-rule:nonzero;"/><path d="M155.691,166.777l-0.218,1.114c0.743,-0.875 1.587,-1.306 2.531,-1.293c0.648,0.007 1.163,0.226 1.543,0.66c0.382,0.435 0.597,1.026 0.647,1.775c0.026,0.435 0.016,0.86 -0.028,1.275l-1.114,6.695l-1.624,0l1.124,-6.723l0.037,-0.745c0,-0.964 -0.397,-1.454 -1.19,-1.474c-0.648,-0.019 -1.251,0.35 -1.812,1.105l-0.284,0.406l-1.284,7.431l-1.633,0l1.775,-10.217l1.53,-0.009Z" style="fill:#fff;fill-rule:nonzero;"/><path d="M170.288,164.313l-0.434,2.473l1.5,0l-0.236,1.351l-1.491,0l-1.077,6.354l-0.019,0.378c-0.025,0.535 0.168,0.802 0.576,0.802c0.151,0.006 0.378,-0.024 0.681,-0.094l-0.142,1.426c-0.353,0.126 -0.709,0.183 -1.067,0.17c-0.573,0 -1.005,-0.236 -1.293,-0.708c-0.29,-0.473 -0.397,-1.139 -0.321,-2.002l1.037,-6.326l-1.519,0l0.246,-1.351l1.5,0l0.435,-2.473l1.624,0Z" style="fill:#fff;fill-rule:nonzero;"/><path d="M174.725,167.845c0.762,-0.851 1.59,-1.262 2.483,-1.238c0.655,0.007 1.169,0.222 1.544,0.647c0.374,0.424 0.587,1.019 0.637,1.779c0.026,0.435 0.017,0.86 -0.028,1.275l-1.114,6.695l-1.624,0l1.124,-6.723l0.037,-0.745c0,-0.964 -0.395,-1.454 -1.19,-1.474c-0.648,-0.019 -1.251,0.35 -1.812,1.105l-0.284,0.406l-1.284,7.431l-1.633,0l2.522,-14.503l1.633,0l-1.011,5.345Z" style="fill:#fff;fill-rule:nonzero;"/><path d="M184.545,177.191c-1.145,-0.012 -2.001,-0.424 -2.568,-1.236c-0.566,-0.812 -0.774,-1.92 -0.623,-3.324l0.122,-1.01c0.195,-1.586 0.678,-2.827 1.449,-3.725c0.771,-0.897 1.752,-1.33 2.942,-1.298c0.97,0.025 1.698,0.357 2.185,0.995c0.489,0.64 0.72,1.538 0.695,2.696l-0.085,1.133l-0.142,0.973l-5.476,-0.01c-0.083,0.567 -0.12,1.011 -0.113,1.332c0.012,0.635 0.17,1.134 0.471,1.496c0.302,0.363 0.734,0.547 1.295,0.553c0.402,0.012 0.8,-0.068 1.193,-0.241c0.394,-0.174 0.807,-0.477 1.242,-0.911l0.764,1.067c-0.402,0.529 -0.9,0.916 -1.491,1.161c-0.592,0.246 -1.212,0.362 -1.86,0.349Zm1.218,-9.167c-1.114,-0.05 -1.895,0.623 -2.341,2.02l-0.256,0.917l3.919,0.009l0.047,-0.247c0.037,-0.288 0.057,-0.591 0.057,-0.906c-0.025,-1.145 -0.501,-1.743 -1.426,-1.793Z" style="fill:#fff;fill-rule:nonzero;"/><path d="M191.372,177.003l-1.634,0l1.776,-10.217l1.633,0l-1.775,10.217Zm0.519,-12.917c0.012,-0.27 0.101,-0.507 0.265,-0.708c0.163,-0.201 0.386,-0.308 0.67,-0.321c0.271,-0.013 0.494,0.079 0.67,0.274c0.176,0.195 0.258,0.438 0.245,0.726c-0.013,0.277 -0.102,0.516 -0.269,0.713c-0.167,0.199 -0.392,0.302 -0.674,0.308c-0.278,0.012 -0.501,-0.08 -0.671,-0.274c-0.17,-0.195 -0.249,-0.435 -0.236,-0.718Z" style="fill:#fff;fill-rule:nonzero;"/><path d="M199.661,168.345c-0.271,-0.057 -0.513,-0.085 -0.727,-0.085c-0.824,0 -1.505,0.474 -2.04,1.426l-1.264,7.317l-1.634,0l1.776,-10.217l1.576,-0.009l-0.227,1.048c0.598,-0.849 1.273,-1.266 2.022,-1.246c0.15,0.006 0.383,0.054 0.698,0.142l-0.18,1.624Z" style="fill:#fff;fill-rule:nonzero;"/><path d="M211.615,177.003l-7.469,0l0.209,-1.332l4.928,-5.57c0.636,-0.73 1.098,-1.407 1.387,-2.031c0.29,-0.622 0.41,-1.28 0.36,-1.972c-0.044,-0.485 -0.19,-0.871 -0.435,-1.158c-0.246,-0.286 -0.57,-0.438 -0.973,-0.457c-0.686,-0.02 -1.248,0.223 -1.685,0.727c-0.437,0.504 -0.713,1.199 -0.826,2.087l-1.605,0.009c0.126,-1.271 0.571,-2.303 1.335,-3.093c0.766,-0.789 1.721,-1.172 2.866,-1.147c0.989,0.026 1.758,0.375 2.309,1.048c0.55,0.674 0.779,1.53 0.684,2.569c-0.113,1.208 -0.742,2.511 -1.888,3.909l-0.67,0.793l-3.767,4.192l5.467,0l-0.227,1.426Z" style="fill:#fff;fill-rule:nonzero;"/><path d="M217.139,177.201c-1.738,-0.044 -2.672,-1.215 -2.805,-3.513c-0.044,-0.805 0.013,-1.743 0.17,-2.813l0.358,-2.379c0.334,-1.952 0.863,-3.351 1.587,-4.198c0.723,-0.845 1.655,-1.257 2.795,-1.232c1.738,0.045 2.672,1.187 2.804,3.428c0.037,0.667 -0.003,1.517 -0.123,2.55l-0.434,2.851c-0.334,1.882 -0.865,3.246 -1.596,4.093c-0.73,0.846 -1.649,1.251 -2.756,1.213Zm3.361,-10.055c0.037,-0.908 -0.06,-1.568 -0.293,-1.984c-0.233,-0.415 -0.592,-0.638 -1.076,-0.67c-1.341,-0.075 -2.203,1.108 -2.588,3.55l-0.519,3.513c-0.081,0.598 -0.129,1.085 -0.142,1.463c-0.068,1.801 0.384,2.72 1.36,2.757c1.323,0.07 2.179,-1.102 2.568,-3.512l0.482,-3.191c0.12,-0.806 0.188,-1.448 0.208,-1.926Z" style="fill:#fff;fill-rule:nonzero;"/><path d="M226.192,169.28l0.993,0.018c0.811,-0.012 1.449,-0.319 1.912,-0.921c0.463,-0.601 0.65,-1.386 0.561,-2.355c-0.044,-0.485 -0.191,-0.861 -0.444,-1.128c-0.251,-0.268 -0.588,-0.405 -1.009,-0.411c-0.554,-0.013 -1.024,0.184 -1.408,0.59c-0.384,0.406 -0.635,0.999 -0.755,1.779l-1.605,0.01c0.107,-1.113 0.518,-2.03 1.232,-2.748c0.714,-0.717 1.595,-1.07 2.639,-1.057c0.668,0.013 1.238,0.184 1.709,0.514c0.472,0.332 0.819,0.785 1.038,1.365c0.221,0.579 0.299,1.228 0.237,1.944c-0.063,0.681 -0.291,1.29 -0.684,1.828c-0.395,0.538 -0.903,0.967 -1.525,1.288c0.515,0.266 0.891,0.667 1.123,1.204c0.233,0.539 0.318,1.173 0.255,1.903c-0.114,1.227 -0.543,2.223 -1.289,2.984c-0.745,0.761 -1.67,1.13 -2.771,1.104c-1.001,-0.025 -1.783,-0.389 -2.346,-1.095c-0.563,-0.705 -0.817,-1.611 -0.76,-2.72l1.633,0c-0.05,0.751 0.064,1.332 0.344,1.747c0.281,0.417 0.688,0.631 1.223,0.643c0.649,0.018 1.184,-0.211 1.605,-0.689c0.422,-0.479 0.671,-1.127 0.747,-1.946c0.075,-0.742 -0.04,-1.325 -0.346,-1.746c-0.305,-0.422 -0.765,-0.645 -1.383,-0.671l-1.161,-0.009l0.235,-1.425Z" style="fill:#fff;fill-rule:nonzero;"/><path d="M235.852,177.201c-1.737,-0.044 -2.672,-1.215 -2.804,-3.513c-0.044,-0.805 0.013,-1.743 0.17,-2.813l0.359,-2.379c0.334,-1.952 0.862,-3.351 1.585,-4.198c0.725,-0.845 1.657,-1.257 2.795,-1.232c1.738,0.045 2.672,1.187 2.805,3.428c0.038,0.667 -0.004,1.517 -0.122,2.55l-0.435,2.851c-0.334,1.882 -0.866,3.246 -1.596,4.093c-0.731,0.846 -1.648,1.251 -2.757,1.213Zm3.362,-10.055c0.037,-0.908 -0.061,-1.568 -0.293,-1.984c-0.233,-0.415 -0.591,-0.638 -1.076,-0.67c-1.341,-0.075 -2.203,1.108 -2.587,3.55l-0.52,3.513c-0.082,0.598 -0.129,1.085 -0.142,1.463c-0.069,1.801 0.385,2.72 1.36,2.757c1.322,0.07 2.178,-1.102 2.568,-3.512l0.481,-3.191c0.12,-0.806 0.19,-1.448 0.209,-1.926Z" style="fill:#fff;fill-rule:nonzero;"/><path d="M250.346,164.313l-0.435,2.473l1.501,0l-0.236,1.351l-1.492,0l-1.076,6.354l-0.018,0.378c-0.026,0.535 0.166,0.802 0.575,0.802c0.151,0.006 0.378,-0.024 0.68,-0.094l-0.141,1.426c-0.354,0.126 -0.709,0.183 -1.068,0.17c-0.572,0 -1.004,-0.236 -1.293,-0.708c-0.29,-0.473 -0.397,-1.139 -0.321,-2.002l1.038,-6.326l-1.52,0l0.246,-1.351l1.501,0l0.434,-2.473l1.625,0Z" style="fill:#fff;fill-rule:nonzero;"/><path d="M256.879,177.003c-0.037,-0.188 -0.053,-0.375 -0.046,-0.557l0.037,-0.557c-0.725,0.874 -1.504,1.312 -2.342,1.312c-0.818,0 -1.456,-0.265 -1.912,-0.798c-0.457,-0.532 -0.659,-1.235 -0.609,-2.11c0.07,-1.057 0.506,-1.904 1.308,-2.54c0.803,-0.635 1.856,-0.954 3.158,-0.954l1.133,0l0.161,-1.085c0.114,-1.127 -0.312,-1.69 -1.275,-1.69c-0.497,0 -0.911,0.146 -1.241,0.438c-0.332,0.293 -0.54,0.676 -0.628,1.148l-1.615,0.009c0.082,-0.862 0.474,-1.586 1.175,-2.171c0.703,-0.586 1.528,-0.872 2.479,-0.86c0.92,0.013 1.626,0.295 2.12,0.846c0.493,0.55 0.693,1.32 0.599,2.308l-0.83,5.032c-0.057,0.359 -0.079,0.702 -0.067,1.03l0.057,1.038l-0.018,0.161l-1.644,0Zm-2.011,-1.313c0.819,0 1.524,-0.399 2.115,-1.199l0.425,-2.445l-0.746,-0.01c-0.642,0 -1.211,0.118 -1.709,0.354c-0.498,0.236 -0.848,0.564 -1.053,0.983c-0.204,0.419 -0.275,0.872 -0.212,1.363c0.082,0.636 0.475,0.954 1.18,0.954Z" style="fill:#fff;fill-rule:nonzero;"/><path d="M266.388,168.345c-0.271,-0.057 -0.513,-0.085 -0.727,-0.085c-0.826,0 -1.505,0.474 -2.04,1.426l-1.266,7.317l-1.633,0l1.775,-10.217l1.577,-0.009l-0.227,1.048c0.598,-0.849 1.272,-1.266 2.021,-1.246c0.151,0.006 0.384,0.054 0.699,0.142l-0.179,1.624Z" style="fill:#fff;fill-rule:nonzero;"/><path d="M270.977,166.598c1,0.025 1.721,0.472 2.162,1.341l0.34,-1.153l1.481,0l-1.746,10.302c-0.107,0.806 -0.345,1.513 -0.712,2.124c-0.369,0.61 -0.846,1.073 -1.431,1.389c-0.585,0.314 -1.253,0.459 -2.002,0.433c-0.535,-0.012 -1.073,-0.143 -1.614,-0.392c-0.541,-0.248 -0.98,-0.565 -1.312,-0.949l0.773,-1.123c0.611,0.667 1.306,1.014 2.087,1.038c0.686,0.026 1.251,-0.166 1.695,-0.575c0.444,-0.41 0.738,-1.026 0.882,-1.851l0.246,-1.19c-0.674,0.825 -1.46,1.225 -2.36,1.199c-0.875,-0.012 -1.54,-0.352 -1.997,-1.02c-0.456,-0.666 -0.678,-1.583 -0.666,-2.747c0,-0.498 0.06,-1.177 0.18,-2.039c0.219,-1.579 0.665,-2.781 1.336,-3.602c0.67,-0.821 1.556,-1.217 2.658,-1.185Zm-2.55,7.226c0.032,1.25 0.548,1.886 1.548,1.904c0.756,0.019 1.432,-0.405 2.031,-1.273l0.878,-5.12c-0.328,-0.806 -0.85,-1.223 -1.568,-1.254c-1.511,-0.057 -2.413,1.055 -2.71,3.337c-0.144,1.101 -0.203,1.902 -0.179,2.406Z" style="fill:#fff;fill-rule:nonzero;"/><path d="M279.493,177.191c-1.146,-0.012 -2.002,-0.424 -2.568,-1.236c-0.567,-0.812 -0.775,-1.92 -0.623,-3.324l0.123,-1.01c0.194,-1.586 0.678,-2.827 1.449,-3.725c0.771,-0.897 1.752,-1.33 2.94,-1.298c0.97,0.025 1.699,0.357 2.187,0.995c0.487,0.64 0.719,1.538 0.693,2.696l-0.085,1.133l-0.14,0.973l-5.477,-0.01c-0.082,0.567 -0.12,1.011 -0.113,1.332c0.012,0.635 0.169,1.134 0.472,1.496c0.301,0.363 0.733,0.547 1.293,0.553c0.403,0.012 0.802,-0.068 1.195,-0.241c0.393,-0.174 0.807,-0.477 1.241,-0.911l0.765,1.067c-0.403,0.529 -0.9,0.916 -1.492,1.161c-0.592,0.246 -1.212,0.362 -1.86,0.349Zm1.218,-9.167c-1.114,-0.05 -1.895,0.623 -2.341,2.02l-0.255,0.917l3.918,0.009l0.047,-0.247c0.038,-0.288 0.057,-0.591 0.057,-0.906c-0.026,-1.145 -0.5,-1.743 -1.426,-1.793Z" style="fill:#fff;fill-rule:nonzero;"/><path d="M288.897,164.313l-0.434,2.473l1.502,0l-0.236,1.351l-1.493,0l-1.077,6.354l-0.018,0.378c-0.025,0.535 0.167,0.802 0.575,0.802c0.152,0.006 0.378,-0.024 0.681,-0.094l-0.142,1.426c-0.352,0.126 -0.708,0.183 -1.067,0.17c-0.573,0 -1.003,-0.236 -1.293,-0.708c-0.29,-0.473 -0.397,-1.139 -0.321,-2.002l1.039,-6.326l-1.521,0l0.246,-1.351l1.5,0l0.435,-2.473l1.624,0Z" style="fill:#fff;fill-rule:nonzero;"/><path d="M295.516,174.312c0.082,-0.598 -0.252,-1.095 -1.001,-1.493l-1.266,-0.66c-0.653,-0.366 -1.112,-0.752 -1.373,-1.161c-0.261,-0.41 -0.376,-0.884 -0.345,-1.426c0.051,-0.862 0.403,-1.576 1.058,-2.144c0.655,-0.566 1.454,-0.843 2.398,-0.83c0.913,0.025 1.627,0.325 2.144,0.901c0.515,0.576 0.755,1.311 0.717,2.205l-1.614,0c0.012,-0.51 -0.101,-0.91 -0.341,-1.203c-0.238,-0.294 -0.572,-0.446 -1,-0.459c-0.485,0 -0.884,0.138 -1.199,0.411c-0.315,0.274 -0.504,0.628 -0.567,1.062c-0.075,0.51 0.174,0.929 0.746,1.256l1.596,0.812c1.177,0.655 1.734,1.524 1.671,2.606c-0.063,0.925 -0.435,1.664 -1.114,2.214c-0.681,0.551 -1.508,0.814 -2.483,0.788c-0.938,-0.012 -1.7,-0.318 -2.285,-0.92c-0.586,-0.601 -0.859,-1.377 -0.822,-2.327l1.643,0.009c-0.012,0.591 0.117,1.04 0.388,1.345c0.27,0.306 0.653,0.458 1.151,0.458c0.522,0 0.955,-0.131 1.298,-0.396c0.343,-0.264 0.543,-0.613 0.6,-1.048Z" style="fill:#fff;fill-rule:nonzero;"/><path d="M303.891,171.441c0.208,-1.467 0.709,-2.647 1.506,-3.545c0.796,-0.897 1.802,-1.33 3.016,-1.298c0.756,0.018 1.385,0.237 1.889,0.656c0.504,0.418 0.864,0.996 1.081,1.733c0.217,0.736 0.275,1.548 0.174,2.435l-0.113,0.963c-0.208,1.461 -0.712,2.635 -1.511,3.522c-0.799,0.888 -1.803,1.316 -3.011,1.284c-0.756,-0.018 -1.385,-0.236 -1.889,-0.651c-0.504,-0.415 -0.864,-0.991 -1.081,-1.728c-0.217,-0.737 -0.275,-1.545 -0.174,-2.427l0.113,-0.944Zm1.463,1.634c-0.019,0.843 0.112,1.498 0.392,1.964c0.28,0.466 0.704,0.711 1.27,0.736c0.731,0.031 1.334,-0.228 1.812,-0.778c0.48,-0.552 0.801,-1.378 0.965,-2.479l0.14,-1.105l0.048,-0.679c0.019,-0.85 -0.115,-1.509 -0.401,-1.974c-0.286,-0.465 -0.71,-0.712 -1.27,-0.736c-0.744,-0.032 -1.361,0.275 -1.856,0.92c-0.494,0.645 -0.814,1.541 -0.958,2.687l-0.113,0.935l-0.029,0.509Z" style="fill:#fff;fill-rule:nonzero;"/><path d="M316.033,166.777l-0.218,1.114c0.744,-0.875 1.587,-1.306 2.531,-1.293c0.648,0.007 1.163,0.226 1.544,0.66c0.381,0.435 0.596,1.026 0.646,1.775c0.026,0.435 0.017,0.86 -0.027,1.275l-1.115,6.695l-1.624,0l1.124,-6.723l0.037,-0.745c0,-0.964 -0.395,-1.454 -1.188,-1.474c-0.649,-0.019 -1.253,0.35 -1.814,1.105l-0.282,0.406l-1.286,7.431l-1.633,0l1.775,-10.217l1.53,-0.009Z" style="fill:#fff;fill-rule:nonzero;"/><path d="M329.979,175.784c0.535,0.02 0.985,-0.148 1.35,-0.5c0.365,-0.352 0.62,-0.849 0.764,-1.491l1.54,-0.011c-0.145,1.009 -0.57,1.836 -1.275,2.485c-0.704,0.648 -1.529,0.959 -2.474,0.934c-0.9,-0.019 -1.617,-0.29 -2.152,-0.812c-0.536,-0.522 -0.857,-1.256 -0.964,-2.2c-0.062,-0.566 -0.059,-1.136 0.01,-1.709l0.132,-1.03c0.207,-1.592 0.695,-2.806 1.459,-3.644c0.764,-0.837 1.761,-1.24 2.988,-1.208c0.944,0.025 1.676,0.371 2.196,1.038c0.519,0.668 0.756,1.558 0.713,2.672l-1.54,-0.009c0.038,-1.48 -0.45,-2.238 -1.463,-2.275c-1.48,-0.057 -2.373,0.998 -2.681,3.162c-0.196,1.341 -0.275,2.254 -0.236,2.738c0.062,1.222 0.607,1.842 1.633,1.86Z" style="fill:#fff;fill-rule:nonzero;"/><path d="M336.814,177.003l-1.633,0l2.521,-14.503l1.634,0l-2.522,14.503Z" style="fill:#fff;fill-rule:nonzero;"/><path d="M341.205,177.003l-1.633,0l1.775,-10.217l1.633,0l-1.775,10.217Zm0.519,-12.917c0.013,-0.27 0.101,-0.507 0.265,-0.708c0.163,-0.201 0.386,-0.308 0.67,-0.321c0.271,-0.013 0.494,0.079 0.67,0.274c0.177,0.195 0.258,0.438 0.247,0.726c-0.013,0.277 -0.104,0.516 -0.27,0.713c-0.167,0.199 -0.392,0.302 -0.675,0.308c-0.277,0.012 -0.5,-0.08 -0.671,-0.274c-0.17,-0.195 -0.248,-0.435 -0.236,-0.718Z" style="fill:#fff;fill-rule:nonzero;"/><path d="M347.135,166.777l-0.199,0.954c0.725,-0.781 1.562,-1.159 2.512,-1.133c0.497,0.012 0.933,0.142 1.308,0.387c0.374,0.245 0.639,0.607 0.798,1.085c0.811,-1 1.74,-1.494 2.785,-1.482c0.685,0.019 1.227,0.236 1.624,0.652c0.397,0.415 0.626,0.994 0.69,1.737c0.037,0.434 0.033,0.872 -0.011,1.312l-1.123,6.714l-1.615,0l1.115,-6.732l0.027,-0.793c-0.011,-0.447 -0.13,-0.795 -0.353,-1.044c-0.224,-0.249 -0.543,-0.373 -0.959,-0.373c-0.496,-0.013 -0.944,0.189 -1.341,0.605c-0.395,0.415 -0.638,0.909 -0.727,1.482l0,0.047l-1.16,6.808l-1.644,0l1.124,-6.723c0.025,-0.251 0.031,-0.509 0.019,-0.774c-0.044,-0.925 -0.472,-1.403 -1.284,-1.436c-0.774,-0.011 -1.42,0.41 -1.935,1.266l-1.323,7.667l-1.623,0l1.775,-10.217l1.52,-0.009Z" style="fill:#fff;fill-rule:nonzero;"/><path d="M363.28,177.003c-0.037,-0.188 -0.053,-0.375 -0.046,-0.557l0.037,-0.557c-0.725,0.874 -1.504,1.312 -2.342,1.312c-0.818,0 -1.456,-0.265 -1.912,-0.798c-0.457,-0.532 -0.659,-1.235 -0.609,-2.11c0.07,-1.057 0.506,-1.904 1.308,-2.54c0.803,-0.635 1.856,-0.954 3.158,-0.954l1.133,0l0.161,-1.085c0.114,-1.127 -0.312,-1.69 -1.275,-1.69c-0.497,0 -0.911,0.146 -1.241,0.438c-0.331,0.293 -0.54,0.676 -0.628,1.148l-1.615,0.009c0.082,-0.862 0.474,-1.586 1.175,-2.171c0.703,-0.586 1.528,-0.872 2.479,-0.86c0.92,0.013 1.626,0.295 2.12,0.846c0.493,0.55 0.693,1.32 0.599,2.308l-0.83,5.032c-0.057,0.359 -0.079,0.702 -0.067,1.03l0.057,1.038l-0.018,0.161l-1.644,0Zm-2.011,-1.313c0.819,0 1.524,-0.399 2.115,-1.199l0.425,-2.445l-0.746,-0.01c-0.642,0 -1.211,0.118 -1.709,0.354c-0.498,0.236 -0.848,0.564 -1.053,0.983c-0.204,0.419 -0.275,0.872 -0.212,1.363c0.082,0.636 0.475,0.954 1.18,0.954Z" style="fill:#fff;fill-rule:nonzero;"/><path d="M371.466,164.313l-0.434,2.473l1.501,0l-0.236,1.351l-1.491,0l-1.076,6.354l-0.02,0.378c-0.026,0.535 0.166,0.802 0.576,0.802c0.151,0.006 0.378,-0.024 0.68,-0.094l-0.142,1.426c-0.352,0.126 -0.708,0.183 -1.066,0.17c-0.574,0 -1.004,-0.236 -1.294,-0.708c-0.289,-0.473 -0.396,-1.139 -0.321,-2.002l1.039,-6.326l-1.52,0l0.245,-1.351l1.502,0l0.434,-2.473l1.623,0Z" style="fill:#fff;fill-rule:nonzero;"/><path d="M376.575,177.191c-1.146,-0.012 -2.002,-0.424 -2.568,-1.236c-0.567,-0.812 -0.775,-1.92 -0.624,-3.324l0.122,-1.01c0.196,-1.586 0.678,-2.827 1.451,-3.725c0.771,-0.897 1.75,-1.33 2.94,-1.298c0.97,0.025 1.698,0.357 2.187,0.995c0.487,0.64 0.719,1.538 0.693,2.696l-0.085,1.133l-0.142,0.973l-5.476,-0.01c-0.081,0.567 -0.12,1.011 -0.113,1.332c0.012,0.635 0.17,1.134 0.471,1.496c0.303,0.363 0.734,0.547 1.295,0.553c0.402,0.012 0.8,-0.068 1.193,-0.241c0.395,-0.174 0.809,-0.477 1.243,-0.911l0.765,1.067c-0.404,0.529 -0.9,0.916 -1.492,1.161c-0.592,0.246 -1.212,0.362 -1.86,0.349Zm1.218,-9.167c-1.115,-0.05 -1.895,0.623 -2.342,2.02l-0.256,0.917l3.919,0.009l0.048,-0.247c0.037,-0.288 0.056,-0.591 0.056,-0.906c-0.025,-1.145 -0.501,-1.743 -1.425,-1.793Z" style="fill:#fff;fill-rule:nonzero;"/><path d="M391.266,177.003c-0.038,-0.188 -0.053,-0.375 -0.047,-0.557l0.038,-0.557c-0.725,0.874 -1.505,1.312 -2.343,1.312c-0.817,0 -1.455,-0.265 -1.911,-0.798c-0.457,-0.532 -0.659,-1.235 -0.609,-2.11c0.07,-1.057 0.505,-1.904 1.307,-2.54c0.803,-0.635 1.857,-0.954 3.159,-0.954l1.133,0l0.161,-1.085c0.113,-1.127 -0.312,-1.69 -1.275,-1.69c-0.498,0 -0.911,0.146 -1.241,0.438c-0.332,0.293 -0.541,0.676 -0.628,1.148l-1.616,0.009c0.083,-0.862 0.475,-1.586 1.176,-2.171c0.703,-0.586 1.528,-0.872 2.479,-0.86c0.919,0.013 1.626,0.295 2.12,0.846c0.493,0.55 0.693,1.32 0.599,2.308l-0.83,5.032c-0.057,0.359 -0.079,0.702 -0.067,1.03l0.056,1.038l-0.018,0.161l-1.643,0Zm-2.011,-1.313c0.818,0 1.523,-0.399 2.115,-1.199l0.424,-2.445l-0.745,-0.01c-0.642,0 -1.212,0.118 -1.709,0.354c-0.498,0.236 -0.848,0.564 -1.053,0.983c-0.204,0.419 -0.275,0.872 -0.212,1.363c0.081,0.636 0.475,0.954 1.18,0.954Z" style="fill:#fff;fill-rule:nonzero;"/><path d="M398.414,166.777l-0.218,1.114c0.743,-0.875 1.587,-1.306 2.531,-1.293c0.648,0.007 1.162,0.226 1.544,0.66c0.38,0.435 0.596,1.026 0.646,1.775c0.026,0.435 0.015,0.86 -0.028,1.275l-1.114,6.695l-1.625,0l1.125,-6.723l0.037,-0.745c0,-0.964 -0.396,-1.454 -1.19,-1.474c-0.648,-0.019 -1.252,0.35 -1.812,1.105l-0.284,0.406l-1.284,7.431l-1.633,0l1.775,-10.217l1.53,-0.009Z" style="fill:#fff;fill-rule:nonzero;"/><path d="M408.913,166.607c0.938,0.026 1.637,0.422 2.096,1.19l0.982,-5.297l1.633,0l-2.511,14.503l-1.482,0l0.179,-1.096c-0.673,0.882 -1.483,1.31 -2.426,1.284c-0.851,-0.012 -1.507,-0.343 -1.969,-0.991c-0.463,-0.648 -0.695,-1.577 -0.695,-2.785c0,-0.561 0.073,-1.303 0.218,-2.229c0.145,-0.924 0.368,-1.708 0.671,-2.35c0.716,-1.53 1.819,-2.273 3.304,-2.229Zm-2.568,7.214c0.031,1.252 0.55,1.889 1.557,1.907c0.36,0.013 0.703,-0.078 1.03,-0.27c0.327,-0.19 0.657,-0.52 0.991,-0.986l0.887,-5.174c-0.314,-0.787 -0.84,-1.195 -1.576,-1.228c-1.492,-0.074 -2.392,1.02 -2.701,3.286c-0.151,1.108 -0.214,1.93 -0.188,2.465Z" style="fill:#fff;fill-rule:nonzero;"/><path d="M421.886,177.191c-1.146,-0.012 -2.002,-0.424 -2.569,-1.236c-0.566,-0.812 -0.773,-1.92 -0.622,-3.324l0.122,-1.01c0.196,-1.586 0.678,-2.827 1.45,-3.725c0.771,-0.897 1.751,-1.33 2.941,-1.298c0.969,0.025 1.698,0.357 2.186,0.995c0.488,0.64 0.718,1.538 0.694,2.696l-0.085,1.133l-0.142,0.973l-5.476,-0.01c-0.082,0.567 -0.12,1.011 -0.114,1.332c0.013,0.635 0.17,1.134 0.472,1.496c0.303,0.363 0.734,0.547 1.294,0.553c0.403,0.012 0.801,-0.068 1.194,-0.241c0.395,-0.174 0.808,-0.477 1.241,-0.911l0.766,1.067c-0.403,0.529 -0.901,0.916 -1.491,1.161c-0.592,0.246 -1.212,0.362 -1.861,0.349Zm1.217,-9.167c-1.113,-0.05 -1.893,0.623 -2.341,2.02l-0.255,0.917l3.919,0.009l0.046,-0.247c0.039,-0.288 0.057,-0.591 0.057,-0.906c-0.024,-1.145 -0.5,-1.743 -1.426,-1.793Z" style="fill:#fff;fill-rule:nonzero;"/><path d="M430.252,166.777l-0.218,1.114c0.744,-0.875 1.587,-1.306 2.53,-1.293c0.649,0.007 1.163,0.226 1.545,0.66c0.38,0.435 0.595,1.026 0.647,1.775c0.024,0.435 0.015,0.86 -0.028,1.275l-1.116,6.695l-1.623,0l1.123,-6.723l0.038,-0.745c0,-0.964 -0.396,-1.454 -1.189,-1.474c-0.648,-0.019 -1.253,0.35 -1.814,1.105l-0.282,0.406l-1.284,7.431l-1.635,0l1.775,-10.217l1.531,-0.009Z" style="fill:#fff;fill-rule:nonzero;"/><path d="M439.929,177.191c-1.145,-0.012 -2.002,-0.424 -2.568,-1.236c-0.566,-0.812 -0.775,-1.92 -0.622,-3.324l0.122,-1.01c0.195,-1.586 0.678,-2.827 1.449,-3.725c0.771,-0.897 1.752,-1.33 2.942,-1.298c0.969,0.025 1.698,0.357 2.185,0.995c0.488,0.64 0.719,1.538 0.693,2.696l-0.083,1.133l-0.142,0.973l-5.476,-0.01c-0.083,0.567 -0.12,1.011 -0.114,1.332c0.013,0.635 0.17,1.134 0.472,1.496c0.302,0.363 0.734,0.547 1.293,0.553c0.403,0.012 0.802,-0.068 1.195,-0.241c0.393,-0.174 0.807,-0.477 1.241,-0.911l0.765,1.067c-0.402,0.529 -0.9,0.916 -1.492,1.161c-0.591,0.246 -1.211,0.362 -1.86,0.349Zm1.218,-9.167c-1.113,-0.05 -1.895,0.623 -2.341,2.02l-0.255,0.917l3.918,0.009l0.047,-0.247c0.038,-0.288 0.057,-0.591 0.057,-0.906c-0.026,-1.145 -0.5,-1.743 -1.426,-1.793Z" style="fill:#fff;fill-rule:nonzero;"/><path d="M450.656,168.345c-0.271,-0.057 -0.513,-0.085 -0.727,-0.085c-0.825,0 -1.504,0.474 -2.039,1.426l-1.266,7.317l-1.634,0l1.775,-10.217l1.577,-0.009l-0.227,1.048c0.598,-0.849 1.273,-1.266 2.022,-1.246c0.15,0.006 0.384,0.054 0.698,0.142l-0.179,1.624Z" style="fill:#fff;fill-rule:nonzero;"/><path d="M455.244,166.598c1,0.025 1.721,0.472 2.162,1.341l0.34,-1.153l1.481,0l-1.746,10.302c-0.107,0.806 -0.345,1.513 -0.712,2.124c-0.369,0.61 -0.846,1.073 -1.431,1.389c-0.585,0.314 -1.253,0.459 -2.002,0.433c-0.535,-0.012 -1.072,-0.143 -1.614,-0.392c-0.541,-0.248 -0.98,-0.565 -1.312,-0.949l0.773,-1.123c0.611,0.667 1.306,1.014 2.087,1.038c0.686,0.026 1.251,-0.166 1.696,-0.575c0.443,-0.41 0.737,-1.026 0.881,-1.851l0.247,-1.19c-0.675,0.825 -1.461,1.225 -2.361,1.199c-0.875,-0.012 -1.54,-0.352 -1.997,-1.02c-0.456,-0.666 -0.678,-1.583 -0.666,-2.747c0,-0.498 0.06,-1.177 0.18,-2.039c0.219,-1.579 0.666,-2.781 1.336,-3.602c0.67,-0.821 1.556,-1.217 2.658,-1.185Zm-2.55,7.226c0.032,1.25 0.548,1.886 1.548,1.904c0.756,0.019 1.433,-0.405 2.031,-1.273l0.878,-5.12c-0.328,-0.806 -0.85,-1.223 -1.568,-1.254c-1.511,-0.057 -2.413,1.055 -2.71,3.337c-0.144,1.101 -0.203,1.902 -0.179,2.406Z" style="fill:#fff;fill-rule:nonzero;"/><path d="M463.118,174.199l3.097,-7.413l1.785,0l-5.288,11.802c-0.358,0.858 -0.785,1.503 -1.279,1.942c-0.495,0.437 -1.031,0.646 -1.61,0.628c-0.195,-0.007 -0.504,-0.064 -0.926,-0.171l0.162,-1.416l0.349,0.056c0.824,0.038 1.466,-0.384 1.926,-1.264l0.688,-1.548l-1.151,-10.029l1.719,0l0.528,7.413Z" style="fill:#fff;fill-rule:nonzero;"/></g></g></svg>