<?xml version="1.0" encoding="UTF-8" standalone="no"?><!DOCTYPE svg PUBLIC "-//W3C//DTD SVG 1.1//EN" "http://www.w3.org/Graphics/SVG/1.1/DTD/svg11.dtd"><svg width="100%" height="100%" viewBox="0 0 759 200" version="1.1" xmlns="http://www.w3.org/2000/svg" xmlns:xlink="http://www.w3.org/1999/xlink" xml:space="preserve" xmlns:serif="http://www.serif.com/" style="fill-rule:evenodd;clip-rule:evenodd;stroke-miterlimit:10;"><rect id="Artboard1" x="0" y="0" width="759" height="199.5" style="fill:none;"/><g id="Layer_1-2"><g><path d="M100.137,78.766c-0.165,3.729 -1.213,6.552 -3.145,8.468c-1.931,1.917 -4.657,2.875 -8.175,2.875c-3.699,0 -6.533,-1.216 -8.502,-3.65c-1.969,-2.433 -2.954,-5.903 -2.954,-10.41l0,-5.503c0,-4.492 1.019,-7.955 3.055,-10.388c2.037,-2.434 4.867,-3.65 8.49,-3.65c3.564,0 6.271,0.995 8.12,2.987c1.849,1.991 2.901,4.852 3.156,8.58l-6.626,0c-0.06,-2.306 -0.416,-3.897 -1.067,-4.773c-0.651,-0.876 -1.846,-1.314 -3.583,-1.314c-1.767,0 -3.017,0.618 -3.751,1.853c-0.733,1.236 -1.123,3.268 -1.168,6.098l0,6.177c0,3.249 0.364,5.481 1.09,6.693c0.726,1.213 1.973,1.82 3.74,1.82c1.737,0 2.934,-0.423 3.593,-1.269c0.659,-0.846 1.034,-2.377 1.123,-4.594l6.604,0Z" style="fill:#fff;fill-rule:nonzero;"/><path d="M110.806,84.18l11.59,0l0,5.48l-18.194,0l0,-32.703l6.604,0l0,27.223Z" style="fill:#fff;fill-rule:nonzero;"/><rect x="126.506" y="56.957" width="6.604" height="32.703" style="fill:#fff;fill-rule:nonzero;"/><path d="M147.283,56.957l6.177,23.651l6.154,-23.651l8.625,0l0,32.703l-6.626,0l0,-8.85l0.606,-13.633l-6.536,22.483l-4.492,0l-6.536,-22.483l0.606,13.633l0,8.85l-6.603,0l0,-32.703l8.625,0Z" style="fill:#fff;fill-rule:nonzero;"/><path d="M189.558,82.967l-9.007,0l-1.752,6.693l-6.985,0l10.22,-32.703l6.042,0l10.287,32.703l-7.053,0l-1.752,-6.693Zm-7.569,-5.503l6.109,0l-3.054,-11.658l-3.055,11.658Z" style="fill:#fff;fill-rule:nonzero;"/><path d="M219.899,62.46l-8.086,0l0,27.2l-6.626,0l0,-27.2l-7.951,0l0,-5.503l22.663,0l0,5.503Z" style="fill:#fff;fill-rule:nonzero;"/><path d="M240.585,75.51l-10.287,0l0,8.67l12.174,0l0,5.48l-18.778,0l0,-32.703l18.733,0l0,5.503l-12.129,0l0,7.726l10.287,0l0,5.324Z" style="fill:#fff;fill-rule:nonzero;"/><path d="M272.48,82.967l-9.007,0l-1.752,6.693l-6.985,0l10.219,-32.703l6.042,0l10.287,32.703l-7.052,0l-1.752,-6.693Zm-7.57,-5.503l6.11,0l-3.055,-11.658l-3.055,11.658Z" style="fill:#fff;fill-rule:nonzero;"/><path d="M307.204,89.66l-6.603,0l-9.658,-21.45l0,21.45l-6.604,0l0,-32.703l6.604,0l9.68,21.473l0,-21.473l6.581,0l0,32.703Z" style="fill:#fff;fill-rule:nonzero;"/><path d="M312.505,89.66l0,-32.703l8.648,0c3.818,0 6.861,1.213 9.13,3.639c2.268,2.425 3.425,5.75 3.47,9.972l0,5.301c0,4.298 -1.134,7.67 -3.403,10.119c-2.268,2.448 -5.394,3.672 -9.377,3.672l-8.468,0Zm6.604,-27.2l0,21.72l1.976,0c2.201,0 3.751,-0.581 4.65,-1.741c0.898,-1.161 1.37,-3.163 1.415,-6.008l0,-5.683c0,-3.055 -0.427,-5.185 -1.281,-6.39c-0.853,-1.206 -2.306,-1.838 -4.357,-1.898l-2.403,0Z" style="fill:#fff;fill-rule:nonzero;"/><path d="M365.985,75.51l-10.288,0l0,8.67l12.174,0l0,5.48l-18.777,0l0,-32.703l18.732,0l0,5.503l-12.129,0l0,7.726l10.288,0l0,5.324Z" style="fill:#fff;fill-rule:nonzero;"/><path d="M394.532,89.66l-6.603,0l-9.658,-21.45l0,21.45l-6.604,0l0,-32.703l6.604,0l9.68,21.473l0,-21.473l6.581,0l0,32.703Z" style="fill:#fff;fill-rule:nonzero;"/><path d="M416.724,75.51l-10.287,0l0,8.67l12.174,0l0,5.48l-18.778,0l0,-32.703l18.733,0l0,5.503l-12.129,0l0,7.726l10.287,0l0,5.324Z" style="fill:#fff;fill-rule:nonzero;"/><path d="M432.312,77.711l-3.28,0l0,11.949l-6.603,0l0,-32.703l10.534,0c3.309,0 5.866,0.857 7.67,2.572c1.805,1.714 2.707,4.151 2.707,7.311c0,4.342 -1.58,7.382 -4.739,9.119l5.727,13.387l0,0.314l-7.097,0l-4.919,-11.949Zm-3.28,-5.503l3.751,0c1.318,0 2.306,-0.438 2.965,-1.314c0.659,-0.876 0.988,-2.048 0.988,-3.515c0,-3.28 -1.28,-4.919 -3.84,-4.919l-3.864,0l0,9.748Z" style="fill:#fff;fill-rule:nonzero;"/><path d="M470.113,85.954c-1.272,1.378 -2.833,2.414 -4.683,3.111c-1.849,0.696 -3.874,1.044 -6.075,1.044c-3.759,0 -6.679,-1.164 -8.76,-3.492c-2.081,-2.329 -3.152,-5.717 -3.212,-10.164l0,-5.885c0,-4.507 0.985,-7.977 2.954,-10.41c1.969,-2.434 4.84,-3.65 8.613,-3.65c3.549,0 6.226,0.876 8.03,2.628c1.804,1.752 2.849,4.499 3.133,8.243l-6.423,0c-0.18,-2.082 -0.614,-3.5 -1.303,-4.257c-0.689,-0.756 -1.767,-1.134 -3.234,-1.134c-1.782,0 -3.078,0.651 -3.886,1.954c-0.809,1.303 -1.228,3.377 -1.258,6.222l0,5.93c0,2.979 0.445,5.147 1.336,6.502c0.891,1.355 2.355,2.033 4.391,2.033c1.303,0 2.359,-0.262 3.167,-0.786l0.584,-0.405l0,-5.997l-4.626,0l0,-4.986l11.252,0l0,13.499Z" style="fill:#fff;fill-rule:nonzero;"/><path d="M484.646,71.646l4.919,-14.689l7.187,0l-8.76,20.844l0,11.859l-6.693,0l0,-11.859l-8.782,-20.844l7.187,0l4.942,14.689Z" style="fill:#fff;fill-rule:nonzero;"/><rect x="510.633" y="56.957" width="6.604" height="32.703" style="fill:#fff;fill-rule:nonzero;"/><path d="M545.65,89.66l-6.604,0l-9.658,-21.45l0,21.45l-6.604,0l0,-32.703l6.604,0l9.681,21.473l0,-21.473l6.581,0l0,32.703Z" style="fill:#fff;fill-rule:nonzero;"/><path d="M581.389,62.46l-8.086,0l0,27.2l-6.626,0l0,-27.2l-7.951,0l0,-5.503l22.663,0l0,5.503Z" style="fill:#fff;fill-rule:nonzero;"/><path d="M608.117,89.66l-6.581,0l0,-13.993l-9.748,0l0,13.993l-6.604,0l0,-32.703l6.604,0l0,13.229l9.748,0l0,-13.229l6.581,0l0,32.703Z" style="fill:#fff;fill-rule:nonzero;"/><path d="M630.309,75.51l-10.288,0l0,8.67l12.174,0l0,5.48l-18.777,0l0,-32.703l18.732,0l0,5.503l-12.129,0l0,7.726l10.288,0l0,5.324Z" style="fill:#fff;fill-rule:nonzero;"/><path d="M663.483,75.51l-10.287,0l0,8.67l12.174,0l0,5.48l-18.777,0l0,-32.703l18.732,0l0,5.503l-12.129,0l0,7.726l10.287,0l0,5.324Z" style="fill:#fff;fill-rule:nonzero;"/><path d="M690.436,56.957l0,22.64c-0.03,3.4 -0.965,6.001 -2.807,7.806c-1.842,1.804 -4.485,2.706 -7.929,2.706c-3.504,0 -6.18,-0.913 -8.03,-2.74c-1.849,-1.827 -2.774,-4.47 -2.774,-7.929l0,-22.483l6.649,0l0,22.506c0,1.857 0.299,3.182 0.898,3.975c0.599,0.794 1.685,1.191 3.257,1.191c1.572,0 2.651,-0.393 3.234,-1.179c0.584,-0.787 0.884,-2.078 0.899,-3.875l0,-22.618l6.603,0Z" style="fill:#fff;fill-rule:nonzero;"/></g><path d="M53,0l0,155.5" style="fill:none;fill-rule:nonzero;stroke:#fff;stroke-width:1px;"/><path d="M0,124.84l554.5,0" style="fill:none;fill-rule:nonzero;stroke:#fff;stroke-width:1px;"/><g><path d="M83.33,143.041l-3.493,0l-0.813,4.709l-1.311,0l1.845,-10.664l5.398,0l-0.205,1.15l-4.079,0l-0.638,3.655l3.501,0l-0.205,1.15Z" style="fill:#fff;fill-rule:nonzero;"/><path d="M85.96,147.75l-1.267,0l1.376,-7.925l1.268,0l-1.377,7.925Zm0.402,-10.02c0.01,-0.209 0.079,-0.393 0.206,-0.549c0.126,-0.156 0.3,-0.239 0.52,-0.249c0.21,-0.01 0.383,0.061 0.52,0.213c0.136,0.151 0.2,0.339 0.19,0.563c-0.01,0.215 -0.079,0.4 -0.209,0.553c-0.129,0.154 -0.304,0.234 -0.523,0.239c-0.215,0.009 -0.389,-0.062 -0.52,-0.213c-0.132,-0.151 -0.193,-0.337 -0.184,-0.557Z" style="fill:#fff;fill-rule:nonzero;"/><path d="M90.559,139.818l-0.168,0.864c0.576,-0.679 1.23,-1.013 1.963,-1.003c0.503,0.005 0.902,0.175 1.197,0.512c0.296,0.337 0.463,0.796 0.502,1.377c0.019,0.337 0.012,0.667 -0.022,0.989l-0.864,5.193l-1.26,0l0.871,-5.215l0.03,-0.578c0,-0.748 -0.308,-1.128 -0.923,-1.143c-0.503,-0.015 -0.972,0.271 -1.406,0.857l-0.22,0.315l-0.996,5.764l-1.267,0l1.377,-7.925l1.186,-0.007Z" style="fill:#fff;fill-rule:nonzero;"/><path d="M98.704,139.686c0.727,0.02 1.269,0.327 1.626,0.923l0.761,-4.109l1.268,0l-1.949,11.25l-1.15,0l0.14,-0.85c-0.523,0.684 -1.15,1.016 -1.883,0.996c-0.659,-0.009 -1.168,-0.266 -1.527,-0.769c-0.359,-0.502 -0.538,-1.223 -0.538,-2.16c0,-0.435 0.056,-1.011 0.168,-1.729c0.113,-0.717 0.286,-1.325 0.52,-1.823c0.557,-1.187 1.411,-1.763 2.564,-1.729Zm-1.992,5.596c0.024,0.971 0.427,1.465 1.208,1.479c0.278,0.01 0.545,-0.06 0.798,-0.209c0.254,-0.148 0.511,-0.404 0.769,-0.765l0.689,-4.014c-0.244,-0.61 -0.652,-0.927 -1.223,-0.952c-1.157,-0.058 -1.856,0.791 -2.095,2.549c-0.117,0.859 -0.166,1.497 -0.146,1.912Z" style="fill:#fff;fill-rule:nonzero;"/><path d="M107.178,147.75l-1.267,0l1.377,-7.925l1.267,0l-1.377,7.925Zm0.403,-10.02c0.009,-0.209 0.078,-0.393 0.205,-0.549c0.127,-0.156 0.3,-0.239 0.52,-0.249c0.21,-0.01 0.383,0.061 0.52,0.213c0.137,0.151 0.2,0.339 0.19,0.563c-0.009,0.215 -0.079,0.4 -0.208,0.553c-0.13,0.154 -0.304,0.234 -0.524,0.239c-0.215,0.009 -0.388,-0.062 -0.52,-0.213c-0.132,-0.151 -0.193,-0.337 -0.183,-0.557Z" style="fill:#fff;fill-rule:nonzero;"/><path d="M111.778,139.818l-0.169,0.864c0.576,-0.679 1.231,-1.013 1.963,-1.003c0.503,0.005 0.902,0.175 1.197,0.512c0.296,0.337 0.463,0.796 0.502,1.377c0.02,0.337 0.012,0.667 -0.022,0.989l-0.864,5.193l-1.26,0l0.872,-5.215l0.029,-0.578c0,-0.748 -0.308,-1.128 -0.923,-1.143c-0.503,-0.015 -0.971,0.271 -1.406,0.857l-0.22,0.315l-0.996,5.764l-1.267,0l1.377,-7.925l1.187,-0.007Z" style="fill:#fff;fill-rule:nonzero;"/><path d="M116.882,147.75l1.194,-6.877l-1.003,0l0.183,-1.048l1.003,0l0.103,-0.783c0.117,-0.879 0.404,-1.553 0.861,-2.022c0.456,-0.469 1.038,-0.698 1.746,-0.688c0.254,0.009 0.528,0.056 0.821,0.14l-0.183,1.097c-0.196,-0.048 -0.391,-0.078 -0.586,-0.088c-0.752,0 -1.214,0.533 -1.385,1.599l-0.117,0.745l1.319,0l-0.184,1.048l-1.311,0l-1.193,6.877l-1.268,0Z" style="fill:#fff;fill-rule:nonzero;"/><path d="M121.526,143.436c0.161,-1.138 0.551,-2.054 1.168,-2.75c0.618,-0.696 1.398,-1.032 2.34,-1.007c0.586,0.014 1.075,0.184 1.465,0.509c0.391,0.324 0.67,0.772 0.839,1.344c0.168,0.571 0.213,1.201 0.135,1.889l-0.088,0.747c-0.161,1.133 -0.551,2.044 -1.171,2.732c-0.621,0.689 -1.399,1.021 -2.337,0.996c-0.586,-0.014 -1.074,-0.183 -1.465,-0.505c-0.39,-0.322 -0.67,-0.769 -0.838,-1.34c-0.169,-0.572 -0.214,-1.199 -0.136,-1.883l0.088,-0.732Zm1.135,1.267c-0.014,0.654 0.087,1.162 0.304,1.524c0.218,0.361 0.546,0.551 0.985,0.571c0.567,0.024 1.036,-0.177 1.407,-0.604c0.371,-0.428 0.62,-1.069 0.747,-1.923l0.11,-0.857l0.036,-0.527c0.015,-0.659 -0.089,-1.17 -0.311,-1.531c-0.222,-0.361 -0.551,-0.552 -0.985,-0.571c-0.576,-0.025 -1.056,0.213 -1.439,0.714c-0.384,0.5 -0.632,1.195 -0.744,2.084l-0.088,0.725l-0.022,0.395Z" style="fill:#fff;fill-rule:nonzero;"/><path d="M132.776,141.034c-0.21,-0.044 -0.398,-0.066 -0.564,-0.066c-0.64,0 -1.167,0.368 -1.582,1.106l-0.981,5.676l-1.267,0l1.376,-7.925l1.224,-0.007l-0.176,0.813c0.464,-0.659 0.986,-0.982 1.567,-0.967c0.117,0.005 0.298,0.042 0.542,0.11l-0.139,1.26Z" style="fill:#fff;fill-rule:nonzero;"/><path d="M135.442,139.818l-0.154,0.74c0.562,-0.606 1.211,-0.899 1.948,-0.879c0.386,0.009 0.724,0.11 1.015,0.3c0.29,0.19 0.497,0.471 0.619,0.842c0.63,-0.776 1.35,-1.159 2.16,-1.15c0.533,0.015 0.953,0.183 1.26,0.506c0.308,0.322 0.486,0.771 0.535,1.347c0.029,0.337 0.027,0.677 -0.007,1.018l-0.872,5.208l-1.252,0l0.864,-5.222l0.022,-0.615c-0.01,-0.347 -0.102,-0.617 -0.275,-0.81c-0.173,-0.193 -0.421,-0.289 -0.743,-0.289c-0.386,-0.01 -0.733,0.146 -1.04,0.469c-0.308,0.322 -0.496,0.705 -0.564,1.15l0,0.036l-0.901,5.281l-1.275,0l0.872,-5.215c0.02,-0.195 0.024,-0.395 0.015,-0.6c-0.035,-0.718 -0.367,-1.089 -0.996,-1.114c-0.601,-0.009 -1.102,0.318 -1.502,0.982l-1.025,5.947l-1.26,0l1.377,-7.925l1.179,-0.007Z" style="fill:#fff;fill-rule:nonzero;"/><path d="M147.966,147.75c-0.029,-0.146 -0.041,-0.291 -0.036,-0.432l0.029,-0.432c-0.561,0.678 -1.167,1.018 -1.816,1.018c-0.635,0 -1.129,-0.206 -1.483,-0.619c-0.354,-0.413 -0.512,-0.958 -0.473,-1.637c0.054,-0.82 0.392,-1.477 1.015,-1.97c0.622,-0.493 1.439,-0.74 2.45,-0.74l0.878,0l0.125,-0.842c0.088,-0.874 -0.242,-1.311 -0.989,-1.311c-0.386,0 -0.707,0.113 -0.963,0.34c-0.256,0.227 -0.419,0.524 -0.487,0.89l-1.252,0.007c0.063,-0.668 0.367,-1.23 0.911,-1.684c0.545,-0.454 1.186,-0.676 1.923,-0.667c0.713,0.01 1.261,0.229 1.644,0.656c0.384,0.427 0.539,1.024 0.465,1.791l-0.644,3.903c-0.044,0.279 -0.061,0.545 -0.051,0.799l0.044,0.805l-0.015,0.125l-1.275,0Zm-1.56,-1.018c0.635,0 1.182,-0.31 1.641,-0.93l0.33,-1.897l-0.579,-0.008c-0.498,0 -0.94,0.092 -1.326,0.275c-0.385,0.183 -0.658,0.437 -0.816,0.762c-0.159,0.325 -0.214,0.677 -0.165,1.058c0.063,0.493 0.369,0.74 0.915,0.74Z" style="fill:#fff;fill-rule:nonzero;"/><path d="M154.317,137.906l-0.337,1.919l1.164,0l-0.183,1.048l-1.157,0l-0.835,4.929l-0.015,0.293c-0.019,0.415 0.13,0.622 0.447,0.622c0.117,0.005 0.293,-0.019 0.527,-0.073l-0.109,1.106c-0.274,0.098 -0.55,0.142 -0.828,0.132c-0.444,0 -0.779,-0.183 -1.004,-0.549c-0.224,-0.367 -0.307,-0.884 -0.249,-1.553l0.806,-4.907l-1.179,0l0.19,-1.048l1.165,0l0.337,-1.919l1.26,0Z" style="fill:#fff;fill-rule:nonzero;"/><path d="M156.69,147.75l-1.267,0l1.376,-7.925l1.268,0l-1.377,7.925Zm0.402,-10.02c0.01,-0.209 0.079,-0.393 0.206,-0.549c0.126,-0.156 0.3,-0.239 0.52,-0.249c0.21,-0.01 0.383,0.061 0.52,0.213c0.136,0.151 0.2,0.339 0.19,0.563c-0.01,0.215 -0.079,0.4 -0.209,0.553c-0.129,0.154 -0.304,0.234 -0.523,0.239c-0.215,0.009 -0.389,-0.062 -0.52,-0.213c-0.132,-0.151 -0.193,-0.337 -0.184,-0.557Z" style="fill:#fff;fill-rule:nonzero;"/><path d="M159.246,143.436c0.161,-1.138 0.55,-2.054 1.168,-2.75c0.618,-0.696 1.398,-1.032 2.34,-1.007c0.586,0.014 1.074,0.184 1.465,0.509c0.391,0.324 0.67,0.772 0.839,1.344c0.168,0.571 0.213,1.201 0.135,1.889l-0.088,0.747c-0.161,1.133 -0.552,2.044 -1.172,2.732c-0.62,0.689 -1.399,1.021 -2.336,0.996c-0.586,-0.014 -1.074,-0.183 -1.465,-0.505c-0.391,-0.322 -0.67,-0.769 -0.839,-1.34c-0.168,-0.572 -0.213,-1.199 -0.135,-1.883l0.088,-0.732Zm1.135,1.267c-0.015,0.654 0.087,1.162 0.304,1.524c0.217,0.361 0.546,0.551 0.985,0.571c0.566,0.024 1.035,-0.177 1.406,-0.604c0.371,-0.428 0.62,-1.069 0.747,-1.923l0.11,-0.857l0.037,-0.527c0.015,-0.659 -0.089,-1.17 -0.311,-1.531c-0.223,-0.361 -0.551,-0.552 -0.986,-0.571c-0.576,-0.025 -1.055,0.213 -1.439,0.714c-0.383,0.5 -0.631,1.195 -0.743,2.084l-0.088,0.725l-0.022,0.395Z" style="fill:#fff;fill-rule:nonzero;"/><path d="M168.665,139.818l-0.169,0.864c0.576,-0.679 1.231,-1.013 1.963,-1.003c0.503,0.005 0.902,0.175 1.198,0.512c0.295,0.337 0.462,0.796 0.501,1.377c0.02,0.337 0.013,0.667 -0.022,0.989l-0.864,5.193l-1.26,0l0.872,-5.215l0.029,-0.578c0,-0.748 -0.307,-1.128 -0.923,-1.143c-0.503,-0.015 -0.971,0.271 -1.406,0.857l-0.22,0.315l-0.996,5.764l-1.267,0l1.377,-7.925l1.187,-0.007Z" style="fill:#fff;fill-rule:nonzero;"/><path d="M177.139,143.436c0.161,-1.138 0.55,-2.054 1.168,-2.75c0.618,-0.696 1.398,-1.032 2.34,-1.007c0.586,0.014 1.074,0.184 1.465,0.509c0.391,0.324 0.67,0.772 0.839,1.344c0.168,0.571 0.213,1.201 0.135,1.889l-0.088,0.747c-0.161,1.133 -0.552,2.044 -1.172,2.732c-0.62,0.689 -1.399,1.021 -2.336,0.996c-0.586,-0.014 -1.074,-0.183 -1.465,-0.505c-0.391,-0.322 -0.67,-0.769 -0.839,-1.34c-0.168,-0.572 -0.213,-1.199 -0.135,-1.883l0.088,-0.732Zm1.135,1.267c-0.015,0.654 0.087,1.162 0.304,1.524c0.217,0.361 0.546,0.551 0.985,0.571c0.567,0.024 1.035,-0.177 1.406,-0.604c0.371,-0.428 0.621,-1.069 0.747,-1.923l0.11,-0.857l0.037,-0.527c0.015,-0.659 -0.089,-1.17 -0.311,-1.531c-0.222,-0.361 -0.551,-0.552 -0.985,-0.571c-0.577,-0.025 -1.056,0.213 -1.44,0.714c-0.383,0.5 -0.631,1.195 -0.743,2.084l-0.088,0.725l-0.022,0.395Z" style="fill:#fff;fill-rule:nonzero;"/><path d="M186.558,139.818l-0.169,0.864c0.576,-0.679 1.231,-1.013 1.963,-1.003c0.503,0.005 0.902,0.175 1.198,0.512c0.295,0.337 0.462,0.796 0.501,1.377c0.02,0.337 0.013,0.667 -0.022,0.989l-0.864,5.193l-1.26,0l0.872,-5.215l0.029,-0.578c0,-0.748 -0.307,-1.128 -0.923,-1.143c-0.502,-0.015 -0.971,0.271 -1.406,0.857l-0.22,0.315l-0.996,5.764l-1.267,0l1.377,-7.925l1.187,-0.007Z" style="fill:#fff;fill-rule:nonzero;"/><path d="M197.881,137.906l-0.337,1.919l1.165,0l-0.183,1.048l-1.158,0l-0.835,4.929l-0.014,0.293c-0.02,0.415 0.129,0.622 0.446,0.622c0.118,0.005 0.293,-0.019 0.528,-0.073l-0.11,1.106c-0.273,0.098 -0.549,0.142 -0.828,0.132c-0.444,0 -0.778,-0.183 -1.003,-0.549c-0.225,-0.367 -0.308,-0.884 -0.249,-1.553l0.806,-4.907l-1.18,0l0.191,-1.048l1.164,0l0.337,-1.919l1.26,0Z" style="fill:#fff;fill-rule:nonzero;"/><path d="M201.323,140.646c0.591,-0.66 1.233,-0.979 1.927,-0.96c0.507,0.005 0.907,0.172 1.197,0.502c0.291,0.329 0.456,0.79 0.495,1.38c0.019,0.337 0.012,0.667 -0.022,0.989l-0.865,5.193l-1.259,0l0.871,-5.215l0.029,-0.578c0,-0.748 -0.307,-1.128 -0.922,-1.143c-0.503,-0.015 -0.972,0.271 -1.407,0.857l-0.219,0.315l-0.996,5.764l-1.268,0l1.956,-11.25l1.267,0l-0.784,4.146Z" style="fill:#fff;fill-rule:nonzero;"/><path d="M208.941,147.896c-0.889,-0.009 -1.553,-0.329 -1.993,-0.959c-0.439,-0.63 -0.6,-1.489 -0.483,-2.578l0.095,-0.784c0.152,-1.23 0.526,-2.193 1.124,-2.889c0.599,-0.696 1.359,-1.032 2.282,-1.007c0.752,0.019 1.317,0.277 1.696,0.772c0.378,0.496 0.557,1.193 0.538,2.091l-0.066,0.879l-0.11,0.755l-4.248,-0.008c-0.063,0.44 -0.093,0.784 -0.088,1.033c0.01,0.493 0.132,0.88 0.366,1.161c0.235,0.281 0.569,0.424 1.004,0.429c0.312,0.009 0.621,-0.053 0.926,-0.187c0.305,-0.135 0.627,-0.37 0.963,-0.707l0.594,0.828c-0.313,0.41 -0.699,0.71 -1.158,0.9c-0.459,0.191 -0.939,0.281 -1.442,0.271Zm0.944,-7.111c-0.864,-0.039 -1.469,0.483 -1.816,1.567l-0.198,0.711l3.04,0.007l0.036,-0.191c0.03,-0.224 0.044,-0.459 0.044,-0.703c-0.019,-0.888 -0.388,-1.352 -1.106,-1.391Z" style="fill:#fff;fill-rule:nonzero;"/><path d="M222.278,142.821l-3.655,0l-0.659,3.779l4.263,0l-0.205,1.15l-5.567,0l1.846,-10.664l5.508,0l-0.205,1.15l-4.19,0l-0.6,3.435l3.662,0l-0.198,1.15Z" style="fill:#fff;fill-rule:nonzero;"/><path d="M231.865,137.086l-1.281,7.507c-0.142,1.045 -0.54,1.864 -1.194,2.458c-0.654,0.593 -1.477,0.88 -2.468,0.86c-0.943,-0.019 -1.657,-0.323 -2.143,-0.912c-0.486,-0.588 -0.672,-1.388 -0.56,-2.398l1.274,-7.515l1.304,0l-1.274,7.528c-0.035,0.293 -0.037,0.566 -0.008,0.821c0.083,0.855 0.576,1.297 1.48,1.326c0.62,0.025 1.123,-0.138 1.509,-0.487c0.385,-0.35 0.637,-0.874 0.754,-1.572l1.289,-7.616l1.318,0Z" style="fill:#fff;fill-rule:nonzero;"/><path d="M239.285,147.75c-0.029,-0.146 -0.042,-0.291 -0.037,-0.432l0.03,-0.432c-0.562,0.678 -1.167,1.018 -1.817,1.018c-0.635,0 -1.129,-0.206 -1.483,-0.619c-0.354,-0.413 -0.512,-0.958 -0.472,-1.637c0.053,-0.82 0.391,-1.477 1.014,-1.97c0.622,-0.493 1.439,-0.74 2.45,-0.74l0.879,0l0.124,-0.842c0.088,-0.874 -0.241,-1.311 -0.988,-1.311c-0.386,0 -0.707,0.113 -0.964,0.34c-0.256,0.227 -0.418,0.524 -0.487,0.89l-1.252,0.007c0.063,-0.668 0.367,-1.23 0.912,-1.684c0.544,-0.454 1.185,-0.676 1.922,-0.667c0.713,0.01 1.261,0.229 1.645,0.656c0.383,0.427 0.538,1.024 0.465,1.791l-0.645,3.903c-0.044,0.279 -0.061,0.545 -0.051,0.799l0.044,0.805l-0.015,0.125l-1.274,0Zm-1.56,-1.018c0.635,0 1.181,-0.31 1.64,-0.93l0.33,-1.897l-0.579,-0.008c-0.498,0 -0.94,0.092 -1.325,0.275c-0.386,0.183 -0.658,0.437 -0.817,0.762c-0.159,0.325 -0.214,0.677 -0.165,1.058c0.064,0.493 0.369,0.74 0.916,0.74Z" style="fill:#fff;fill-rule:nonzero;"/><path d="M244.829,139.818l-0.168,0.864c0.576,-0.679 1.23,-1.013 1.963,-1.003c0.503,0.005 0.902,0.175 1.197,0.512c0.296,0.337 0.463,0.796 0.502,1.377c0.019,0.337 0.012,0.667 -0.022,0.989l-0.864,5.193l-1.26,0l0.871,-5.215l0.03,-0.578c0,-0.748 -0.308,-1.128 -0.923,-1.143c-0.503,-0.015 -0.972,0.271 -1.406,0.857l-0.22,0.315l-0.996,5.764l-1.267,0l1.377,-7.925l1.186,-0.007Z" style="fill:#fff;fill-rule:nonzero;"/><path d="M252.974,139.686c0.727,0.02 1.269,0.327 1.626,0.923l0.761,-4.109l1.268,0l-1.949,11.25l-1.15,0l0.14,-0.85c-0.523,0.684 -1.15,1.016 -1.883,0.996c-0.659,-0.009 -1.168,-0.266 -1.527,-0.769c-0.359,-0.502 -0.538,-1.223 -0.538,-2.16c0,-0.435 0.056,-1.011 0.168,-1.729c0.113,-0.717 0.286,-1.325 0.52,-1.823c0.557,-1.187 1.411,-1.763 2.564,-1.729Zm-1.992,5.596c0.024,0.971 0.427,1.465 1.208,1.479c0.278,0.01 0.545,-0.06 0.798,-0.209c0.254,-0.148 0.511,-0.404 0.769,-0.765l0.689,-4.014c-0.244,-0.61 -0.652,-0.927 -1.223,-0.952c-1.157,-0.058 -1.856,0.791 -2.095,2.549c-0.117,0.859 -0.166,1.497 -0.146,1.912Z" style="fill:#fff;fill-rule:nonzero;"/><path d="M261.448,147.75l-1.267,0l1.377,-7.925l1.267,0l-1.377,7.925Zm0.403,-10.02c0.01,-0.209 0.078,-0.393 0.205,-0.549c0.127,-0.156 0.3,-0.239 0.52,-0.249c0.21,-0.01 0.383,0.061 0.52,0.213c0.137,0.151 0.2,0.339 0.19,0.563c-0.009,0.215 -0.079,0.4 -0.208,0.553c-0.13,0.154 -0.304,0.234 -0.524,0.239c-0.215,0.009 -0.388,-0.062 -0.52,-0.213c-0.132,-0.151 -0.193,-0.337 -0.183,-0.557Z" style="fill:#fff;fill-rule:nonzero;"/><path d="M266.853,137.906l-0.337,1.919l1.165,0l-0.183,1.048l-1.158,0l-0.834,4.929l-0.015,0.293c-0.02,0.415 0.129,0.622 0.447,0.622c0.117,0.005 0.293,-0.019 0.527,-0.073l-0.11,1.106c-0.273,0.098 -0.549,0.142 -0.827,0.132c-0.445,0 -0.779,-0.183 -1.004,-0.549c-0.225,-0.367 -0.308,-0.884 -0.249,-1.553l0.806,-4.907l-1.179,0l0.19,-1.048l1.165,0l0.336,-1.919l1.26,0Z" style="fill:#fff;fill-rule:nonzero;"/><path d="M271.987,145.663c0.064,-0.464 -0.195,-0.85 -0.776,-1.158l-0.981,-0.512c-0.508,-0.284 -0.863,-0.584 -1.066,-0.901c-0.203,-0.318 -0.292,-0.686 -0.267,-1.106c0.039,-0.669 0.312,-1.223 0.82,-1.663c0.508,-0.439 1.128,-0.654 1.86,-0.644c0.708,0.019 1.263,0.252 1.663,0.699c0.4,0.447 0.586,1.017 0.557,1.71l-1.253,0c0.01,-0.395 -0.078,-0.706 -0.264,-0.933c-0.185,-0.228 -0.444,-0.346 -0.776,-0.356c-0.376,0 -0.686,0.107 -0.93,0.319c-0.244,0.212 -0.391,0.487 -0.44,0.824c-0.058,0.395 0.135,0.72 0.579,0.974l1.238,0.63c0.913,0.508 1.345,1.182 1.296,2.021c-0.049,0.718 -0.337,1.291 -0.864,1.718c-0.527,0.427 -1.169,0.631 -1.926,0.611c-0.728,-0.009 -1.319,-0.247 -1.773,-0.714c-0.454,-0.466 -0.666,-1.068 -0.637,-1.805l1.274,0.007c-0.009,0.459 0.091,0.807 0.301,1.044c0.21,0.237 0.508,0.355 0.893,0.355c0.406,0 0.741,-0.102 1.007,-0.307c0.266,-0.205 0.422,-0.476 0.465,-0.813Z" style="fill:#fff;fill-rule:nonzero;"/><path d="M281.655,137.086l1.187,8.686l4.204,-8.686l1.714,0l-1.853,10.664l-1.311,0l0.732,-4.219l0.813,-3.962l-4.094,8.181l-1.003,0l-1.26,-8.35l-0.623,4.263l-0.703,4.087l-1.311,0l1.846,-10.664l1.662,0Z" style="fill:#fff;fill-rule:nonzero;"/><path d="M291.99,147.896c-0.889,-0.009 -1.553,-0.329 -1.992,-0.959c-0.44,-0.63 -0.601,-1.489 -0.484,-2.578l0.096,-0.784c0.151,-1.23 0.526,-2.193 1.124,-2.889c0.598,-0.696 1.358,-1.032 2.281,-1.007c0.752,0.019 1.317,0.277 1.696,0.772c0.378,0.496 0.558,1.193 0.538,2.091l-0.066,0.879l-0.11,0.755l-4.248,-0.008c-0.063,0.44 -0.092,0.784 -0.088,1.033c0.01,0.493 0.132,0.88 0.367,1.161c0.234,0.281 0.569,0.424 1.003,0.429c0.313,0.009 0.621,-0.053 0.927,-0.187c0.305,-0.135 0.626,-0.37 0.963,-0.707l0.593,0.828c-0.312,0.41 -0.698,0.71 -1.157,0.9c-0.459,0.191 -0.94,0.281 -1.443,0.271Zm0.945,-7.111c-0.865,-0.039 -1.47,0.483 -1.817,1.567l-0.197,0.711l3.039,0.007l0.037,-0.191c0.029,-0.224 0.044,-0.459 0.044,-0.703c-0.02,-0.888 -0.388,-1.352 -1.106,-1.391Z" style="fill:#fff;fill-rule:nonzero;"/><path d="M298.479,139.818l-0.154,0.74c0.562,-0.606 1.211,-0.899 1.949,-0.879c0.385,0.009 0.723,0.11 1.014,0.3c0.291,0.19 0.497,0.471 0.619,0.842c0.63,-0.776 1.35,-1.159 2.161,-1.15c0.532,0.015 0.952,0.183 1.259,0.506c0.308,0.322 0.486,0.771 0.535,1.347c0.029,0.337 0.027,0.677 -0.007,1.018l-0.872,5.208l-1.252,0l0.864,-5.222l0.022,-0.615c-0.01,-0.347 -0.101,-0.617 -0.275,-0.81c-0.173,-0.193 -0.421,-0.289 -0.743,-0.289c-0.386,-0.01 -0.733,0.146 -1.04,0.469c-0.308,0.322 -0.496,0.705 -0.564,1.15l0,0.036l-0.901,5.281l-1.275,0l0.872,-5.215c0.02,-0.195 0.024,-0.395 0.015,-0.6c-0.034,-0.718 -0.366,-1.089 -0.996,-1.114c-0.601,-0.009 -1.101,0.318 -1.502,0.982l-1.025,5.947l-1.26,0l1.377,-7.925l1.179,-0.007Z" style="fill:#fff;fill-rule:nonzero;"/><path d="M310.103,147.896c-0.811,-0.029 -1.385,-0.393 -1.721,-1.091l-0.271,0.945l-1.165,0l1.956,-11.25l1.259,0l-0.798,4.197c0.522,-0.698 1.152,-1.038 1.89,-1.018c0.688,0.009 1.207,0.262 1.556,0.758c0.349,0.495 0.514,1.217 0.494,2.164c-0.019,0.523 -0.078,1.106 -0.175,1.751c-0.098,0.644 -0.242,1.196 -0.433,1.655c-0.532,1.294 -1.396,1.924 -2.592,1.889Zm1.955,-5.595c-0.024,-0.513 -0.136,-0.886 -0.337,-1.121c-0.2,-0.234 -0.49,-0.356 -0.871,-0.366c-0.62,-0.015 -1.165,0.349 -1.634,1.091l-0.644,3.787c0.229,0.688 0.654,1.045 1.274,1.069c0.572,0.025 1.031,-0.177 1.377,-0.604c0.347,-0.427 0.575,-1.104 0.685,-2.029c0.11,-0.925 0.16,-1.534 0.15,-1.827Z" style="fill:#fff;fill-rule:nonzero;"/><path d="M317.149,147.896c-0.889,-0.009 -1.553,-0.329 -1.993,-0.959c-0.439,-0.63 -0.6,-1.489 -0.483,-2.578l0.095,-0.784c0.152,-1.23 0.526,-2.193 1.124,-2.889c0.599,-0.696 1.359,-1.032 2.282,-1.007c0.752,0.019 1.317,0.277 1.696,0.772c0.378,0.496 0.557,1.193 0.538,2.091l-0.066,0.879l-0.11,0.755l-4.248,-0.008c-0.063,0.44 -0.093,0.784 -0.088,1.033c0.01,0.493 0.132,0.88 0.366,1.161c0.235,0.281 0.569,0.424 1.004,0.429c0.312,0.009 0.621,-0.053 0.926,-0.187c0.305,-0.135 0.627,-0.37 0.963,-0.707l0.594,0.828c-0.313,0.41 -0.699,0.71 -1.158,0.9c-0.459,0.191 -0.939,0.281 -1.442,0.271Zm0.944,-7.111c-0.864,-0.039 -1.469,0.483 -1.816,1.567l-0.198,0.711l3.04,0.007l0.036,-0.191c0.03,-0.224 0.044,-0.459 0.044,-0.703c-0.019,-0.888 -0.388,-1.352 -1.106,-1.391Z" style="fill:#fff;fill-rule:nonzero;"/><path d="M325.469,141.034c-0.21,-0.044 -0.398,-0.066 -0.564,-0.066c-0.64,0 -1.167,0.368 -1.582,1.106l-0.982,5.676l-1.267,0l1.377,-7.925l1.223,-0.007l-0.175,0.813c0.464,-0.659 0.986,-0.982 1.567,-0.967c0.117,0.005 0.298,0.042 0.542,0.11l-0.139,1.26Z" style="fill:#fff;fill-rule:nonzero;"/><path d="M334.185,144.996c0.053,-0.444 -0.02,-0.817 -0.22,-1.117c-0.2,-0.3 -0.615,-0.587 -1.245,-0.86c-0.63,-0.274 -1.111,-0.555 -1.443,-0.843c-0.698,-0.6 -1.013,-1.357 -0.945,-2.27c0.069,-0.86 0.419,-1.574 1.051,-2.143c0.633,-0.568 1.395,-0.843 2.289,-0.824c0.859,0.02 1.538,0.332 2.036,0.938c0.498,0.605 0.716,1.367 0.652,2.285l-1.318,0c0.048,-0.674 -0.052,-1.185 -0.301,-1.534c-0.249,-0.349 -0.63,-0.529 -1.142,-0.539c-0.528,-0.009 -0.969,0.151 -1.326,0.481c-0.356,0.33 -0.564,0.767 -0.622,1.309c-0.049,0.401 0.043,0.755 0.278,1.06c0.234,0.306 0.643,0.582 1.227,0.829c0.583,0.247 1.041,0.508 1.373,0.782c0.732,0.6 1.057,1.411 0.974,2.431c-0.073,0.87 -0.423,1.578 -1.051,2.124c-0.627,0.547 -1.415,0.811 -2.362,0.791c-0.894,-0.019 -1.609,-0.332 -2.146,-0.937c-0.537,-0.605 -0.781,-1.375 -0.732,-2.307l1.318,0.007c-0.054,0.63 0.063,1.133 0.352,1.509c0.288,0.376 0.715,0.569 1.281,0.579c0.532,0.019 0.985,-0.13 1.359,-0.447c0.373,-0.318 0.594,-0.752 0.663,-1.304Z" style="fill:#fff;fill-rule:nonzero;"/><path d="M339.956,137.906l-0.337,1.919l1.165,0l-0.183,1.048l-1.157,0l-0.835,4.929l-0.015,0.293c-0.02,0.415 0.129,0.622 0.447,0.622c0.117,0.005 0.293,-0.019 0.527,-0.073l-0.11,1.106c-0.273,0.098 -0.549,0.142 -0.827,0.132c-0.445,0 -0.779,-0.183 -1.004,-0.549c-0.224,-0.367 -0.308,-0.884 -0.249,-1.553l0.806,-4.907l-1.179,0l0.19,-1.048l1.165,0l0.336,-1.919l1.26,0Z" style="fill:#fff;fill-rule:nonzero;"/><path d="M345.025,147.75c-0.03,-0.146 -0.042,-0.291 -0.037,-0.432l0.029,-0.432c-0.561,0.678 -1.167,1.018 -1.816,1.018c-0.635,0 -1.129,-0.206 -1.483,-0.619c-0.354,-0.413 -0.512,-0.958 -0.473,-1.637c0.054,-0.82 0.392,-1.477 1.015,-1.97c0.622,-0.493 1.439,-0.74 2.45,-0.74l0.879,0l0.124,-0.842c0.088,-0.874 -0.242,-1.311 -0.989,-1.311c-0.385,0 -0.707,0.113 -0.963,0.34c-0.256,0.227 -0.419,0.524 -0.487,0.89l-1.252,0.007c0.063,-0.668 0.367,-1.23 0.912,-1.684c0.544,-0.454 1.185,-0.676 1.922,-0.667c0.713,0.01 1.261,0.229 1.644,0.656c0.384,0.427 0.539,1.024 0.465,1.791l-0.644,3.903c-0.044,0.279 -0.061,0.545 -0.051,0.799l0.044,0.805l-0.015,0.125l-1.274,0Zm-1.56,-1.018c0.634,0 1.181,-0.31 1.64,-0.93l0.33,-1.897l-0.579,-0.008c-0.498,0 -0.94,0.092 -1.326,0.275c-0.385,0.183 -0.658,0.437 -0.816,0.762c-0.159,0.325 -0.214,0.677 -0.165,1.058c0.063,0.493 0.369,0.74 0.916,0.74Z" style="fill:#fff;fill-rule:nonzero;"/><path d="M351.375,137.906l-0.337,1.919l1.164,0l-0.183,1.048l-1.157,0l-0.835,4.929l-0.015,0.293c-0.019,0.415 0.13,0.622 0.447,0.622c0.117,0.005 0.293,-0.019 0.527,-0.073l-0.109,1.106c-0.274,0.098 -0.55,0.142 -0.828,0.132c-0.444,0 -0.779,-0.183 -1.003,-0.549c-0.225,-0.367 -0.308,-0.884 -0.249,-1.553l0.805,-4.907l-1.179,0l0.19,-1.048l1.165,0l0.337,-1.919l1.26,0Z" style="fill:#fff;fill-rule:nonzero;"/><path d="M355.337,147.896c-0.889,-0.009 -1.553,-0.329 -1.992,-0.959c-0.44,-0.63 -0.601,-1.489 -0.484,-2.578l0.096,-0.784c0.151,-1.23 0.526,-2.193 1.124,-2.889c0.598,-0.696 1.359,-1.032 2.281,-1.007c0.752,0.019 1.318,0.277 1.696,0.772c0.378,0.496 0.558,1.193 0.538,2.091l-0.066,0.879l-0.109,0.755l-4.248,-0.008c-0.064,0.44 -0.093,0.784 -0.088,1.033c0.009,0.493 0.131,0.88 0.366,1.161c0.234,0.281 0.569,0.424 1.003,0.429c0.313,0.009 0.622,-0.053 0.927,-0.187c0.305,-0.135 0.626,-0.37 0.963,-0.707l0.593,0.828c-0.312,0.41 -0.698,0.71 -1.157,0.9c-0.459,0.191 -0.94,0.281 -1.443,0.271Zm0.945,-7.111c-0.864,-0.039 -1.47,0.483 -1.817,1.567l-0.197,0.711l3.039,0.007l0.037,-0.191c0.029,-0.224 0.044,-0.459 0.044,-0.703c-0.02,-0.888 -0.388,-1.352 -1.106,-1.391Z" style="fill:#fff;fill-rule:nonzero;"/><path d="M363.394,145.663c0.063,-0.464 -0.196,-0.85 -0.777,-1.158l-0.981,-0.512c-0.508,-0.284 -0.863,-0.584 -1.066,-0.901c-0.202,-0.318 -0.292,-0.686 -0.267,-1.106c0.039,-0.669 0.312,-1.223 0.82,-1.663c0.508,-0.439 1.128,-0.654 1.861,-0.644c0.708,0.019 1.262,0.252 1.662,0.699c0.401,0.447 0.586,1.017 0.557,1.71l-1.253,0c0.01,-0.395 -0.078,-0.706 -0.263,-0.933c-0.186,-0.228 -0.445,-0.346 -0.777,-0.356c-0.376,0 -0.686,0.107 -0.93,0.319c-0.244,0.212 -0.39,0.487 -0.439,0.824c-0.059,0.395 0.134,0.72 0.578,0.974l1.238,0.63c0.913,0.508 1.345,1.182 1.296,2.021c-0.048,0.718 -0.336,1.291 -0.864,1.718c-0.527,0.427 -1.169,0.631 -1.926,0.611c-0.728,-0.009 -1.318,-0.247 -1.773,-0.714c-0.454,-0.466 -0.666,-1.068 -0.637,-1.805l1.275,0.007c-0.01,0.459 0.09,0.807 0.3,1.044c0.21,0.237 0.508,0.355 0.894,0.355c0.405,0 0.741,-0.102 1.007,-0.307c0.266,-0.205 0.421,-0.476 0.465,-0.813Z" style="fill:#fff;fill-rule:nonzero;"/><path d="M368.535,137.364l-0.556,2.644l-0.938,0l0.564,-3.508l1.069,0l-0.139,0.864Z" style="fill:#fff;fill-rule:nonzero;"/><path d="M375.127,147.904c-0.752,-0.02 -1.318,-0.325 -1.699,-0.916l-0.711,3.809l-1.259,0l1.904,-10.972l1.135,-0.007l-0.146,0.886c0.537,-0.698 1.179,-1.042 1.926,-1.033c0.703,0.01 1.228,0.273 1.575,0.788c0.346,0.515 0.505,1.229 0.476,2.142c-0.015,0.425 -0.071,0.979 -0.169,1.663c-0.097,0.683 -0.241,1.257 -0.432,1.721c-0.537,1.313 -1.404,1.953 -2.6,1.919Zm1.941,-5.611c-0.073,-0.966 -0.488,-1.457 -1.245,-1.472c-0.576,-0.014 -1.089,0.296 -1.538,0.93l-0.711,4.139c0.235,0.576 0.64,0.879 1.216,0.908c0.571,0.024 1.04,-0.178 1.406,-0.608c0.367,-0.43 0.608,-1.099 0.726,-2.007c0.117,-0.908 0.166,-1.538 0.146,-1.89Z" style="fill:#fff;fill-rule:nonzero;"/><path d="M383.623,141.034c-0.21,-0.044 -0.398,-0.066 -0.564,-0.066c-0.639,0 -1.167,0.368 -1.582,1.106l-0.981,5.676l-1.267,0l1.377,-7.925l1.223,-0.007l-0.176,0.813c0.464,-0.659 0.986,-0.982 1.567,-0.967c0.118,0.005 0.298,0.042 0.542,0.11l-0.139,1.26Z" style="fill:#fff;fill-rule:nonzero;"/><path d="M384.099,143.436c0.162,-1.138 0.551,-2.054 1.169,-2.75c0.617,-0.696 1.397,-1.032 2.34,-1.007c0.586,0.014 1.074,0.184 1.465,0.509c0.39,0.324 0.67,0.772 0.838,1.344c0.169,0.571 0.214,1.201 0.136,1.889l-0.088,0.747c-0.161,1.133 -0.552,2.044 -1.172,2.732c-0.62,0.689 -1.399,1.021 -2.336,0.996c-0.586,-0.014 -1.075,-0.183 -1.465,-0.505c-0.391,-0.322 -0.67,-0.769 -0.839,-1.34c-0.168,-0.572 -0.214,-1.199 -0.135,-1.883l0.087,-0.732Zm1.136,1.267c-0.015,0.654 0.086,1.162 0.304,1.524c0.217,0.361 0.545,0.551 0.985,0.571c0.566,0.024 1.035,-0.177 1.406,-0.604c0.371,-0.428 0.62,-1.069 0.747,-1.923l0.11,-0.857l0.037,-0.527c0.014,-0.659 -0.09,-1.17 -0.312,-1.531c-0.222,-0.361 -0.55,-0.552 -0.985,-0.571c-0.576,-0.025 -1.056,0.213 -1.439,0.714c-0.383,0.5 -0.631,1.195 -0.743,2.084l-0.088,0.725l-0.022,0.395Z" style="fill:#fff;fill-rule:nonzero;"/><path d="M394.551,139.679c0.777,0.019 1.336,0.366 1.677,1.04l0.264,-0.894l1.15,0l-1.355,7.991c-0.083,0.625 -0.267,1.174 -0.553,1.648c-0.286,0.473 -0.656,0.832 -1.11,1.077c-0.454,0.244 -0.971,0.356 -1.552,0.336c-0.415,-0.009 -0.833,-0.111 -1.253,-0.304c-0.42,-0.192 -0.759,-0.438 -1.018,-0.736l0.601,-0.871c0.473,0.517 1.013,0.786 1.618,0.805c0.533,0.02 0.971,-0.129 1.315,-0.446c0.344,-0.318 0.573,-0.796 0.685,-1.436l0.19,-0.923c-0.522,0.64 -1.132,0.95 -1.831,0.93c-0.678,-0.009 -1.195,-0.273 -1.549,-0.791c-0.354,-0.517 -0.526,-1.228 -0.516,-2.131c0,-0.386 0.046,-0.913 0.139,-1.582c0.171,-1.225 0.516,-2.157 1.036,-2.794c0.52,-0.637 1.208,-0.944 2.062,-0.919Zm-1.977,5.605c0.024,0.97 0.424,1.463 1.201,1.477c0.586,0.015 1.111,-0.314 1.574,-0.987l0.682,-3.972c-0.254,-0.625 -0.66,-0.949 -1.216,-0.973c-1.172,-0.044 -1.873,0.819 -2.102,2.589c-0.113,0.854 -0.159,1.475 -0.139,1.866Z" style="fill:#fff;fill-rule:nonzero;"/><path d="M402.593,141.034c-0.21,-0.044 -0.398,-0.066 -0.564,-0.066c-0.639,0 -1.167,0.368 -1.582,1.106l-0.981,5.676l-1.267,0l1.377,-7.925l1.223,-0.007l-0.176,0.813c0.464,-0.659 0.986,-0.982 1.567,-0.967c0.117,0.005 0.298,0.042 0.542,0.11l-0.139,1.26Z" style="fill:#fff;fill-rule:nonzero;"/><path d="M405.515,147.896c-0.888,-0.009 -1.552,-0.329 -1.992,-0.959c-0.439,-0.63 -0.6,-1.489 -0.483,-2.578l0.095,-0.784c0.151,-1.23 0.526,-2.193 1.124,-2.889c0.598,-0.696 1.359,-1.032 2.282,-1.007c0.752,0.019 1.317,0.277 1.695,0.772c0.379,0.496 0.558,1.193 0.539,2.091l-0.066,0.879l-0.11,0.755l-4.248,-0.008c-0.064,0.44 -0.093,0.784 -0.088,1.033c0.01,0.493 0.132,0.88 0.366,1.161c0.235,0.281 0.569,0.424 1.004,0.429c0.312,0.009 0.621,-0.053 0.926,-0.187c0.305,-0.135 0.626,-0.37 0.963,-0.707l0.594,0.828c-0.313,0.41 -0.699,0.71 -1.158,0.9c-0.459,0.191 -0.94,0.281 -1.443,0.271Zm0.945,-7.111c-0.864,-0.039 -1.469,0.483 -1.816,1.567l-0.198,0.711l3.04,0.007l0.036,-0.191c0.03,-0.224 0.044,-0.459 0.044,-0.703c-0.019,-0.888 -0.388,-1.352 -1.106,-1.391Z" style="fill:#fff;fill-rule:nonzero;"/><path d="M413.572,145.663c0.064,-0.464 -0.195,-0.85 -0.776,-1.158l-0.982,-0.512c-0.508,-0.284 -0.863,-0.584 -1.065,-0.901c-0.203,-0.318 -0.292,-0.686 -0.268,-1.106c0.039,-0.669 0.313,-1.223 0.821,-1.663c0.507,-0.439 1.128,-0.654 1.86,-0.644c0.708,0.019 1.262,0.252 1.663,0.699c0.4,0.447 0.585,1.017 0.556,1.71l-1.252,0c0.009,-0.395 -0.078,-0.706 -0.264,-0.933c-0.185,-0.228 -0.444,-0.346 -0.776,-0.356c-0.376,0 -0.686,0.107 -0.93,0.319c-0.245,0.212 -0.391,0.487 -0.44,0.824c-0.059,0.395 0.134,0.72 0.579,0.974l1.237,0.63c0.914,0.508 1.346,1.182 1.297,2.021c-0.049,0.718 -0.337,1.291 -0.864,1.718c-0.528,0.427 -1.17,0.631 -1.927,0.611c-0.727,-0.009 -1.318,-0.247 -1.772,-0.714c-0.454,-0.466 -0.667,-1.068 -0.637,-1.805l1.274,0.007c-0.01,0.459 0.09,0.807 0.3,1.044c0.21,0.237 0.508,0.355 0.894,0.355c0.405,0 0.741,-0.102 1.007,-0.307c0.266,-0.205 0.421,-0.476 0.465,-0.813Z" style="fill:#fff;fill-rule:nonzero;"/><path d="M420.274,145.663c0.063,-0.464 -0.196,-0.85 -0.777,-1.158l-0.981,-0.512c-0.508,-0.284 -0.863,-0.584 -1.066,-0.901c-0.202,-0.318 -0.291,-0.686 -0.267,-1.106c0.039,-0.669 0.312,-1.223 0.82,-1.663c0.508,-0.439 1.128,-0.654 1.861,-0.644c0.708,0.019 1.262,0.252 1.662,0.699c0.401,0.447 0.586,1.017 0.557,1.71l-1.253,0c0.01,-0.395 -0.078,-0.706 -0.263,-0.933c-0.186,-0.228 -0.445,-0.346 -0.777,-0.356c-0.376,0 -0.686,0.107 -0.93,0.319c-0.244,0.212 -0.39,0.487 -0.439,0.824c-0.059,0.395 0.134,0.72 0.578,0.974l1.238,0.63c0.913,0.508 1.345,1.182 1.297,2.021c-0.049,0.718 -0.337,1.291 -0.865,1.718c-0.527,0.427 -1.169,0.631 -1.926,0.611c-0.728,-0.009 -1.318,-0.247 -1.772,-0.714c-0.455,-0.466 -0.667,-1.068 -0.638,-1.805l1.275,0.007c-0.01,0.459 0.09,0.807 0.3,1.044c0.21,0.237 0.508,0.355 0.894,0.355c0.405,0 0.741,-0.102 1.007,-0.307c0.266,-0.205 0.421,-0.476 0.465,-0.813Z" style="fill:#fff;fill-rule:nonzero;"/><path d="M427.62,147.75l-1.267,0l1.377,-7.925l1.267,0l-1.377,7.925Zm0.403,-10.02c0.01,-0.209 0.078,-0.393 0.205,-0.549c0.127,-0.156 0.3,-0.239 0.52,-0.249c0.21,-0.01 0.383,0.061 0.52,0.213c0.137,0.151 0.2,0.339 0.19,0.563c-0.009,0.215 -0.079,0.4 -0.208,0.553c-0.13,0.154 -0.304,0.234 -0.524,0.239c-0.215,0.009 -0.388,-0.062 -0.52,-0.213c-0.132,-0.151 -0.193,-0.337 -0.183,-0.557Z" style="fill:#fff;fill-rule:nonzero;"/><path d="M432.22,139.818l-0.169,0.864c0.576,-0.679 1.231,-1.013 1.963,-1.003c0.503,0.005 0.902,0.175 1.197,0.512c0.296,0.337 0.463,0.796 0.502,1.377c0.02,0.337 0.012,0.667 -0.022,0.989l-0.864,5.193l-1.26,0l0.872,-5.215l0.029,-0.578c0,-0.748 -0.308,-1.128 -0.923,-1.143c-0.503,-0.015 -0.971,0.271 -1.406,0.857l-0.22,0.315l-0.996,5.764l-1.267,0l1.377,-7.925l1.187,-0.007Z" style="fill:#fff;fill-rule:nonzero;"/><path d="M443.543,137.906l-0.337,1.919l1.164,0l-0.183,1.048l-1.157,0l-0.835,4.929l-0.015,0.293c-0.019,0.415 0.13,0.622 0.447,0.622c0.117,0.005 0.293,-0.019 0.528,-0.073l-0.11,1.106c-0.274,0.098 -0.55,0.142 -0.828,0.132c-0.444,0 -0.779,-0.183 -1.003,-0.549c-0.225,-0.367 -0.308,-0.884 -0.249,-1.553l0.805,-4.907l-1.179,0l0.191,-1.048l1.164,0l0.337,-1.919l1.26,0Z" style="fill:#fff;fill-rule:nonzero;"/><path d="M446.985,140.646c0.591,-0.66 1.233,-0.979 1.926,-0.96c0.508,0.005 0.907,0.172 1.198,0.502c0.29,0.329 0.455,0.79 0.494,1.38c0.02,0.337 0.013,0.667 -0.022,0.989l-0.864,5.193l-1.26,0l0.872,-5.215l0.029,-0.578c0,-0.748 -0.307,-1.128 -0.923,-1.143c-0.503,-0.015 -0.971,0.271 -1.406,0.857l-0.22,0.315l-0.996,5.764l-1.267,0l1.956,-11.25l1.267,0l-0.784,4.146Z" style="fill:#fff;fill-rule:nonzero;"/><path d="M454.602,147.896c-0.888,-0.009 -1.552,-0.329 -1.992,-0.959c-0.439,-0.63 -0.6,-1.489 -0.483,-2.578l0.095,-0.784c0.151,-1.23 0.526,-2.193 1.124,-2.889c0.598,-0.696 1.359,-1.032 2.282,-1.007c0.752,0.019 1.317,0.277 1.695,0.772c0.379,0.496 0.558,1.193 0.539,2.091l-0.066,0.879l-0.11,0.755l-4.248,-0.008c-0.064,0.44 -0.093,0.784 -0.088,1.033c0.01,0.493 0.132,0.88 0.366,1.161c0.234,0.281 0.569,0.424 1.004,0.429c0.312,0.009 0.621,-0.053 0.926,-0.187c0.305,-0.135 0.626,-0.37 0.963,-0.707l0.593,0.828c-0.312,0.41 -0.698,0.71 -1.157,0.9c-0.459,0.191 -0.94,0.281 -1.443,0.271Zm0.945,-7.111c-0.864,-0.039 -1.47,0.483 -1.816,1.567l-0.198,0.711l3.04,0.007l0.036,-0.191c0.029,-0.224 0.044,-0.459 0.044,-0.703c-0.019,-0.888 -0.388,-1.352 -1.106,-1.391Z" style="fill:#fff;fill-rule:nonzero;"/><path d="M459.898,147.75l-1.267,0l1.377,-7.925l1.267,0l-1.377,7.925Zm0.403,-10.02c0.009,-0.209 0.078,-0.393 0.205,-0.549c0.127,-0.156 0.3,-0.239 0.52,-0.249c0.21,-0.01 0.383,0.061 0.52,0.213c0.136,0.151 0.2,0.339 0.19,0.563c-0.01,0.215 -0.079,0.4 -0.209,0.553c-0.129,0.154 -0.304,0.234 -0.523,0.239c-0.215,0.009 -0.388,-0.062 -0.52,-0.213c-0.132,-0.151 -0.193,-0.337 -0.183,-0.557Z" style="fill:#fff;fill-rule:nonzero;"/><path d="M466.328,141.034c-0.21,-0.044 -0.398,-0.066 -0.564,-0.066c-0.639,0 -1.167,0.368 -1.582,1.106l-0.981,5.676l-1.267,0l1.377,-7.925l1.223,-0.007l-0.176,0.813c0.464,-0.659 0.987,-0.982 1.568,-0.967c0.117,0.005 0.297,0.042 0.542,0.11l-0.14,1.26Z" style="fill:#fff;fill-rule:nonzero;"/><path d="M475.601,147.75l-5.794,0l0.162,-1.033l3.823,-4.321c0.493,-0.566 0.852,-1.091 1.076,-1.575c0.225,-0.483 0.318,-0.993 0.279,-1.53c-0.034,-0.376 -0.147,-0.676 -0.337,-0.898c-0.191,-0.222 -0.442,-0.34 -0.755,-0.355c-0.532,-0.015 -0.968,0.173 -1.307,0.564c-0.339,0.391 -0.553,0.93 -0.641,1.619l-1.245,0.007c0.098,-0.986 0.443,-1.786 1.036,-2.399c0.594,-0.612 1.335,-0.909 2.223,-0.89c0.767,0.02 1.364,0.291 1.791,0.813c0.427,0.523 0.604,1.187 0.531,1.993c-0.088,0.937 -0.576,1.948 -1.465,3.032l-0.52,0.615l-2.922,3.252l4.241,0l-0.176,1.106Z" style="fill:#fff;fill-rule:nonzero;"/><path d="M479.886,147.904c-1.348,-0.034 -2.073,-0.943 -2.176,-2.725c-0.034,-0.625 0.01,-1.352 0.132,-2.182l0.278,-1.846c0.259,-1.514 0.669,-2.599 1.231,-3.256c0.561,-0.656 1.284,-0.975 2.168,-0.956c1.348,0.035 2.073,0.921 2.175,2.659c0.029,0.518 -0.002,1.177 -0.095,1.978l-0.337,2.212c-0.259,1.46 -0.671,2.518 -1.238,3.175c-0.566,0.656 -1.279,0.97 -2.138,0.941Zm2.607,-7.8c0.029,-0.704 -0.046,-1.216 -0.227,-1.539c-0.181,-0.322 -0.459,-0.495 -0.835,-0.52c-1.04,-0.058 -1.709,0.86 -2.007,2.754l-0.403,2.725c-0.063,0.464 -0.1,0.842 -0.11,1.135c-0.053,1.397 0.298,2.11 1.055,2.139c1.026,0.054 1.69,-0.855 1.992,-2.725l0.374,-2.475c0.093,-0.625 0.146,-1.123 0.161,-1.494Z" style="fill:#fff;fill-rule:nonzero;"/><path d="M486.909,141.759l0.77,0.014c0.629,-0.009 1.124,-0.247 1.483,-0.714c0.359,-0.466 0.504,-1.075 0.435,-1.827c-0.034,-0.376 -0.148,-0.668 -0.344,-0.875c-0.195,-0.208 -0.456,-0.314 -0.783,-0.319c-0.43,-0.01 -0.794,0.143 -1.092,0.458c-0.298,0.315 -0.493,0.775 -0.586,1.38l-1.245,0.008c0.083,-0.864 0.402,-1.575 0.956,-2.132c0.554,-0.556 1.237,-0.83 2.047,-0.82c0.518,0.01 0.96,0.143 1.326,0.399c0.366,0.257 0.635,0.609 0.805,1.059c0.171,0.449 0.232,0.952 0.184,1.508c-0.049,0.528 -0.226,1 -0.531,1.418c-0.306,0.417 -0.7,0.75 -1.183,0.999c0.4,0.206 0.691,0.517 0.871,0.934c0.181,0.418 0.247,0.91 0.198,1.476c-0.088,0.952 -0.421,1.724 -1,2.315c-0.578,0.59 -1.295,0.876 -2.149,0.856c-0.777,-0.019 -1.383,-0.302 -1.82,-0.849c-0.437,-0.547 -0.634,-1.25 -0.59,-2.11l1.267,0c-0.039,0.582 0.05,1.033 0.267,1.355c0.218,0.323 0.534,0.489 0.949,0.499c0.503,0.014 0.918,-0.164 1.245,-0.535c0.327,-0.371 0.52,-0.874 0.579,-1.509c0.058,-0.576 -0.031,-1.028 -0.268,-1.355c-0.237,-0.327 -0.594,-0.5 -1.073,-0.52l-0.901,-0.007l0.183,-1.106Z" style="fill:#fff;fill-rule:nonzero;"/><path d="M494.402,147.904c-1.347,-0.034 -2.073,-0.943 -2.175,-2.725c-0.034,-0.625 0.01,-1.352 0.132,-2.182l0.278,-1.846c0.259,-1.514 0.669,-2.599 1.23,-3.256c0.562,-0.656 1.285,-0.975 2.168,-0.956c1.348,0.035 2.073,0.921 2.176,2.659c0.029,0.518 -0.003,1.177 -0.095,1.978l-0.337,2.212c-0.259,1.46 -0.672,2.518 -1.238,3.175c-0.567,0.656 -1.279,0.97 -2.139,0.941Zm2.608,-7.8c0.029,-0.704 -0.047,-1.216 -0.227,-1.539c-0.181,-0.322 -0.459,-0.495 -0.835,-0.52c-1.04,-0.058 -1.709,0.86 -2.007,2.754l-0.403,2.725c-0.064,0.464 -0.1,0.842 -0.11,1.135c-0.054,1.397 0.298,2.11 1.055,2.139c1.025,0.054 1.689,-0.855 1.992,-2.725l0.373,-2.475c0.093,-0.625 0.147,-1.123 0.162,-1.494Z" style="fill:#fff;fill-rule:nonzero;"/><path d="M505.645,137.906l-0.337,1.919l1.164,0l-0.183,1.048l-1.157,0l-0.835,4.929l-0.014,0.293c-0.02,0.415 0.129,0.622 0.446,0.622c0.117,0.005 0.293,-0.019 0.528,-0.073l-0.11,1.106c-0.274,0.098 -0.55,0.142 -0.828,0.132c-0.444,0 -0.779,-0.183 -1.003,-0.549c-0.225,-0.367 -0.308,-0.884 -0.249,-1.553l0.805,-4.907l-1.179,0l0.191,-1.048l1.164,0l0.337,-1.919l1.26,0Z" style="fill:#fff;fill-rule:nonzero;"/><path d="M510.713,147.75c-0.029,-0.146 -0.041,-0.291 -0.036,-0.432l0.029,-0.432c-0.562,0.678 -1.167,1.018 -1.817,1.018c-0.634,0 -1.129,-0.206 -1.483,-0.619c-0.354,-0.413 -0.511,-0.958 -0.472,-1.637c0.054,-0.82 0.392,-1.477 1.014,-1.97c0.623,-0.493 1.44,-0.74 2.45,-0.74l0.879,0l0.125,-0.842c0.088,-0.874 -0.242,-1.311 -0.989,-1.311c-0.386,0 -0.707,0.113 -0.963,0.34c-0.257,0.227 -0.419,0.524 -0.487,0.89l-1.253,0.007c0.064,-0.668 0.368,-1.23 0.912,-1.684c0.545,-0.454 1.185,-0.676 1.923,-0.667c0.713,0.01 1.261,0.229 1.644,0.656c0.383,0.427 0.538,1.024 0.465,1.791l-0.644,3.903c-0.044,0.279 -0.061,0.545 -0.052,0.799l0.044,0.805l-0.014,0.125l-1.275,0Zm-1.56,-1.018c0.635,0 1.182,-0.31 1.641,-0.93l0.329,-1.897l-0.578,-0.008c-0.498,0 -0.94,0.092 -1.326,0.275c-0.386,0.183 -0.658,0.437 -0.817,0.762c-0.158,0.325 -0.213,0.677 -0.164,1.058c0.063,0.493 0.368,0.74 0.915,0.74Z" style="fill:#fff;fill-rule:nonzero;"/><path d="M518.089,141.034c-0.21,-0.044 -0.398,-0.066 -0.564,-0.066c-0.64,0 -1.167,0.368 -1.582,1.106l-0.982,5.676l-1.267,0l1.377,-7.925l1.223,-0.007l-0.176,0.813c0.464,-0.659 0.987,-0.982 1.568,-0.967c0.117,0.005 0.298,0.042 0.542,0.11l-0.139,1.26Z" style="fill:#fff;fill-rule:nonzero;"/><path d="M521.649,139.679c0.776,0.019 1.335,0.366 1.677,1.04l0.264,-0.894l1.149,0l-1.355,7.991c-0.083,0.625 -0.267,1.174 -0.552,1.648c-0.286,0.473 -0.656,0.832 -1.11,1.077c-0.454,0.244 -0.972,0.356 -1.553,0.336c-0.415,-0.009 -0.832,-0.111 -1.252,-0.304c-0.42,-0.192 -0.76,-0.438 -1.018,-0.736l0.6,-0.871c0.474,0.517 1.013,0.786 1.619,0.805c0.532,0.02 0.97,-0.129 1.315,-0.446c0.344,-0.318 0.572,-0.796 0.684,-1.436l0.191,-0.923c-0.523,0.64 -1.133,0.95 -1.831,0.93c-0.679,-0.009 -1.195,-0.273 -1.549,-0.791c-0.354,-0.517 -0.526,-1.228 -0.517,-2.131c0,-0.386 0.047,-0.913 0.14,-1.582c0.17,-1.225 0.516,-2.157 1.036,-2.794c0.52,-0.637 1.207,-0.944 2.062,-0.919Zm-1.978,5.605c0.025,0.97 0.425,1.463 1.201,1.477c0.586,0.015 1.111,-0.314 1.575,-0.987l0.681,-3.972c-0.254,-0.625 -0.659,-0.949 -1.216,-0.973c-1.172,-0.044 -1.872,0.819 -2.102,2.589c-0.112,0.854 -0.158,1.475 -0.139,1.866Z" style="fill:#fff;fill-rule:nonzero;"/><path d="M528.255,147.896c-0.889,-0.009 -1.553,-0.329 -1.992,-0.959c-0.44,-0.63 -0.601,-1.489 -0.483,-2.578l0.095,-0.784c0.151,-1.23 0.526,-2.193 1.124,-2.889c0.598,-0.696 1.359,-1.032 2.281,-1.007c0.752,0.019 1.318,0.277 1.696,0.772c0.378,0.496 0.558,1.193 0.538,2.091l-0.066,0.879l-0.109,0.755l-4.248,-0.008c-0.064,0.44 -0.093,0.784 -0.088,1.033c0.009,0.493 0.131,0.88 0.366,1.161c0.234,0.281 0.569,0.424 1.003,0.429c0.313,0.009 0.622,-0.053 0.927,-0.187c0.305,-0.135 0.626,-0.37 0.963,-0.707l0.593,0.828c-0.312,0.41 -0.698,0.71 -1.157,0.9c-0.459,0.191 -0.94,0.281 -1.443,0.271Zm0.945,-7.111c-0.864,-0.039 -1.47,0.483 -1.816,1.567l-0.198,0.711l3.039,0.007l0.037,-0.191c0.029,-0.224 0.044,-0.459 0.044,-0.703c-0.02,-0.888 -0.388,-1.352 -1.106,-1.391Z" style="fill:#fff;fill-rule:nonzero;"/><path d="M535.55,137.906l-0.337,1.919l1.165,0l-0.183,1.048l-1.158,0l-0.835,4.929l-0.014,0.293c-0.02,0.415 0.129,0.622 0.446,0.622c0.118,0.005 0.293,-0.019 0.528,-0.073l-0.11,1.106c-0.273,0.098 -0.549,0.142 -0.828,0.132c-0.444,0 -0.778,-0.183 -1.003,-0.549c-0.225,-0.367 -0.308,-0.884 -0.249,-1.553l0.806,-4.907l-1.18,0l0.191,-1.048l1.164,0l0.337,-1.919l1.26,0Z" style="fill:#fff;fill-rule:nonzero;"/><path d="M540.684,145.663c0.064,-0.464 -0.195,-0.85 -0.776,-1.158l-0.982,-0.512c-0.507,-0.284 -0.863,-0.584 -1.065,-0.901c-0.203,-0.318 -0.292,-0.686 -0.268,-1.106c0.04,-0.669 0.313,-1.223 0.821,-1.663c0.508,-0.439 1.128,-0.654 1.86,-0.644c0.708,0.019 1.262,0.252 1.663,0.699c0.4,0.447 0.586,1.017 0.556,1.71l-1.252,0c0.01,-0.395 -0.078,-0.706 -0.264,-0.933c-0.185,-0.228 -0.444,-0.346 -0.776,-0.356c-0.376,0 -0.686,0.107 -0.93,0.319c-0.244,0.212 -0.391,0.487 -0.44,0.824c-0.058,0.395 0.135,0.72 0.579,0.974l1.238,0.63c0.913,0.508 1.345,1.182 1.296,2.021c-0.049,0.718 -0.337,1.291 -0.864,1.718c-0.528,0.427 -1.17,0.631 -1.926,0.611c-0.728,-0.009 -1.319,-0.247 -1.773,-0.714c-0.454,-0.466 -0.666,-1.068 -0.637,-1.805l1.274,0.007c-0.009,0.459 0.091,0.807 0.301,1.044c0.21,0.237 0.507,0.355 0.893,0.355c0.405,0 0.741,-0.102 1.007,-0.307c0.266,-0.205 0.421,-0.476 0.465,-0.813Z" style="fill:#fff;fill-rule:nonzero;"/><path d="M547.181,143.436c0.161,-1.138 0.55,-2.054 1.168,-2.75c0.618,-0.696 1.398,-1.032 2.34,-1.007c0.586,0.014 1.074,0.184 1.465,0.509c0.391,0.324 0.67,0.772 0.839,1.344c0.168,0.571 0.213,1.201 0.135,1.889l-0.088,0.747c-0.161,1.133 -0.552,2.044 -1.172,2.732c-0.62,0.689 -1.399,1.021 -2.336,0.996c-0.586,-0.014 -1.074,-0.183 -1.465,-0.505c-0.391,-0.322 -0.67,-0.769 -0.839,-1.34c-0.168,-0.572 -0.213,-1.199 -0.135,-1.883l0.088,-0.732Zm1.135,1.267c-0.015,0.654 0.087,1.162 0.304,1.524c0.217,0.361 0.546,0.551 0.985,0.571c0.567,0.024 1.035,-0.177 1.406,-0.604c0.372,-0.428 0.621,-1.069 0.748,-1.923l0.109,-0.857l0.037,-0.527c0.015,-0.659 -0.089,-1.17 -0.311,-1.531c-0.222,-0.361 -0.551,-0.552 -0.985,-0.571c-0.577,-0.025 -1.056,0.213 -1.44,0.714c-0.383,0.5 -0.631,1.195 -0.743,2.084l-0.088,0.725l-0.022,0.395Z" style="fill:#fff;fill-rule:nonzero;"/><path d="M556.6,139.818l-0.169,0.864c0.577,-0.679 1.231,-1.013 1.963,-1.003c0.503,0.005 0.902,0.175 1.198,0.512c0.295,0.337 0.462,0.796 0.501,1.377c0.02,0.337 0.013,0.667 -0.021,0.989l-0.865,5.193l-1.26,0l0.872,-5.215l0.029,-0.578c0,-0.748 -0.307,-1.128 -0.922,-1.143c-0.503,-0.015 -0.972,0.271 -1.407,0.857l-0.219,0.315l-0.997,5.764l-1.267,0l1.377,-7.925l1.187,-0.007Z" style="fill:#fff;fill-rule:nonzero;"/><path d="M567.418,146.805c0.415,0.015 0.764,-0.115 1.047,-0.388c0.283,-0.273 0.481,-0.659 0.593,-1.157l1.194,-0.008c-0.112,0.782 -0.442,1.424 -0.989,1.927c-0.546,0.503 -1.186,0.744 -1.919,0.725c-0.698,-0.015 -1.254,-0.225 -1.669,-0.63c-0.416,-0.405 -0.665,-0.974 -0.748,-1.707c-0.048,-0.439 -0.046,-0.881 0.008,-1.325l0.102,-0.799c0.161,-1.235 0.539,-2.177 1.132,-2.827c0.593,-0.649 1.366,-0.962 2.318,-0.937c0.732,0.019 1.3,0.288 1.703,0.805c0.403,0.518 0.587,1.209 0.553,2.073l-1.194,-0.007c0.029,-1.148 -0.349,-1.736 -1.135,-1.765c-1.148,-0.044 -1.841,0.774 -2.08,2.453c-0.152,1.04 -0.213,1.748 -0.183,2.124c0.048,0.948 0.471,1.429 1.267,1.443Z" style="fill:#fff;fill-rule:nonzero;"/><path d="M572.72,147.75l-1.267,0l1.956,-11.25l1.267,0l-1.956,11.25Z" style="fill:#fff;fill-rule:nonzero;"/><path d="M576.126,147.75l-1.267,0l1.377,-7.925l1.267,0l-1.377,7.925Zm0.403,-10.02c0.01,-0.209 0.078,-0.393 0.205,-0.549c0.127,-0.156 0.3,-0.239 0.52,-0.249c0.21,-0.01 0.383,0.061 0.52,0.213c0.137,0.151 0.2,0.339 0.191,0.563c-0.01,0.215 -0.08,0.4 -0.209,0.553c-0.13,0.154 -0.304,0.234 -0.524,0.239c-0.215,0.009 -0.388,-0.062 -0.52,-0.213c-0.132,-0.151 -0.193,-0.337 -0.183,-0.557Z" style="fill:#fff;fill-rule:nonzero;"/><path d="M580.726,139.818l-0.154,0.74c0.562,-0.606 1.211,-0.899 1.948,-0.879c0.386,0.009 0.724,0.11 1.015,0.3c0.29,0.19 0.496,0.471 0.619,0.842c0.629,-0.776 1.35,-1.159 2.16,-1.15c0.532,0.015 0.952,0.183 1.26,0.506c0.308,0.322 0.486,0.771 0.535,1.347c0.029,0.337 0.026,0.677 -0.008,1.018l-0.871,5.208l-1.253,0l0.865,-5.222l0.021,-0.615c-0.009,-0.347 -0.101,-0.617 -0.274,-0.81c-0.174,-0.193 -0.421,-0.289 -0.744,-0.289c-0.385,-0.01 -0.732,0.146 -1.04,0.469c-0.307,0.322 -0.495,0.705 -0.564,1.15l0,0.036l-0.9,5.281l-1.275,0l0.872,-5.215c0.019,-0.195 0.024,-0.395 0.014,-0.6c-0.034,-0.718 -0.366,-1.089 -0.996,-1.114c-0.6,-0.009 -1.101,0.318 -1.501,0.982l-1.026,5.947l-1.259,0l1.377,-7.925l1.179,-0.007Z" style="fill:#fff;fill-rule:nonzero;"/><path d="M593.25,147.75c-0.029,-0.146 -0.041,-0.291 -0.036,-0.432l0.029,-0.432c-0.562,0.678 -1.167,1.018 -1.817,1.018c-0.634,0 -1.129,-0.206 -1.483,-0.619c-0.354,-0.413 -0.511,-0.958 -0.472,-1.637c0.054,-0.82 0.392,-1.477 1.014,-1.97c0.623,-0.493 1.44,-0.74 2.45,-0.74l0.879,0l0.125,-0.842c0.088,-0.874 -0.242,-1.311 -0.989,-1.311c-0.386,0 -0.707,0.113 -0.963,0.34c-0.257,0.227 -0.419,0.524 -0.487,0.89l-1.253,0.007c0.064,-0.668 0.368,-1.23 0.912,-1.684c0.545,-0.454 1.185,-0.676 1.923,-0.667c0.713,0.01 1.261,0.229 1.644,0.656c0.383,0.427 0.538,1.024 0.465,1.791l-0.644,3.903c-0.044,0.279 -0.061,0.545 -0.052,0.799l0.044,0.805l-0.014,0.125l-1.275,0Zm-1.56,-1.018c0.635,0 1.182,-0.31 1.641,-0.93l0.329,-1.897l-0.578,-0.008c-0.498,0 -0.94,0.092 -1.326,0.275c-0.386,0.183 -0.658,0.437 -0.817,0.762c-0.158,0.325 -0.213,0.677 -0.164,1.058c0.063,0.493 0.368,0.74 0.915,0.74Z" style="fill:#fff;fill-rule:nonzero;"/><path d="M599.6,137.906l-0.337,1.919l1.165,0l-0.183,1.048l-1.157,0l-0.835,4.929l-0.015,0.293c-0.02,0.415 0.129,0.622 0.447,0.622c0.117,0.005 0.293,-0.019 0.527,-0.073l-0.11,1.106c-0.273,0.098 -0.549,0.142 -0.827,0.132c-0.445,0 -0.779,-0.183 -1.004,-0.549c-0.224,-0.367 -0.307,-0.884 -0.249,-1.553l0.806,-4.907l-1.179,0l0.19,-1.048l1.165,0l0.337,-1.919l1.259,0Z" style="fill:#fff;fill-rule:nonzero;"/><path d="M603.563,147.896c-0.889,-0.009 -1.553,-0.329 -1.992,-0.959c-0.44,-0.63 -0.601,-1.489 -0.484,-2.578l0.095,-0.784c0.152,-1.23 0.526,-2.193 1.125,-2.889c0.598,-0.696 1.358,-1.032 2.281,-1.007c0.752,0.019 1.317,0.277 1.696,0.772c0.378,0.496 0.558,1.193 0.538,2.091l-0.066,0.879l-0.11,0.755l-4.248,-0.008c-0.063,0.44 -0.093,0.784 -0.088,1.033c0.01,0.493 0.132,0.88 0.366,1.161c0.235,0.281 0.569,0.424 1.004,0.429c0.312,0.009 0.621,-0.053 0.926,-0.187c0.306,-0.135 0.627,-0.37 0.964,-0.707l0.593,0.828c-0.313,0.41 -0.698,0.71 -1.157,0.9c-0.459,0.191 -0.94,0.281 -1.443,0.271Zm0.945,-7.111c-0.865,-0.039 -1.47,0.483 -1.817,1.567l-0.198,0.711l3.04,0.007l0.037,-0.191c0.029,-0.224 0.043,-0.459 0.043,-0.703c-0.019,-0.888 -0.388,-1.352 -1.105,-1.391Z" style="fill:#fff;fill-rule:nonzero;"/><path d="M614.959,147.75c-0.029,-0.146 -0.041,-0.291 -0.036,-0.432l0.029,-0.432c-0.562,0.678 -1.167,1.018 -1.817,1.018c-0.634,0 -1.129,-0.206 -1.483,-0.619c-0.354,-0.413 -0.511,-0.958 -0.472,-1.637c0.054,-0.82 0.392,-1.477 1.014,-1.97c0.623,-0.493 1.44,-0.74 2.45,-0.74l0.879,0l0.125,-0.842c0.088,-0.874 -0.242,-1.311 -0.989,-1.311c-0.386,0 -0.707,0.113 -0.963,0.34c-0.257,0.227 -0.419,0.524 -0.487,0.89l-1.253,0.007c0.064,-0.668 0.368,-1.23 0.912,-1.684c0.545,-0.454 1.185,-0.676 1.923,-0.667c0.713,0.01 1.261,0.229 1.644,0.656c0.383,0.427 0.538,1.024 0.465,1.791l-0.644,3.903c-0.044,0.279 -0.061,0.545 -0.052,0.799l0.044,0.805l-0.014,0.125l-1.275,0Zm-1.56,-1.018c0.635,0 1.182,-0.31 1.641,-0.93l0.329,-1.897l-0.578,-0.008c-0.498,0 -0.94,0.092 -1.326,0.275c-0.386,0.183 -0.658,0.437 -0.817,0.762c-0.158,0.325 -0.213,0.677 -0.164,1.058c0.063,0.493 0.368,0.74 0.915,0.74Z" style="fill:#fff;fill-rule:nonzero;"/><path d="M620.504,139.818l-0.169,0.864c0.576,-0.679 1.231,-1.013 1.963,-1.003c0.503,0.005 0.902,0.175 1.198,0.512c0.295,0.337 0.462,0.796 0.501,1.377c0.02,0.337 0.012,0.667 -0.022,0.989l-0.864,5.193l-1.26,0l0.872,-5.215l0.029,-0.578c0,-0.748 -0.307,-1.128 -0.923,-1.143c-0.503,-0.015 -0.971,0.271 -1.406,0.857l-0.22,0.315l-0.996,5.764l-1.267,0l1.377,-7.925l1.187,-0.007Z" style="fill:#fff;fill-rule:nonzero;"/><path d="M628.648,139.686c0.728,0.02 1.27,0.327 1.626,0.923l0.762,-4.109l1.267,0l-1.948,11.25l-1.15,0l0.139,-0.85c-0.522,0.684 -1.15,1.016 -1.882,0.996c-0.66,-0.009 -1.169,-0.266 -1.527,-0.769c-0.359,-0.502 -0.539,-1.223 -0.539,-2.16c0,-0.435 0.056,-1.011 0.169,-1.729c0.112,-0.717 0.285,-1.325 0.52,-1.823c0.556,-1.187 1.411,-1.763 2.563,-1.729Zm-1.992,5.596c0.024,0.971 0.427,1.465 1.208,1.479c0.279,0.01 0.545,-0.06 0.799,-0.209c0.254,-0.148 0.51,-0.404 0.769,-0.765l0.688,-4.014c-0.244,-0.61 -0.652,-0.927 -1.223,-0.952c-1.157,-0.058 -1.855,0.791 -2.095,2.549c-0.117,0.859 -0.166,1.497 -0.146,1.912Z" style="fill:#fff;fill-rule:nonzero;"/><path d="M638.712,147.896c-0.889,-0.009 -1.553,-0.329 -1.993,-0.959c-0.439,-0.63 -0.6,-1.489 -0.483,-2.578l0.095,-0.784c0.152,-1.23 0.526,-2.193 1.125,-2.889c0.598,-0.696 1.358,-1.032 2.281,-1.007c0.752,0.019 1.317,0.277 1.696,0.772c0.378,0.496 0.557,1.193 0.538,2.091l-0.066,0.879l-0.11,0.755l-4.248,-0.008c-0.063,0.44 -0.093,0.784 -0.088,1.033c0.01,0.493 0.132,0.88 0.366,1.161c0.235,0.281 0.569,0.424 1.004,0.429c0.312,0.009 0.621,-0.053 0.926,-0.187c0.306,-0.135 0.627,-0.37 0.963,-0.707l0.594,0.828c-0.313,0.41 -0.699,0.71 -1.157,0.9c-0.459,0.191 -0.94,0.281 -1.443,0.271Zm0.944,-7.111c-0.864,-0.039 -1.469,0.483 -1.816,1.567l-0.198,0.711l3.04,0.007l0.036,-0.191c0.03,-0.224 0.044,-0.459 0.044,-0.703c-0.019,-0.888 -0.388,-1.352 -1.106,-1.391Z" style="fill:#fff;fill-rule:nonzero;"/><path d="M645.201,139.818l-0.169,0.864c0.577,-0.679 1.231,-1.013 1.963,-1.003c0.503,0.005 0.902,0.175 1.198,0.512c0.295,0.337 0.462,0.796 0.502,1.377c0.019,0.337 0.012,0.667 -0.022,0.989l-0.865,5.193l-1.259,0l0.871,-5.215l0.029,-0.578c0,-0.748 -0.307,-1.128 -0.922,-1.143c-0.503,-0.015 -0.972,0.271 -1.407,0.857l-0.219,0.315l-0.996,5.764l-1.268,0l1.377,-7.925l1.187,-0.007Z" style="fill:#fff;fill-rule:nonzero;"/><path d="M652.708,147.896c-0.888,-0.009 -1.553,-0.329 -1.992,-0.959c-0.439,-0.63 -0.601,-1.489 -0.483,-2.578l0.095,-0.784c0.151,-1.23 0.526,-2.193 1.124,-2.889c0.598,-0.696 1.359,-1.032 2.282,-1.007c0.752,0.019 1.317,0.277 1.695,0.772c0.379,0.496 0.558,1.193 0.538,2.091l-0.065,0.879l-0.11,0.755l-4.248,-0.008c-0.064,0.44 -0.093,0.784 -0.088,1.033c0.01,0.493 0.132,0.88 0.366,1.161c0.234,0.281 0.569,0.424 1.003,0.429c0.313,0.009 0.622,-0.053 0.927,-0.187c0.305,-0.135 0.626,-0.37 0.963,-0.707l0.593,0.828c-0.312,0.41 -0.698,0.71 -1.157,0.9c-0.459,0.191 -0.94,0.281 -1.443,0.271Zm0.945,-7.111c-0.864,-0.039 -1.47,0.483 -1.816,1.567l-0.198,0.711l3.039,0.007l0.037,-0.191c0.029,-0.224 0.044,-0.459 0.044,-0.703c-0.02,-0.888 -0.388,-1.352 -1.106,-1.391Z" style="fill:#fff;fill-rule:nonzero;"/><path d="M661.029,141.034c-0.21,-0.044 -0.398,-0.066 -0.564,-0.066c-0.64,0 -1.167,0.368 -1.582,1.106l-0.982,5.676l-1.267,0l1.377,-7.925l1.223,-0.007l-0.176,0.813c0.464,-0.659 0.987,-0.982 1.568,-0.967c0.117,0.005 0.298,0.042 0.542,0.11l-0.139,1.26Z" style="fill:#fff;fill-rule:nonzero;"/><path d="M664.588,139.679c0.776,0.019 1.335,0.366 1.677,1.04l0.264,-0.894l1.149,0l-1.355,7.991c-0.083,0.625 -0.267,1.174 -0.552,1.648c-0.286,0.473 -0.656,0.832 -1.11,1.077c-0.454,0.244 -0.972,0.356 -1.553,0.336c-0.415,-0.009 -0.832,-0.111 -1.252,-0.304c-0.42,-0.192 -0.76,-0.438 -1.018,-0.736l0.6,-0.871c0.474,0.517 1.013,0.786 1.619,0.805c0.532,0.02 0.97,-0.129 1.315,-0.446c0.344,-0.318 0.572,-0.796 0.684,-1.436l0.191,-0.923c-0.523,0.64 -1.133,0.95 -1.831,0.93c-0.679,-0.009 -1.195,-0.273 -1.549,-0.791c-0.354,-0.517 -0.526,-1.228 -0.517,-2.131c0,-0.386 0.047,-0.913 0.14,-1.582c0.17,-1.225 0.516,-2.157 1.036,-2.794c0.52,-0.637 1.207,-0.944 2.062,-0.919Zm-1.978,5.605c0.025,0.97 0.425,1.463 1.201,1.477c0.586,0.015 1.111,-0.314 1.575,-0.987l0.681,-3.972c-0.254,-0.625 -0.659,-0.949 -1.216,-0.973c-1.172,-0.044 -1.872,0.819 -2.102,2.589c-0.112,0.854 -0.158,1.475 -0.139,1.866Z" style="fill:#fff;fill-rule:nonzero;"/><path d="M670.696,145.575l2.402,-5.75l1.385,0l-4.102,9.155c-0.278,0.665 -0.609,1.166 -0.992,1.506c-0.384,0.339 -0.8,0.501 -1.249,0.487c-0.151,-0.005 -0.391,-0.049 -0.718,-0.132l0.125,-1.099l0.271,0.044c0.639,0.029 1.137,-0.298 1.494,-0.981l0.534,-1.201l-0.893,-7.779l1.333,0l0.41,5.75Z" style="fill:#fff;fill-rule:nonzero;"/></g></g></svg>