<svg xmlns="http://www.w3.org/2000/svg" viewBox="0 0 1336.76 180.68"><defs><style>.cls-1,.cls-2,.cls-8{fill:#fff;}.cls-1{stroke:#fff;stroke-miterlimit:10;}.cls-2{font-size:21px;font-family:Lato-Italic, Lato;font-style:italic;}.cls-3{letter-spacing:0.09em;}.cls-4{letter-spacing:0.09em;}.cls-5{letter-spacing:-0.02em;}.cls-6{letter-spacing:0em;}.cls-7{letter-spacing:0.09em;}.cls-8{font-size:46px;font-family:RobotoCondensed-Bold, Roboto Condensed;font-weight:700;}.cls-9{letter-spacing:0.01em;}.cls-10{letter-spacing:-0.06em;}.cls-11{letter-spacing:-0.03em;}</style></defs><title>logo-page</title><g id="Layer_2" data-name="Layer 2"><g id="Layer_1-2" data-name="Layer 1"><line class="cls-1" x1="13" y1="37.18" x2="13" y2="98.18"/><line class="cls-1" y1="85.18" x2="125" y2="85.18"/><line class="cls-1" x1="1323.76" y1="61" x2="1323.76"/><line class="cls-1" x1="1336.76" y1="13" x2="1211.76" y2="13"/><text class="cls-2" transform="translate(710.49 51.86)">Find<tspan class="cls-3" x="38.14" y="0"> </tspan><tspan x="44.08" y="0">information</tspan><tspan class="cls-4" x="145.48" y="0"> </tspan><tspan x="151.42" y="0">on</tspan><tspan class="cls-3" x="173.02" y="0"> </tspan><tspan x="178.96" y="0">the</tspan><tspan class="cls-3" x="206.96" y="0"> </tspan><tspan x="212.9" y="0">EU</tspan><tspan class="cls-4" x="238.21" y="0"> </tspan><tspan x="244.15" y="0">and</tspan><tspan class="cls-3" x="276.85" y="0"> </tspan><tspan x="282.79" y="0">its</tspan><tspan class="cls-3" x="303.27" y="0"> </tspan><tspan x="309.21" y="0">Member</tspan><tspan class="cls-4" x="381.23" y="0"> </tspan><tspan x="387.17" y="0">States’</tspan><tspan class="cls-3" x="444.41" y="0"> </tspan><tspan x="450.35" y="0">p</tspan><tspan class="cls-5" x="461.23" y="0">r</tspan><tspan class="cls-6" x="468.18" y="0">og</tspan><tspan class="cls-5" x="488.48" y="0">r</tspan><tspan x="495.44" y="0">ess</tspan><tspan class="cls-4" x="521.45" y="0"> </tspan><tspan x="527.4" y="0">in</tspan><tspan class="cls-7" x="543.56" y="0"> </tspan><tspan x="549.5" y="0">their </tspan><tspan x="0.03" y="25.2">2030 targets on climate and energy</tspan></text><text class="cls-8" transform="translate(37.34 70.84)">CLI<tspan class="cls-9" x="60.69" y="0">M</tspan><tspan class="cls-10" x="95.98" y="0">A</tspan><tspan x="120.75" y="0">TE AND ENERGY IN</tspan><tspan class="cls-11" x="472.98" y="0"> </tspan><tspan x="482.24" y="0">THE EU</tspan></text><line class="cls-1" x1="658.67" y1="89.85" x2="694.5" y2="16.68"/></g></g></svg>