<?xml version="1.0" encoding="UTF-8" standalone="no"?><!DOCTYPE svg PUBLIC "-//W3C//DTD SVG 1.1//EN" "http://www.w3.org/Graphics/SVG/1.1/DTD/svg11.dtd"><svg width="100%" height="100%" viewBox="0 0 1518 399" version="1.1" xmlns="http://www.w3.org/2000/svg" xmlns:xlink="http://www.w3.org/1999/xlink" xml:space="preserve" xmlns:serif="http://www.serif.com/" style="fill-rule:evenodd;clip-rule:evenodd;stroke-miterlimit:10;"><rect id="Artboard1" x="0" y="0" width="1518" height="399" style="fill:none;"/><g id="Layer_1-2"><g><g><path d="M200.274,157.533c-0.33,7.457 -2.426,13.102 -6.289,16.935c-3.864,3.834 -9.314,5.75 -16.352,5.75c-7.397,0 -13.065,-2.433 -17.003,-7.299c-3.938,-4.867 -5.907,-11.807 -5.907,-20.822l0,-11.006c0,-8.984 2.036,-15.909 6.109,-20.776c4.073,-4.866 9.733,-7.3 16.981,-7.3c7.127,0 12.541,1.992 16.239,5.975c3.699,3.983 5.802,9.703 6.312,17.16l-13.252,0c-0.12,-4.612 -0.831,-7.794 -2.134,-9.546c-1.303,-1.752 -3.691,-2.628 -7.165,-2.628c-3.534,0 -6.035,1.236 -7.502,3.706c-1.468,2.471 -2.246,6.536 -2.336,12.197l0,12.353c0,6.499 0.726,10.961 2.179,13.387c1.452,2.426 3.945,3.638 7.479,3.638c3.474,0 5.87,-0.846 7.188,-2.538c1.317,-1.692 2.066,-4.754 2.246,-9.186l13.207,0Z" style="fill:#4d4d4d;fill-rule:nonzero;"/><path d="M221.612,168.359l23.179,0l0,10.961l-36.386,0l0,-65.406l13.207,0l0,54.445Z" style="fill:#4d4d4d;fill-rule:nonzero;"/><rect x="253.012" y="113.914" width="13.207" height="65.406" style="fill:#4d4d4d;fill-rule:nonzero;"/></g><path d="M294.566,113.914l12.353,47.302l12.309,-47.302l17.25,0l0,65.406l-13.252,0l0,-17.699l1.213,-27.268l-13.072,44.967l-8.985,0l-13.072,-44.967l1.213,27.268l0,17.699l-13.207,0l0,-65.406l17.25,0Z" style="fill:#4d4d4d;fill-rule:nonzero;"/><path d="M379.117,165.933l-18.014,0l-3.504,13.387l-13.971,0l20.44,-65.406l12.084,0l20.574,65.406l-14.106,0l-3.503,-13.387Zm-15.139,-11.006l12.219,0l-6.11,-23.314l-6.109,23.314Z" style="fill:#4d4d4d;fill-rule:nonzero;"/><g><path d="M439.797,124.92l-16.172,0l0,54.4l-13.252,0l0,-54.4l-15.902,0l0,-11.006l45.326,0l0,11.006Z" style="fill:#4d4d4d;fill-rule:nonzero;"/><path d="M481.17,151.019l-20.574,0l0,17.34l24.348,0l0,10.961l-37.555,0l0,-65.406l37.465,0l0,11.006l-24.258,0l0,15.453l20.574,0l0,10.646Z" style="fill:#4d4d4d;fill-rule:nonzero;"/><path d="M544.959,165.933l-18.013,0l-3.504,13.387l-13.971,0l20.439,-65.406l12.084,0l20.575,65.406l-14.106,0l-3.504,-13.387Zm-15.138,-11.006l12.218,0l-6.109,-23.314l-6.109,23.314Z" style="fill:#4d4d4d;fill-rule:nonzero;"/><path d="M614.409,179.32l-13.208,0l-19.316,-42.9l0,42.9l-13.207,0l0,-65.406l13.207,0l19.361,42.945l0,-42.945l13.163,0l0,65.406Z" style="fill:#4d4d4d;fill-rule:nonzero;"/><path d="M625.01,179.32l0,-65.406l17.295,0c7.637,0 13.724,2.426 18.261,7.277c4.537,4.852 6.85,11.5 6.94,19.945l0,10.602c0,8.595 -2.268,15.341 -6.805,20.237c-4.538,4.897 -10.789,7.345 -18.755,7.345l-16.936,0Zm13.207,-54.4l0,43.439l3.953,0c4.403,0 7.502,-1.16 9.299,-3.481c1.797,-2.321 2.74,-6.327 2.83,-12.017l0,-11.365c0,-6.11 -0.853,-10.37 -2.56,-12.78c-1.707,-2.411 -4.612,-3.677 -8.715,-3.796l-4.807,0Z" style="fill:#4d4d4d;fill-rule:nonzero;"/><path d="M731.969,151.019l-20.574,0l0,17.34l24.347,0l0,10.961l-37.554,0l0,-65.406l37.465,0l0,11.006l-24.258,0l0,15.453l20.574,0l0,10.646Z" style="fill:#4d4d4d;fill-rule:nonzero;"/><path d="M789.065,179.32l-13.207,0l-19.317,-42.9l0,42.9l-13.207,0l0,-65.406l13.207,0l19.362,42.945l0,-42.945l13.162,0l0,65.406Z" style="fill:#4d4d4d;fill-rule:nonzero;"/><path d="M833.448,151.019l-20.575,0l0,17.34l24.348,0l0,10.961l-37.555,0l0,-65.406l37.465,0l0,11.006l-24.258,0l0,15.453l20.575,0l0,10.646Z" style="fill:#4d4d4d;fill-rule:nonzero;"/><path d="M864.623,155.422l-6.558,0l0,23.898l-13.207,0l0,-65.406l21.068,0c6.619,0 11.732,1.714 15.341,5.143c3.609,3.429 5.413,8.303 5.413,14.622c0,8.685 -3.16,14.765 -9.479,18.239l11.456,26.773l0,0.629l-14.196,0l-9.838,-23.898Zm-6.558,-11.006l7.502,0c2.635,0 4.612,-0.876 5.929,-2.628c1.318,-1.752 1.977,-4.096 1.977,-7.03c0,-6.559 -2.561,-9.838 -7.682,-9.838l-7.726,0l0,19.496Z" style="fill:#4d4d4d;fill-rule:nonzero;"/><path d="M940.227,171.908c-2.546,2.755 -5.668,4.829 -9.366,6.222c-3.699,1.392 -7.749,2.088 -12.152,2.088c-7.517,0 -13.356,-2.328 -17.519,-6.985c-4.163,-4.657 -6.304,-11.433 -6.424,-20.327l0,-11.77c0,-9.014 1.969,-15.954 5.907,-20.821c3.938,-4.866 9.681,-7.3 17.228,-7.3c7.097,0 12.451,1.752 16.059,5.256c3.609,3.504 5.698,9 6.267,16.486l-12.848,0c-0.359,-4.162 -1.228,-7 -2.605,-8.512c-1.378,-1.513 -3.534,-2.269 -6.469,-2.269c-3.564,0 -6.154,1.303 -7.771,3.908c-1.618,2.606 -2.456,6.754 -2.516,12.444l0,11.859c0,5.96 0.891,10.295 2.673,13.005c1.782,2.71 4.709,4.065 8.782,4.065c2.605,0 4.717,-0.524 6.334,-1.572l1.168,-0.808l0,-11.995l-9.254,0l0,-9.972l22.506,0l0,26.998Z" style="fill:#4d4d4d;fill-rule:nonzero;"/><path d="M969.291,143.293l9.838,-29.379l14.375,0l-17.519,41.687l0,23.719l-13.387,0l0,-23.719l-17.564,-41.687l14.375,0l9.882,29.379Z" style="fill:#4d4d4d;fill-rule:nonzero;"/><rect x="1021.27" y="113.914" width="13.207" height="65.406" style="fill:#4d4d4d;fill-rule:nonzero;"/><path d="M1091.3,179.32l-13.207,0l-19.316,-42.9l0,42.9l-13.207,0l0,-65.406l13.207,0l19.361,42.945l0,-42.945l13.162,0l0,65.406Z" style="fill:#4d4d4d;fill-rule:nonzero;"/></g><g><path d="M1162.78,124.92l-16.172,0l0,54.4l-13.252,0l0,-54.4l-15.902,0l0,-11.006l45.326,0l0,11.006Z" style="fill:#4d4d4d;fill-rule:nonzero;"/><path d="M1216.23,179.32l-13.162,0l0,-27.986l-19.496,0l0,27.986l-13.207,0l0,-65.406l13.207,0l0,26.459l19.496,0l0,-26.459l13.162,0l0,65.406Z" style="fill:#4d4d4d;fill-rule:nonzero;"/><path d="M1260.62,151.019l-20.574,0l0,17.34l24.347,0l0,10.961l-37.554,0l0,-65.406l37.465,0l0,11.006l-24.258,0l0,15.453l20.574,0l0,10.646Z" style="fill:#4d4d4d;fill-rule:nonzero;"/><path d="M1326.97,151.019l-20.575,0l0,17.34l24.348,0l0,10.961l-37.555,0l0,-65.406l37.465,0l0,11.006l-24.258,0l0,15.453l20.575,0l0,10.646Z" style="fill:#4d4d4d;fill-rule:nonzero;"/><path d="M1380.87,113.914l0,45.281c-0.06,6.798 -1.932,12.002 -5.615,15.61c-3.684,3.609 -8.97,5.413 -15.858,5.413c-7.008,0 -12.361,-1.826 -16.059,-5.48c-3.699,-3.654 -5.548,-8.939 -5.548,-15.857l0,-44.967l13.297,0l0,45.011c0,3.714 0.599,6.364 1.797,7.952c1.197,1.587 3.369,2.38 6.513,2.38c3.145,0 5.301,-0.786 6.469,-2.358c1.168,-1.572 1.767,-4.155 1.797,-7.749l0,-45.236l13.207,0Z" style="fill:#4d4d4d;fill-rule:nonzero;"/></g></g><path d="M106,0l0,311" style="fill:none;fill-rule:nonzero;stroke:#4d4d4d;stroke-width:2px;"/><path d="M0,249.68l1109,0" style="fill:none;fill-rule:nonzero;stroke:#4d4d4d;stroke-width:2px;"/><g><g><path d="M166.661,286.081l-6.987,0l-1.626,9.419l-2.622,0l3.692,-21.328l10.795,0l-0.41,2.3l-8.159,0l-1.274,7.309l7.002,0l-0.411,2.3Z" style="fill:#4d4d4d;fill-rule:nonzero;"/><path d="M171.92,295.5l-2.534,0l2.754,-15.85l2.534,0l-2.754,15.85Zm0.806,-20.039c0.019,-0.42 0.156,-0.786 0.41,-1.099c0.254,-0.312 0.601,-0.478 1.04,-0.498c0.42,-0.019 0.767,0.122 1.04,0.425c0.274,0.303 0.401,0.679 0.381,1.128c-0.02,0.43 -0.159,0.798 -0.417,1.106c-0.259,0.308 -0.608,0.466 -1.048,0.476c-0.43,0.02 -0.776,-0.122 -1.04,-0.425c-0.264,-0.303 -0.386,-0.674 -0.366,-1.113Z" style="fill:#4d4d4d;fill-rule:nonzero;"/><path d="M181.119,279.636l-0.336,1.728c1.152,-1.357 2.461,-2.026 3.925,-2.007c1.006,0.01 1.805,0.352 2.395,1.026c0.591,0.674 0.926,1.592 1.004,2.754c0.039,0.674 0.024,1.333 -0.044,1.977l-1.729,10.386l-2.519,0l1.743,-10.43l0.059,-1.157c0,-1.494 -0.616,-2.256 -1.846,-2.285c-1.006,-0.029 -1.944,0.542 -2.813,1.714l-0.439,0.63l-1.992,11.528l-2.534,0l2.753,-15.85l2.373,-0.014Z" style="fill:#4d4d4d;fill-rule:nonzero;"/><path d="M197.409,279.372c1.455,0.039 2.539,0.654 3.252,1.846l1.523,-8.218l2.534,0l-3.896,22.5l-2.3,0l0.278,-1.699c-1.045,1.367 -2.3,2.031 -3.764,1.992c-1.319,-0.02 -2.337,-0.532 -3.055,-1.538c-0.717,-1.006 -1.076,-2.446 -1.076,-4.321c0,-0.87 0.112,-2.022 0.337,-3.457c0.224,-1.436 0.571,-2.652 1.04,-3.648c1.113,-2.373 2.822,-3.525 5.127,-3.457Zm-3.985,11.191c0.049,1.944 0.855,2.93 2.417,2.959c0.557,0.02 1.089,-0.119 1.597,-0.417c0.508,-0.298 1.02,-0.808 1.538,-1.531l1.377,-8.027c-0.488,-1.221 -1.304,-1.856 -2.446,-1.904c-2.315,-0.118 -3.711,1.582 -4.19,5.097c-0.234,1.719 -0.332,2.993 -0.293,3.823Z" style="fill:#4d4d4d;fill-rule:nonzero;"/><path d="M214.357,295.5l-2.534,0l2.754,-15.85l2.534,0l-2.754,15.85Zm0.805,-20.039c0.02,-0.42 0.157,-0.786 0.411,-1.099c0.254,-0.312 0.6,-0.478 1.04,-0.498c0.42,-0.019 0.766,0.122 1.04,0.425c0.273,0.303 0.4,0.679 0.381,1.128c-0.02,0.43 -0.159,0.798 -0.418,1.106c-0.259,0.308 -0.608,0.466 -1.047,0.476c-0.43,0.02 -0.777,-0.122 -1.04,-0.425c-0.264,-0.303 -0.386,-0.674 -0.367,-1.113Z" style="fill:#4d4d4d;fill-rule:nonzero;"/><path d="M223.556,279.636l-0.337,1.728c1.152,-1.357 2.461,-2.026 3.926,-2.007c1.006,0.01 1.804,0.352 2.395,1.026c0.591,0.674 0.925,1.592 1.003,2.754c0.039,0.674 0.025,1.333 -0.044,1.977l-1.728,10.386l-2.52,0l1.743,-10.43l0.059,-1.157c0,-1.494 -0.615,-2.256 -1.846,-2.285c-1.005,-0.029 -1.943,0.542 -2.812,1.714l-0.44,0.63l-1.992,11.528l-2.534,0l2.754,-15.85l2.373,-0.014Z" style="fill:#4d4d4d;fill-rule:nonzero;"/><path d="M233.766,295.5l2.388,-13.755l-2.007,0l0.366,-2.095l2.007,0l0.205,-1.567c0.234,-1.758 0.808,-3.105 1.721,-4.043c0.913,-0.937 2.078,-1.396 3.494,-1.377c0.508,0.02 1.054,0.113 1.64,0.28l-0.366,2.196c-0.39,-0.098 -0.781,-0.157 -1.172,-0.176c-1.504,0 -2.426,1.066 -2.768,3.198l-0.235,1.489l2.637,0l-0.366,2.095l-2.622,0l-2.388,13.755l-2.534,0Z" style="fill:#4d4d4d;fill-rule:nonzero;"/><path d="M243.053,286.872c0.322,-2.275 1.101,-4.109 2.337,-5.5c1.235,-1.392 2.795,-2.063 4.68,-2.015c1.172,0.03 2.148,0.369 2.929,1.018c0.782,0.65 1.341,1.546 1.678,2.688c0.337,1.143 0.427,2.403 0.271,3.78l-0.176,1.494c-0.322,2.266 -1.104,4.087 -2.344,5.464c-1.24,1.377 -2.798,2.041 -4.673,1.992c-1.172,-0.029 -2.148,-0.366 -2.929,-1.011c-0.782,-0.644 -1.341,-1.538 -1.678,-2.68c-0.337,-1.143 -0.427,-2.398 -0.271,-3.765l0.176,-1.465Zm2.271,2.534c-0.03,1.309 0.173,2.324 0.607,3.047c0.435,0.723 1.092,1.104 1.971,1.143c1.133,0.049 2.07,-0.354 2.812,-1.209c0.742,-0.854 1.24,-2.136 1.494,-3.845l0.22,-1.714l0.073,-1.055c0.03,-1.318 -0.178,-2.338 -0.622,-3.061c-0.445,-0.723 -1.101,-1.104 -1.97,-1.143c-1.153,-0.048 -2.112,0.428 -2.879,1.429c-0.766,1.001 -1.262,2.39 -1.487,4.167l-0.175,1.45l-0.044,0.791Z" style="fill:#4d4d4d;fill-rule:nonzero;"/><path d="M265.553,282.067c-0.42,-0.088 -0.796,-0.131 -1.128,-0.131c-1.279,0 -2.334,0.737 -3.164,2.211l-1.963,11.353l-2.534,0l2.754,-15.85l2.446,-0.014l-0.351,1.626c0.927,-1.319 1.972,-1.963 3.134,-1.934c0.235,0.01 0.596,0.083 1.084,0.22l-0.278,2.519Z" style="fill:#4d4d4d;fill-rule:nonzero;"/><path d="M270.885,279.636l-0.308,1.479c1.124,-1.211 2.422,-1.797 3.897,-1.758c0.771,0.02 1.448,0.22 2.029,0.601c0.581,0.381 0.993,0.942 1.238,1.685c1.259,-1.553 2.7,-2.32 4.321,-2.3c1.064,0.029 1.904,0.366 2.519,1.011c0.616,0.644 0.972,1.542 1.07,2.695c0.058,0.674 0.053,1.352 -0.015,2.036l-1.743,10.415l-2.505,0l1.729,-10.444l0.043,-1.231c-0.019,-0.693 -0.202,-1.233 -0.549,-1.618c-0.346,-0.386 -0.842,-0.579 -1.487,-0.579c-0.771,-0.02 -1.464,0.293 -2.08,0.937c-0.615,0.645 -0.991,1.412 -1.128,2.3l0,0.073l-1.801,10.562l-2.549,0l1.743,-10.43c0.039,-0.39 0.049,-0.791 0.029,-1.201c-0.068,-1.435 -0.732,-2.178 -1.992,-2.226c-1.201,-0.02 -2.202,0.634 -3.003,1.962l-2.051,11.895l-2.519,0l2.754,-15.85l2.358,-0.014Z" style="fill:#4d4d4d;fill-rule:nonzero;"/><path d="M295.934,295.5c-0.059,-0.293 -0.083,-0.581 -0.073,-0.864l0.058,-0.865c-1.123,1.358 -2.334,2.037 -3.633,2.037c-1.269,0 -2.258,-0.413 -2.966,-1.238c-0.708,-0.825 -1.023,-1.917 -0.945,-3.274c0.108,-1.641 0.784,-2.954 2.029,-3.941c1.245,-0.986 2.879,-1.479 4.9,-1.479l1.758,0l0.249,-1.685c0.176,-1.748 -0.484,-2.622 -1.978,-2.622c-0.771,0 -1.413,0.227 -1.926,0.681c-0.513,0.455 -0.837,1.048 -0.974,1.78l-2.505,0.015c0.127,-1.338 0.735,-2.461 1.824,-3.369c1.089,-0.908 2.37,-1.353 3.845,-1.333c1.426,0.019 2.522,0.456 3.289,1.311c0.766,0.854 1.076,2.048 0.93,3.581l-1.289,7.808c-0.088,0.557 -0.122,1.089 -0.103,1.597l0.088,1.611l-0.029,0.249l-2.549,0Zm-3.12,-2.036c1.269,0 2.363,-0.62 3.281,-1.86l0.659,-3.794l-1.157,-0.015c-0.996,0 -1.88,0.183 -2.651,0.549c-0.772,0.366 -1.316,0.874 -1.634,1.524c-0.317,0.649 -0.427,1.355 -0.329,2.116c0.127,0.987 0.737,1.48 1.831,1.48Z" style="fill:#4d4d4d;fill-rule:nonzero;"/><path d="M308.634,275.813l-0.674,3.837l2.329,0l-0.366,2.095l-2.314,0l-1.67,9.859l-0.029,0.585c-0.04,0.831 0.258,1.246 0.893,1.246c0.234,0.009 0.586,-0.039 1.055,-0.147l-0.22,2.212c-0.547,0.195 -1.099,0.283 -1.655,0.264c-0.889,0 -1.558,-0.367 -2.007,-1.099c-0.449,-0.732 -0.615,-1.768 -0.498,-3.105l1.611,-9.815l-2.358,0l0.381,-2.095l2.329,0l0.674,-3.837l2.519,0Z" style="fill:#4d4d4d;fill-rule:nonzero;"/><path d="M313.38,295.5l-2.534,0l2.754,-15.85l2.534,0l-2.754,15.85Zm0.806,-20.039c0.019,-0.42 0.156,-0.786 0.41,-1.099c0.254,-0.312 0.601,-0.478 1.04,-0.498c0.42,-0.019 0.767,0.122 1.04,0.425c0.274,0.303 0.401,0.679 0.381,1.128c-0.02,0.43 -0.159,0.798 -0.417,1.106c-0.259,0.308 -0.608,0.466 -1.048,0.476c-0.43,0.02 -0.776,-0.122 -1.04,-0.425c-0.264,-0.303 -0.386,-0.674 -0.366,-1.113Z" style="fill:#4d4d4d;fill-rule:nonzero;"/><path d="M318.493,286.872c0.322,-2.275 1.101,-4.109 2.336,-5.5c1.235,-1.392 2.795,-2.063 4.68,-2.015c1.172,0.03 2.149,0.369 2.93,1.018c0.781,0.65 1.34,1.546 1.677,2.688c0.337,1.143 0.427,2.403 0.271,3.78l-0.176,1.494c-0.322,2.266 -1.103,4.087 -2.343,5.464c-1.241,1.377 -2.798,2.041 -4.673,1.992c-1.172,-0.029 -2.149,-0.366 -2.93,-1.011c-0.781,-0.644 -1.34,-1.538 -1.677,-2.68c-0.337,-1.143 -0.427,-2.398 -0.271,-3.765l0.176,-1.465Zm2.27,2.534c-0.029,1.309 0.173,2.324 0.608,3.047c0.435,0.723 1.091,1.104 1.97,1.143c1.133,0.049 2.07,-0.354 2.813,-1.209c0.742,-0.854 1.24,-2.136 1.494,-3.845l0.22,-1.714l0.073,-1.055c0.029,-1.318 -0.178,-2.338 -0.623,-3.061c-0.444,-0.723 -1.101,-1.104 -1.97,-1.143c-1.152,-0.048 -2.112,0.428 -2.878,1.429c-0.767,1.001 -1.263,2.39 -1.487,4.167l-0.176,1.45l-0.044,0.791Z" style="fill:#4d4d4d;fill-rule:nonzero;"/><path d="M337.33,279.636l-0.336,1.728c1.152,-1.357 2.46,-2.026 3.925,-2.007c1.006,0.01 1.804,0.352 2.395,1.026c0.591,0.674 0.926,1.592 1.004,2.754c0.039,0.674 0.024,1.333 -0.044,1.977l-1.729,10.386l-2.519,0l1.743,-10.43l0.058,-1.157c0,-1.494 -0.615,-2.256 -1.845,-2.285c-1.006,-0.029 -1.944,0.542 -2.813,1.714l-0.439,0.63l-1.992,11.528l-2.535,0l2.754,-15.85l2.373,-0.014Z" style="fill:#4d4d4d;fill-rule:nonzero;"/><path d="M354.279,286.872c0.322,-2.275 1.101,-4.109 2.336,-5.5c1.235,-1.392 2.796,-2.063 4.68,-2.015c1.172,0.03 2.149,0.369 2.93,1.018c0.781,0.65 1.34,1.546 1.677,2.688c0.337,1.143 0.427,2.403 0.271,3.78l-0.176,1.494c-0.322,2.266 -1.103,4.087 -2.343,5.464c-1.241,1.377 -2.798,2.041 -4.673,1.992c-1.172,-0.029 -2.149,-0.366 -2.93,-1.011c-0.781,-0.644 -1.34,-1.538 -1.677,-2.68c-0.337,-1.143 -0.427,-2.398 -0.271,-3.765l0.176,-1.465Zm2.27,2.534c-0.029,1.309 0.174,2.324 0.608,3.047c0.435,0.723 1.091,1.104 1.97,1.143c1.133,0.049 2.071,-0.354 2.813,-1.209c0.742,-0.854 1.24,-2.136 1.494,-3.845l0.22,-1.714l0.073,-1.055c0.029,-1.318 -0.178,-2.338 -0.623,-3.061c-0.444,-0.723 -1.101,-1.104 -1.97,-1.143c-1.152,-0.048 -2.112,0.428 -2.878,1.429c-0.767,1.001 -1.262,2.39 -1.487,4.167l-0.176,1.45l-0.044,0.791Z" style="fill:#4d4d4d;fill-rule:nonzero;"/><path d="M373.117,279.636l-0.337,1.728c1.152,-1.357 2.461,-2.026 3.925,-2.007c1.006,0.01 1.805,0.352 2.395,1.026c0.591,0.674 0.926,1.592 1.004,2.754c0.039,0.674 0.024,1.333 -0.044,1.977l-1.729,10.386l-2.519,0l1.743,-10.43l0.059,-1.157c0,-1.494 -0.616,-2.256 -1.846,-2.285c-1.006,-0.029 -1.943,0.542 -2.813,1.714l-0.439,0.63l-1.992,11.528l-2.534,0l2.754,-15.85l2.373,-0.014Z" style="fill:#4d4d4d;fill-rule:nonzero;"/><path d="M395.763,275.813l-0.674,3.837l2.329,0l-0.366,2.095l-2.314,0l-1.67,9.859l-0.03,0.585c-0.039,0.831 0.259,1.246 0.894,1.246c0.234,0.009 0.586,-0.039 1.055,-0.147l-0.22,2.212c-0.547,0.195 -1.099,0.283 -1.655,0.264c-0.889,0 -1.558,-0.367 -2.007,-1.099c-0.449,-0.732 -0.615,-1.768 -0.498,-3.105l1.611,-9.815l-2.358,0l0.381,-2.095l2.329,0l0.674,-3.837l2.519,0Z" style="fill:#4d4d4d;fill-rule:nonzero;"/><path d="M402.648,281.291c1.181,-1.318 2.466,-1.958 3.852,-1.919c1.016,0.01 1.814,0.344 2.395,1.003c0.581,0.66 0.911,1.58 0.989,2.762c0.039,0.674 0.025,1.333 -0.044,1.977l-1.728,10.386l-2.52,0l1.743,-10.43l0.059,-1.157c0,-1.494 -0.615,-2.256 -1.846,-2.285c-1.006,-0.029 -1.943,0.542 -2.812,1.714l-0.44,0.63l-1.992,11.528l-2.534,0l3.911,-22.5l2.534,0l-1.567,8.291Z" style="fill:#4d4d4d;fill-rule:nonzero;"/><path d="M417.882,295.793c-1.777,-0.02 -3.105,-0.659 -3.984,-1.919c-0.879,-1.26 -1.201,-2.978 -0.967,-5.156l0.19,-1.568c0.303,-2.461 1.053,-4.387 2.249,-5.778c1.196,-1.392 2.717,-2.063 4.563,-2.015c1.504,0.039 2.634,0.555 3.391,1.546c0.757,0.991 1.116,2.385 1.077,4.182l-0.132,1.758l-0.22,1.509l-8.496,-0.015c-0.127,0.879 -0.185,1.567 -0.176,2.065c0.02,0.987 0.264,1.761 0.733,2.322c0.468,0.562 1.137,0.847 2.007,0.857c0.625,0.02 1.242,-0.105 1.853,-0.373c0.61,-0.269 1.252,-0.74 1.926,-1.414l1.186,1.655c-0.625,0.821 -1.396,1.421 -2.314,1.802c-0.918,0.381 -1.88,0.561 -2.886,0.542Zm1.89,-14.224c-1.729,-0.078 -2.94,0.967 -3.633,3.135l-0.395,1.421l6.079,0.015l0.073,-0.381c0.058,-0.449 0.088,-0.918 0.088,-1.406c-0.039,-1.778 -0.777,-2.706 -2.212,-2.784Z" style="fill:#4d4d4d;fill-rule:nonzero;"/><path d="M444.557,285.642l-7.31,0l-1.318,7.558l8.525,0l-0.41,2.3l-11.133,0l3.692,-21.328l11.016,0l-0.411,2.3l-8.379,0l-1.201,6.87l7.324,0l-0.395,2.3Z" style="fill:#4d4d4d;fill-rule:nonzero;"/><path d="M463.732,274.172l-2.564,15.015c-0.283,2.089 -1.079,3.728 -2.387,4.914c-1.309,1.187 -2.954,1.76 -4.937,1.721c-1.885,-0.039 -3.313,-0.647 -4.285,-1.823c-0.971,-1.177 -1.345,-2.776 -1.12,-4.798l2.549,-15.029l2.607,0l-2.549,15.055c-0.068,0.587 -0.073,1.134 -0.014,1.642c0.166,1.71 1.152,2.595 2.959,2.653c1.24,0.049 2.246,-0.276 3.017,-0.974c0.772,-0.699 1.275,-1.747 1.509,-3.145l2.578,-15.231l2.637,0Z" style="fill:#4d4d4d;fill-rule:nonzero;"/><path d="M478.571,295.5c-0.059,-0.293 -0.083,-0.581 -0.074,-0.864l0.059,-0.865c-1.123,1.358 -2.334,2.037 -3.633,2.037c-1.269,0 -2.258,-0.413 -2.966,-1.238c-0.708,-0.825 -1.023,-1.917 -0.945,-3.274c0.107,-1.641 0.784,-2.954 2.029,-3.941c1.245,-0.986 2.878,-1.479 4.9,-1.479l1.758,0l0.249,-1.685c0.175,-1.748 -0.484,-2.622 -1.978,-2.622c-0.771,0 -1.414,0.227 -1.926,0.681c-0.513,0.455 -0.838,1.048 -0.974,1.78l-2.505,0.015c0.127,-1.338 0.735,-2.461 1.824,-3.369c1.088,-0.908 2.37,-1.353 3.845,-1.333c1.426,0.019 2.522,0.456 3.288,1.311c0.767,0.854 1.077,2.048 0.93,3.581l-1.289,7.808c-0.087,0.557 -0.122,1.089 -0.102,1.597l0.088,1.611l-0.03,0.249l-2.548,0Zm-3.12,-2.036c1.269,0 2.363,-0.62 3.281,-1.86l0.659,-3.794l-1.157,-0.015c-0.996,0 -1.88,0.183 -2.652,0.549c-0.771,0.366 -1.316,0.874 -1.633,1.524c-0.317,0.649 -0.427,1.355 -0.33,2.116c0.127,0.987 0.738,1.48 1.832,1.48Z" style="fill:#4d4d4d;fill-rule:nonzero;"/><path d="M489.66,279.636l-0.337,1.728c1.152,-1.357 2.461,-2.026 3.925,-2.007c1.006,0.01 1.805,0.352 2.395,1.026c0.591,0.674 0.926,1.592 1.004,2.754c0.039,0.674 0.024,1.333 -0.044,1.977l-1.729,10.386l-2.519,0l1.743,-10.43l0.059,-1.157c0,-1.494 -0.616,-2.256 -1.846,-2.285c-1.006,-0.029 -1.943,0.542 -2.813,1.714l-0.439,0.63l-1.992,11.528l-2.534,0l2.753,-15.85l2.374,-0.014Z" style="fill:#4d4d4d;fill-rule:nonzero;"/><path d="M505.949,279.372c1.455,0.039 2.539,0.654 3.252,1.846l1.523,-8.218l2.534,0l-3.896,22.5l-2.3,0l0.278,-1.699c-1.045,1.367 -2.3,2.031 -3.764,1.992c-1.319,-0.02 -2.337,-0.532 -3.055,-1.538c-0.717,-1.006 -1.076,-2.446 -1.076,-4.321c0,-0.87 0.112,-2.022 0.337,-3.457c0.224,-1.436 0.571,-2.652 1.04,-3.648c1.113,-2.373 2.822,-3.525 5.127,-3.457Zm-3.985,11.191c0.049,1.944 0.855,2.93 2.417,2.959c0.557,0.02 1.089,-0.119 1.597,-0.417c0.508,-0.298 1.02,-0.808 1.538,-1.531l1.377,-8.027c-0.488,-1.221 -1.304,-1.856 -2.446,-1.904c-2.315,-0.118 -3.711,1.582 -4.19,5.097c-0.234,1.719 -0.332,2.993 -0.293,3.823Z" style="fill:#4d4d4d;fill-rule:nonzero;"/><path d="M522.897,295.5l-2.534,0l2.754,-15.85l2.534,0l-2.754,15.85Zm0.805,-20.039c0.02,-0.42 0.157,-0.786 0.411,-1.099c0.254,-0.312 0.6,-0.478 1.04,-0.498c0.42,-0.019 0.766,0.122 1.04,0.425c0.273,0.303 0.4,0.679 0.381,1.128c-0.02,0.43 -0.159,0.798 -0.418,1.106c-0.259,0.308 -0.608,0.466 -1.047,0.476c-0.43,0.02 -0.777,-0.122 -1.04,-0.425c-0.264,-0.303 -0.386,-0.674 -0.367,-1.113Z" style="fill:#4d4d4d;fill-rule:nonzero;"/><path d="M533.707,275.813l-0.673,3.837l2.329,0l-0.367,2.095l-2.314,0l-1.67,9.859l-0.029,0.585c-0.039,0.831 0.259,1.246 0.893,1.246c0.235,0.009 0.586,-0.039 1.055,-0.147l-0.22,2.212c-0.547,0.195 -1.098,0.283 -1.655,0.264c-0.889,0 -1.558,-0.367 -2.007,-1.099c-0.449,-0.732 -0.615,-1.768 -0.498,-3.105l1.611,-9.815l-2.358,0l0.381,-2.095l2.329,0l0.674,-3.837l2.519,0Z" style="fill:#4d4d4d;fill-rule:nonzero;"/><path d="M543.976,291.325c0.127,-0.928 -0.391,-1.699 -1.553,-2.314l-1.963,-1.026c-1.015,-0.566 -1.726,-1.167 -2.131,-1.801c-0.405,-0.635 -0.584,-1.372 -0.535,-2.212c0.078,-1.338 0.625,-2.447 1.641,-3.326c1.016,-0.878 2.256,-1.308 3.721,-1.289c1.416,0.039 2.524,0.506 3.325,1.399c0.801,0.894 1.172,2.034 1.113,3.421l-2.505,0c0.02,-0.791 -0.156,-1.414 -0.527,-1.868c-0.371,-0.454 -0.889,-0.691 -1.553,-0.71c-0.752,0 -1.372,0.212 -1.86,0.637c-0.488,0.425 -0.781,0.974 -0.879,1.648c-0.117,0.791 0.268,1.44 1.157,1.948l2.476,1.26c1.826,1.015 2.69,2.363 2.592,4.043c-0.097,1.435 -0.673,2.58 -1.728,3.435c-1.055,0.854 -2.339,1.262 -3.853,1.223c-1.455,-0.02 -2.636,-0.496 -3.545,-1.428c-0.908,-0.933 -1.333,-2.136 -1.274,-3.611l2.549,0.015c-0.02,0.918 0.181,1.613 0.6,2.087c0.42,0.474 1.016,0.71 1.788,0.71c0.81,0 1.482,-0.205 2.014,-0.615c0.532,-0.41 0.842,-0.952 0.93,-1.626Z" style="fill:#4d4d4d;fill-rule:nonzero;"/><path d="M563.312,274.172l2.373,17.373l8.408,-17.373l3.428,0l-3.706,21.328l-2.622,0l1.465,-8.438l1.626,-7.924l-8.189,16.362l-2.007,0l-2.519,-16.699l-1.245,8.525l-1.407,8.174l-2.622,0l3.692,-21.328l3.325,0Z" style="fill:#4d4d4d;fill-rule:nonzero;"/><path d="M583.981,295.793c-1.778,-0.02 -3.106,-0.659 -3.985,-1.919c-0.878,-1.26 -1.201,-2.978 -0.966,-5.156l0.19,-1.568c0.303,-2.461 1.052,-4.387 2.249,-5.778c1.196,-1.392 2.717,-2.063 4.563,-2.015c1.504,0.039 2.634,0.555 3.391,1.546c0.757,0.991 1.115,2.385 1.076,4.182l-0.131,1.758l-0.22,1.509l-8.496,-0.015c-0.127,0.879 -0.186,1.567 -0.176,2.065c0.019,0.987 0.264,1.761 0.732,2.322c0.469,0.562 1.138,0.847 2.007,0.857c0.625,0.02 1.243,-0.105 1.853,-0.373c0.611,-0.269 1.253,-0.74 1.926,-1.414l1.187,1.655c-0.625,0.821 -1.396,1.421 -2.314,1.802c-0.918,0.381 -1.88,0.561 -2.886,0.542Zm1.889,-14.224c-1.728,-0.078 -2.939,0.967 -3.632,3.135l-0.396,1.421l6.079,0.015l0.073,-0.381c0.059,-0.449 0.088,-0.918 0.088,-1.406c-0.039,-1.778 -0.776,-2.706 -2.212,-2.784Z" style="fill:#4d4d4d;fill-rule:nonzero;"/><path d="M596.959,279.636l-0.307,1.479c1.123,-1.211 2.422,-1.797 3.896,-1.758c0.772,0.02 1.448,0.22 2.029,0.601c0.581,0.381 0.994,0.942 1.238,1.685c1.26,-1.553 2.7,-2.32 4.321,-2.3c1.065,0.029 1.904,0.366 2.52,1.011c0.615,0.644 0.971,1.542 1.069,2.695c0.059,0.674 0.054,1.352 -0.015,2.036l-1.743,10.415l-2.505,0l1.729,-10.444l0.044,-1.231c-0.02,-0.693 -0.203,-1.233 -0.55,-1.618c-0.346,-0.386 -0.842,-0.579 -1.486,-0.579c-0.772,-0.02 -1.465,0.293 -2.08,0.937c-0.616,0.645 -0.992,1.412 -1.128,2.3l0,0.073l-1.802,10.562l-2.549,0l1.743,-10.43c0.039,-0.39 0.049,-0.791 0.029,-1.201c-0.068,-1.435 -0.732,-2.178 -1.992,-2.226c-1.201,-0.02 -2.202,0.634 -3.003,1.962l-2.05,11.895l-2.52,0l2.754,-15.85l2.358,-0.014Z" style="fill:#4d4d4d;fill-rule:nonzero;"/><path d="M620.206,295.793c-1.621,-0.059 -2.768,-0.786 -3.442,-2.183l-0.542,1.89l-2.329,0l3.911,-22.5l2.52,0l-1.597,8.394c1.045,-1.397 2.305,-2.076 3.779,-2.037c1.377,0.02 2.415,0.525 3.113,1.517c0.698,0.991 1.028,2.434 0.989,4.328c-0.039,1.045 -0.156,2.212 -0.352,3.501c-0.195,1.289 -0.483,2.393 -0.864,3.311c-1.065,2.588 -2.793,3.847 -5.186,3.779Zm3.912,-11.191c-0.049,-1.026 -0.274,-1.773 -0.674,-2.242c-0.401,-0.468 -0.982,-0.713 -1.743,-0.732c-1.241,-0.029 -2.33,0.698 -3.267,2.183l-1.289,7.573c0.459,1.377 1.308,2.09 2.549,2.138c1.142,0.049 2.06,-0.354 2.754,-1.208c0.693,-0.855 1.15,-2.207 1.369,-4.058c0.22,-1.85 0.32,-3.068 0.301,-3.654Z" style="fill:#4d4d4d;fill-rule:nonzero;"/><path d="M634.298,295.793c-1.777,-0.02 -3.105,-0.659 -3.984,-1.919c-0.879,-1.26 -1.201,-2.978 -0.967,-5.156l0.19,-1.568c0.303,-2.461 1.053,-4.387 2.249,-5.778c1.196,-1.392 2.717,-2.063 4.563,-2.015c1.504,0.039 2.634,0.555 3.391,1.546c0.757,0.991 1.116,2.385 1.077,4.182l-0.132,1.758l-0.22,1.509l-8.496,-0.015c-0.127,0.879 -0.185,1.567 -0.176,2.065c0.02,0.987 0.264,1.761 0.733,2.322c0.468,0.562 1.137,0.847 2.007,0.857c0.625,0.02 1.242,-0.105 1.853,-0.373c0.61,-0.269 1.252,-0.74 1.926,-1.414l1.186,1.655c-0.625,0.821 -1.396,1.421 -2.314,1.802c-0.918,0.381 -1.88,0.561 -2.886,0.542Zm1.89,-14.224c-1.729,-0.078 -2.94,0.967 -3.633,3.135l-0.395,1.421l6.079,0.015l0.073,-0.381c0.058,-0.449 0.088,-0.918 0.088,-1.406c-0.039,-1.778 -0.777,-2.706 -2.212,-2.784Z" style="fill:#4d4d4d;fill-rule:nonzero;"/><path d="M650.939,282.067c-0.42,-0.088 -0.796,-0.131 -1.128,-0.131c-1.279,0 -2.334,0.737 -3.164,2.211l-1.963,11.353l-2.534,0l2.754,-15.85l2.446,-0.014l-0.352,1.626c0.928,-1.319 1.973,-1.963 3.135,-1.934c0.235,0.01 0.596,0.083 1.084,0.22l-0.278,2.519Z" style="fill:#4d4d4d;fill-rule:nonzero;"/><path d="M668.37,289.992c0.108,-0.888 -0.039,-1.633 -0.439,-2.234c-0.4,-0.6 -1.23,-1.174 -2.49,-1.721c-1.26,-0.547 -2.222,-1.108 -2.886,-1.684c-1.396,-1.202 -2.026,-2.715 -1.89,-4.541c0.137,-1.719 0.838,-3.147 2.102,-4.285c1.265,-1.138 2.791,-1.687 4.578,-1.648c1.719,0.039 3.076,0.664 4.072,1.875c0.996,1.211 1.431,2.734 1.304,4.57l-2.637,0c0.098,-1.347 -0.102,-2.37 -0.6,-3.069c-0.498,-0.698 -1.26,-1.057 -2.285,-1.076c-1.055,-0.02 -1.939,0.301 -2.652,0.961c-0.713,0.66 -1.128,1.533 -1.245,2.619c-0.098,0.802 0.088,1.509 0.557,2.12c0.468,0.611 1.286,1.164 2.453,1.658c1.167,0.494 2.083,1.015 2.747,1.563c1.465,1.201 2.114,2.822 1.948,4.863c-0.146,1.738 -0.847,3.154 -2.102,4.248c-1.255,1.094 -2.829,1.621 -4.724,1.582c-1.787,-0.039 -3.218,-0.664 -4.292,-1.875c-1.074,-1.211 -1.562,-2.749 -1.465,-4.614l2.637,0.014c-0.108,1.26 0.127,2.266 0.703,3.018c0.576,0.752 1.431,1.138 2.563,1.157c1.065,0.039 1.971,-0.259 2.718,-0.893c0.747,-0.635 1.189,-1.504 1.325,-2.608Z" style="fill:#4d4d4d;fill-rule:nonzero;"/><path d="M679.913,275.813l-0.673,3.837l2.329,0l-0.367,2.095l-2.314,0l-1.67,9.859l-0.029,0.585c-0.039,0.831 0.259,1.246 0.893,1.246c0.235,0.009 0.586,-0.039 1.055,-0.147l-0.22,2.212c-0.547,0.195 -1.098,0.283 -1.655,0.264c-0.889,0 -1.558,-0.367 -2.007,-1.099c-0.449,-0.732 -0.615,-1.768 -0.498,-3.105l1.612,-9.815l-2.359,0l0.381,-2.095l2.329,0l0.674,-3.837l2.519,0Z" style="fill:#4d4d4d;fill-rule:nonzero;"/><path d="M690.05,295.5c-0.058,-0.293 -0.083,-0.581 -0.073,-0.864l0.058,-0.865c-1.123,1.358 -2.333,2.037 -3.632,2.037c-1.27,0 -2.259,-0.413 -2.967,-1.238c-0.708,-0.825 -1.023,-1.917 -0.944,-3.274c0.107,-1.641 0.783,-2.954 2.028,-3.941c1.245,-0.986 2.879,-1.479 4.9,-1.479l1.758,0l0.249,-1.685c0.176,-1.748 -0.483,-2.622 -1.977,-2.622c-0.772,0 -1.414,0.227 -1.927,0.681c-0.512,0.455 -0.837,1.048 -0.974,1.78l-2.505,0.015c0.127,-1.338 0.735,-2.461 1.824,-3.369c1.089,-0.908 2.371,-1.353 3.845,-1.333c1.426,0.019 2.522,0.456 3.289,1.311c0.766,0.854 1.076,2.048 0.93,3.581l-1.289,7.808c-0.088,0.557 -0.122,1.089 -0.103,1.597l0.088,1.611l-0.029,0.249l-2.549,0Zm-3.12,-2.036c1.27,0 2.363,-0.62 3.281,-1.86l0.659,-3.794l-1.157,-0.015c-0.996,0 -1.88,0.183 -2.651,0.549c-0.772,0.366 -1.316,0.874 -1.633,1.524c-0.318,0.649 -0.428,1.355 -0.33,2.116c0.127,0.987 0.737,1.48 1.831,1.48Z" style="fill:#4d4d4d;fill-rule:nonzero;"/><path d="M702.75,275.813l-0.673,3.837l2.329,0l-0.367,2.095l-2.314,0l-1.67,9.859l-0.029,0.585c-0.039,0.831 0.259,1.246 0.893,1.246c0.235,0.009 0.586,-0.039 1.055,-0.147l-0.22,2.212c-0.547,0.195 -1.098,0.283 -1.655,0.264c-0.889,0 -1.558,-0.367 -2.007,-1.099c-0.449,-0.732 -0.615,-1.768 -0.498,-3.105l1.611,-9.815l-2.358,0l0.381,-2.095l2.329,0l0.674,-3.837l2.519,0Z" style="fill:#4d4d4d;fill-rule:nonzero;"/><path d="M710.675,295.793c-1.777,-0.02 -3.105,-0.659 -3.984,-1.919c-0.879,-1.26 -1.201,-2.978 -0.967,-5.156l0.19,-1.568c0.303,-2.461 1.053,-4.387 2.249,-5.778c1.196,-1.392 2.717,-2.063 4.563,-2.015c1.504,0.039 2.634,0.555 3.391,1.546c0.757,0.991 1.116,2.385 1.077,4.182l-0.132,1.758l-0.22,1.509l-8.496,-0.015c-0.127,0.879 -0.185,1.567 -0.176,2.065c0.02,0.987 0.264,1.761 0.733,2.322c0.468,0.562 1.137,0.847 2.007,0.857c0.625,0.02 1.242,-0.105 1.853,-0.373c0.61,-0.269 1.252,-0.74 1.926,-1.414l1.186,1.655c-0.625,0.821 -1.396,1.421 -2.314,1.802c-0.918,0.381 -1.88,0.561 -2.886,0.542Zm1.89,-14.224c-1.729,-0.078 -2.94,0.967 -3.633,3.135l-0.396,1.421l6.08,0.015l0.073,-0.381c0.058,-0.449 0.088,-0.918 0.088,-1.406c-0.039,-1.778 -0.777,-2.706 -2.212,-2.784Z" style="fill:#4d4d4d;fill-rule:nonzero;"/><path d="M726.788,291.325c0.127,-0.928 -0.39,-1.699 -1.552,-2.314l-1.963,-1.026c-1.016,-0.566 -1.726,-1.167 -2.132,-1.801c-0.405,-0.635 -0.583,-1.372 -0.534,-2.212c0.078,-1.338 0.625,-2.447 1.64,-3.326c1.016,-0.878 2.256,-1.308 3.721,-1.289c1.416,0.039 2.525,0.506 3.325,1.399c0.801,0.894 1.172,2.034 1.114,3.421l-2.505,0c0.019,-0.791 -0.157,-1.414 -0.528,-1.868c-0.371,-0.454 -0.888,-0.691 -1.552,-0.71c-0.752,0 -1.372,0.212 -1.861,0.637c-0.488,0.425 -0.781,0.974 -0.879,1.648c-0.117,0.791 0.269,1.44 1.158,1.948l2.475,1.26c1.826,1.015 2.691,2.363 2.593,4.043c-0.098,1.435 -0.674,2.58 -1.729,3.435c-1.054,0.854 -2.338,1.262 -3.852,1.223c-1.455,-0.02 -2.637,-0.496 -3.545,-1.428c-0.908,-0.933 -1.333,-2.136 -1.274,-3.611l2.548,0.015c-0.019,0.918 0.181,1.613 0.601,2.087c0.42,0.474 1.016,0.71 1.787,0.71c0.811,0 1.482,-0.205 2.014,-0.615c0.532,-0.41 0.843,-0.952 0.93,-1.626Z" style="fill:#4d4d4d;fill-rule:nonzero;"/><path d="M737.072,274.729l-1.114,5.288l-1.875,0l1.128,-7.017l2.139,0l-0.278,1.729Z" style="fill:#4d4d4d;fill-rule:nonzero;"/><path d="M750.255,295.808c-1.504,-0.039 -2.636,-0.65 -3.398,-1.831l-1.421,7.617l-2.52,0l3.809,-21.944l2.27,-0.014l-0.293,1.772c1.075,-1.396 2.359,-2.085 3.853,-2.065c1.406,0.019 2.456,0.544 3.149,1.574c0.694,1.031 1.011,2.459 0.953,4.285c-0.03,0.85 -0.142,1.958 -0.337,3.325c-0.196,1.368 -0.484,2.515 -0.865,3.443c-1.074,2.627 -2.807,3.906 -5.2,3.838Zm3.882,-11.221c-0.146,-1.934 -0.976,-2.915 -2.49,-2.944c-1.153,-0.03 -2.178,0.59 -3.076,1.86l-1.421,8.276c0.469,1.153 1.279,1.758 2.431,1.817c1.143,0.049 2.08,-0.357 2.813,-1.216c0.732,-0.859 1.216,-2.197 1.45,-4.014c0.234,-1.816 0.332,-3.076 0.293,-3.779Z" style="fill:#4d4d4d;fill-rule:nonzero;"/><path d="M767.247,282.067c-0.42,-0.088 -0.795,-0.131 -1.128,-0.131c-1.279,0 -2.333,0.737 -3.164,2.211l-1.962,11.353l-2.535,0l2.754,-15.85l2.447,-0.014l-0.352,1.626c0.928,-1.319 1.973,-1.963 3.135,-1.934c0.234,0.01 0.595,0.083 1.084,0.22l-0.279,2.519Z" style="fill:#4d4d4d;fill-rule:nonzero;"/></g><g><path d="M768.2,286.872c0.322,-2.275 1.101,-4.109 2.336,-5.5c1.236,-1.392 2.796,-2.063 4.681,-2.015c1.171,0.03 2.148,0.369 2.929,1.018c0.781,0.65 1.341,1.546 1.677,2.688c0.337,1.143 0.428,2.403 0.271,3.78l-0.175,1.494c-0.323,2.266 -1.104,4.087 -2.344,5.464c-1.24,1.377 -2.798,2.041 -4.673,1.992c-1.172,-0.029 -2.148,-0.366 -2.93,-1.011c-0.781,-0.644 -1.34,-1.538 -1.677,-2.68c-0.337,-1.143 -0.427,-2.398 -0.271,-3.765l0.176,-1.465Zm2.27,2.534c-0.029,1.309 0.174,2.324 0.608,3.047c0.435,0.723 1.092,1.104 1.971,1.143c1.132,0.049 2.07,-0.354 2.812,-1.209c0.742,-0.854 1.24,-2.136 1.494,-3.845l0.22,-1.714l0.073,-1.055c0.029,-1.318 -0.178,-2.338 -0.622,-3.061c-0.445,-0.723 -1.101,-1.104 -1.971,-1.143c-1.152,-0.048 -2.111,0.428 -2.878,1.429c-0.767,1.001 -1.262,2.39 -1.487,4.167l-0.176,1.45l-0.044,0.791Z" style="fill:#4d4d4d;fill-rule:nonzero;"/><path d="M789.103,279.357c1.553,0.039 2.671,0.733 3.355,2.08l0.527,-1.787l2.3,0l-2.71,15.982c-0.166,1.25 -0.535,2.348 -1.106,3.296c-0.571,0.947 -1.311,1.665 -2.219,2.153c-0.908,0.488 -1.944,0.713 -3.106,0.674c-0.83,-0.02 -1.665,-0.222 -2.505,-0.608c-0.839,-0.386 -1.518,-0.876 -2.036,-1.472l1.201,-1.743c0.948,1.035 2.027,1.572 3.238,1.611c1.064,0.039 1.941,-0.259 2.629,-0.894c0.689,-0.634 1.145,-1.591 1.37,-2.871l0.381,-1.845c-1.045,1.279 -2.266,1.899 -3.662,1.86c-1.358,-0.02 -2.391,-0.547 -3.099,-1.582c-0.708,-1.035 -1.052,-2.456 -1.032,-4.263c0,-0.771 0.092,-1.826 0.278,-3.164c0.342,-2.451 1.033,-4.314 2.073,-5.588c1.04,-1.275 2.414,-1.887 4.123,-1.839Zm-3.955,11.21c0.049,1.941 0.85,2.926 2.403,2.955c1.171,0.03 2.221,-0.629 3.149,-1.975l1.362,-7.944c-0.508,-1.248 -1.318,-1.897 -2.431,-1.946c-2.344,-0.088 -3.745,1.639 -4.204,5.179c-0.225,1.707 -0.318,2.951 -0.279,3.731Z" style="fill:#4d4d4d;fill-rule:nonzero;"/><path d="M805.187,282.067c-0.42,-0.088 -0.796,-0.131 -1.128,-0.131c-1.279,0 -2.334,0.737 -3.164,2.211l-1.963,11.353l-2.534,0l2.754,-15.85l2.446,-0.014l-0.351,1.626c0.928,-1.319 1.972,-1.963 3.135,-1.934c0.234,0.01 0.595,0.083 1.084,0.22l-0.279,2.519Z" style="fill:#4d4d4d;fill-rule:nonzero;"/></g><g><path d="M811.032,295.793c-1.777,-0.02 -3.106,-0.659 -3.984,-1.919c-0.879,-1.26 -1.202,-2.978 -0.967,-5.156l0.19,-1.568c0.303,-2.461 1.052,-4.387 2.249,-5.778c1.196,-1.392 2.717,-2.063 4.563,-2.015c1.504,0.039 2.634,0.555 3.391,1.546c0.757,0.991 1.116,2.385 1.076,4.182l-0.131,1.758l-0.22,1.509l-8.496,-0.015c-0.127,0.879 -0.186,1.567 -0.176,2.065c0.02,0.987 0.264,1.761 0.732,2.322c0.469,0.562 1.138,0.847 2.007,0.857c0.625,0.02 1.243,-0.105 1.853,-0.373c0.611,-0.269 1.253,-0.74 1.927,-1.414l1.186,1.655c-0.625,0.821 -1.396,1.421 -2.314,1.802c-0.918,0.381 -1.88,0.561 -2.886,0.542Zm1.89,-14.224c-1.729,-0.078 -2.94,0.967 -3.633,3.135l-0.396,1.421l6.079,0.015l0.074,-0.381c0.058,-0.449 0.087,-0.918 0.087,-1.406c-0.039,-1.778 -0.776,-2.706 -2.211,-2.784Z" style="fill:#4d4d4d;fill-rule:nonzero;"/><path d="M827.145,291.325c0.127,-0.928 -0.39,-1.699 -1.553,-2.314l-1.962,-1.026c-1.016,-0.566 -1.727,-1.167 -2.132,-1.801c-0.405,-0.635 -0.583,-1.372 -0.534,-2.212c0.078,-1.338 0.625,-2.447 1.64,-3.326c1.016,-0.878 2.256,-1.308 3.721,-1.289c1.416,0.039 2.524,0.506 3.325,1.399c0.801,0.894 1.172,2.034 1.113,3.421l-2.505,0c0.02,-0.791 -0.156,-1.414 -0.527,-1.868c-0.371,-0.454 -0.889,-0.691 -1.553,-0.71c-0.752,0 -1.372,0.212 -1.86,0.637c-0.488,0.425 -0.781,0.974 -0.879,1.648c-0.117,0.791 0.269,1.44 1.157,1.948l2.476,1.26c1.826,1.015 2.69,2.363 2.593,4.043c-0.098,1.435 -0.674,2.58 -1.729,3.435c-1.055,0.854 -2.339,1.262 -3.852,1.223c-1.455,-0.02 -2.637,-0.496 -3.545,-1.428c-0.908,-0.933 -1.333,-2.136 -1.275,-3.611l2.549,0.015c-0.019,0.918 0.181,1.613 0.601,2.087c0.42,0.474 1.015,0.71 1.787,0.71c0.81,0 1.482,-0.205 2.014,-0.615c0.532,-0.41 0.842,-0.952 0.93,-1.626Z" style="fill:#4d4d4d;fill-rule:nonzero;"/><path d="M840.548,291.325c0.127,-0.928 -0.39,-1.699 -1.552,-2.314l-1.963,-1.026c-1.016,-0.566 -1.726,-1.167 -2.131,-1.801c-0.406,-0.635 -0.584,-1.372 -0.535,-2.212c0.078,-1.338 0.625,-2.447 1.64,-3.326c1.016,-0.878 2.256,-1.308 3.721,-1.289c1.416,0.039 2.525,0.506 3.325,1.399c0.801,0.894 1.172,2.034 1.114,3.421l-2.505,0c0.019,-0.791 -0.156,-1.414 -0.528,-1.868c-0.371,-0.454 -0.888,-0.691 -1.552,-0.71c-0.752,0 -1.372,0.212 -1.861,0.637c-0.488,0.425 -0.781,0.974 -0.879,1.648c-0.117,0.791 0.269,1.44 1.158,1.948l2.475,1.26c1.826,1.015 2.691,2.363 2.593,4.043c-0.098,1.435 -0.674,2.58 -1.729,3.435c-1.054,0.854 -2.338,1.262 -3.852,1.223c-1.455,-0.02 -2.637,-0.496 -3.545,-1.428c-0.908,-0.933 -1.333,-2.136 -1.274,-3.611l2.548,0.015c-0.019,0.918 0.181,1.613 0.601,2.087c0.42,0.474 1.016,0.71 1.787,0.71c0.811,0 1.482,-0.205 2.014,-0.615c0.533,-0.41 0.843,-0.952 0.93,-1.626Z" style="fill:#4d4d4d;fill-rule:nonzero;"/><path d="M855.241,295.5l-2.534,0l2.754,-15.85l2.534,0l-2.754,15.85Zm0.806,-20.039c0.019,-0.42 0.156,-0.786 0.41,-1.099c0.254,-0.312 0.6,-0.478 1.04,-0.498c0.42,-0.019 0.766,0.122 1.04,0.425c0.273,0.303 0.4,0.679 0.381,1.128c-0.02,0.43 -0.159,0.798 -0.418,1.106c-0.259,0.308 -0.608,0.466 -1.047,0.476c-0.43,0.02 -0.777,-0.122 -1.04,-0.425c-0.264,-0.303 -0.386,-0.674 -0.366,-1.113Z" style="fill:#4d4d4d;fill-rule:nonzero;"/><path d="M864.44,279.636l-0.337,1.728c1.153,-1.357 2.461,-2.026 3.926,-2.007c1.006,0.01 1.804,0.352 2.395,1.026c0.591,0.674 0.925,1.592 1.003,2.754c0.039,0.674 0.025,1.333 -0.044,1.977l-1.728,10.386l-2.52,0l1.744,-10.43l0.058,-1.157c0,-1.494 -0.615,-2.256 -1.846,-2.285c-1.005,-0.029 -1.943,0.542 -2.812,1.714l-0.44,0.63l-1.992,11.528l-2.534,0l2.754,-15.85l2.373,-0.014Z" style="fill:#4d4d4d;fill-rule:nonzero;"/><path d="M887.087,275.813l-0.674,3.837l2.329,0l-0.366,2.095l-2.315,0l-1.67,9.859l-0.029,0.585c-0.039,0.831 0.259,1.246 0.894,1.246c0.234,0.009 0.585,-0.039 1.054,-0.147l-0.22,2.212c-0.546,0.195 -1.098,0.283 -1.655,0.264c-0.888,0 -1.557,-0.367 -2.007,-1.099c-0.449,-0.732 -0.615,-1.768 -0.498,-3.105l1.612,-9.815l-2.359,0l0.381,-2.095l2.329,0l0.674,-3.837l2.52,0Z" style="fill:#4d4d4d;fill-rule:nonzero;"/><path d="M893.971,281.291c1.182,-1.318 2.466,-1.958 3.853,-1.919c1.016,0.01 1.814,0.344 2.395,1.003c0.581,0.66 0.911,1.58 0.989,2.762c0.039,0.674 0.024,1.333 -0.044,1.977l-1.729,10.386l-2.519,0l1.743,-10.43l0.058,-1.157c0,-1.494 -0.615,-2.256 -1.845,-2.285c-1.006,-0.029 -1.944,0.542 -2.813,1.714l-0.439,0.63l-1.992,11.528l-2.535,0l3.912,-22.5l2.534,0l-1.568,8.291Z" style="fill:#4d4d4d;fill-rule:nonzero;"/><path d="M909.206,295.793c-1.778,-0.02 -3.106,-0.659 -3.985,-1.919c-0.879,-1.26 -1.201,-2.978 -0.966,-5.156l0.19,-1.568c0.303,-2.461 1.052,-4.387 2.249,-5.778c1.196,-1.392 2.717,-2.063 4.562,-2.015c1.504,0.039 2.635,0.555 3.392,1.546c0.756,0.991 1.115,2.385 1.076,4.182l-0.132,1.758l-0.219,1.509l-8.496,-0.015c-0.127,0.879 -0.186,1.567 -0.176,2.065c0.019,0.987 0.263,1.761 0.732,2.322c0.469,0.562 1.138,0.847 2.007,0.857c0.625,0.02 1.243,-0.105 1.853,-0.373c0.61,-0.269 1.253,-0.74 1.926,-1.414l1.187,1.655c-0.625,0.821 -1.397,1.421 -2.315,1.802c-0.918,0.381 -1.879,0.561 -2.885,0.542Zm1.889,-14.224c-1.728,-0.078 -2.939,0.967 -3.632,3.135l-0.396,1.421l6.079,0.015l0.073,-0.381c0.059,-0.449 0.088,-0.918 0.088,-1.406c-0.039,-1.778 -0.776,-2.706 -2.212,-2.784Z" style="fill:#4d4d4d;fill-rule:nonzero;"/><path d="M919.797,295.5l-2.535,0l2.754,-15.85l2.534,0l-2.753,15.85Zm0.805,-20.039c0.02,-0.42 0.156,-0.786 0.41,-1.099c0.254,-0.312 0.601,-0.478 1.04,-0.498c0.42,-0.019 0.767,0.122 1.04,0.425c0.274,0.303 0.401,0.679 0.381,1.128c-0.019,0.43 -0.158,0.798 -0.417,1.106c-0.259,0.308 -0.608,0.466 -1.048,0.476c-0.429,0.02 -0.776,-0.122 -1.04,-0.425c-0.263,-0.303 -0.385,-0.674 -0.366,-1.113Z" style="fill:#4d4d4d;fill-rule:nonzero;"/><path d="M932.658,282.067c-0.42,-0.088 -0.796,-0.131 -1.128,-0.131c-1.279,0 -2.334,0.737 -3.164,2.211l-1.963,11.353l-2.534,0l2.754,-15.85l2.446,-0.014l-0.352,1.626c0.928,-1.319 1.973,-1.963 3.135,-1.934c0.235,0.01 0.596,0.083 1.084,0.22l-0.278,2.519Z" style="fill:#4d4d4d;fill-rule:nonzero;"/><path d="M951.203,295.5l-11.587,0l0.322,-2.065l7.647,-8.643c0.986,-1.133 1.704,-2.183 2.153,-3.149c0.449,-0.967 0.635,-1.988 0.557,-3.062c-0.069,-0.752 -0.293,-1.35 -0.674,-1.794c-0.381,-0.445 -0.884,-0.682 -1.509,-0.711c-1.064,-0.029 -1.936,0.347 -2.615,1.128c-0.678,0.781 -1.106,1.86 -1.282,3.237l-2.49,0.015c0.196,-1.973 0.886,-3.572 2.073,-4.797c1.187,-1.226 2.668,-1.819 4.446,-1.78c1.533,0.039 2.727,0.581 3.581,1.626c0.855,1.045 1.209,2.373 1.062,3.984c-0.175,1.875 -1.152,3.897 -2.929,6.065l-1.04,1.23l-5.845,6.504l8.481,0l-0.351,2.212Z" style="fill:#4d4d4d;fill-rule:nonzero;"/><path d="M959.772,295.808c-2.695,-0.069 -4.145,-1.885 -4.35,-5.45c-0.069,-1.25 0.019,-2.705 0.263,-4.365l0.557,-3.691c0.517,-3.028 1.338,-5.198 2.461,-6.511c1.123,-1.314 2.568,-1.951 4.336,-1.912c2.695,0.068 4.145,1.841 4.35,5.317c0.059,1.035 -0.005,2.354 -0.19,3.955l-0.674,4.424c-0.518,2.92 -1.343,5.037 -2.476,6.35c-1.132,1.314 -2.558,1.941 -4.277,1.883Zm5.215,-15.601c0.059,-1.406 -0.093,-2.432 -0.454,-3.076c-0.361,-0.645 -0.918,-0.991 -1.67,-1.04c-2.08,-0.117 -3.418,1.719 -4.014,5.508l-0.805,5.449c-0.127,0.928 -0.201,1.684 -0.22,2.27c-0.108,2.793 0.596,4.219 2.109,4.278c2.051,0.107 3.379,-1.709 3.985,-5.45l0.747,-4.951c0.185,-1.25 0.293,-2.246 0.322,-2.988Z" style="fill:#4d4d4d;fill-rule:nonzero;"/><path d="M973.82,283.518l1.538,0.029c1.26,-0.02 2.249,-0.496 2.966,-1.428c0.718,-0.933 1.009,-2.151 0.872,-3.655c-0.068,-0.752 -0.298,-1.336 -0.689,-1.751c-0.39,-0.415 -0.913,-0.627 -1.567,-0.637c-0.859,-0.019 -1.587,0.286 -2.183,0.916c-0.595,0.63 -0.986,1.55 -1.171,2.761l-2.491,0.015c0.166,-1.729 0.804,-3.15 1.912,-4.263c1.108,-1.113 2.473,-1.66 4.094,-1.641c1.035,0.02 1.919,0.286 2.652,0.799c0.732,0.512 1.269,1.218 1.611,2.116c0.342,0.899 0.464,1.905 0.366,3.018c-0.098,1.055 -0.452,1.999 -1.062,2.834c-0.61,0.835 -1.399,1.502 -2.366,2c0.801,0.41 1.382,1.033 1.744,1.868c0.361,0.834 0.493,1.818 0.395,2.951c-0.176,1.904 -0.842,3.447 -1.999,4.629c-1.158,1.182 -2.591,1.753 -4.3,1.714c-1.553,-0.039 -2.766,-0.606 -3.64,-1.699c-0.874,-1.094 -1.267,-2.5 -1.179,-4.219l2.534,0c-0.078,1.162 0.1,2.065 0.535,2.71c0.434,0.644 1.067,0.977 1.897,0.996c1.006,0.029 1.836,-0.327 2.49,-1.069c0.654,-0.742 1.04,-1.748 1.157,-3.018c0.117,-1.152 -0.061,-2.056 -0.534,-2.71c-0.474,-0.654 -1.189,-1.001 -2.146,-1.04l-1.802,-0.015l0.366,-2.211Z" style="fill:#4d4d4d;fill-rule:nonzero;"/><path d="M988.805,295.808c-2.695,-0.069 -4.145,-1.885 -4.35,-5.45c-0.069,-1.25 0.019,-2.705 0.263,-4.365l0.557,-3.691c0.518,-3.028 1.338,-5.198 2.461,-6.511c1.123,-1.314 2.568,-1.951 4.336,-1.912c2.695,0.068 4.145,1.841 4.351,5.317c0.058,1.035 -0.005,2.354 -0.191,3.955l-0.674,4.424c-0.517,2.92 -1.343,5.037 -2.475,6.35c-1.133,1.314 -2.559,1.941 -4.278,1.883Zm5.215,-15.601c0.059,-1.406 -0.093,-2.432 -0.454,-3.076c-0.361,-0.645 -0.918,-0.991 -1.67,-1.04c-2.08,-0.117 -3.418,1.719 -4.014,5.508l-0.805,5.449c-0.127,0.928 -0.2,1.684 -0.22,2.27c-0.107,2.793 0.596,4.219 2.109,4.278c2.051,0.107 3.379,-1.709 3.985,-5.45l0.747,-4.951c0.185,-1.25 0.293,-2.246 0.322,-2.988Z" style="fill:#4d4d4d;fill-rule:nonzero;"/><path d="M1011.29,275.813l-0.674,3.837l2.329,0l-0.366,2.095l-2.315,0l-1.67,9.859l-0.029,0.585c-0.039,0.831 0.259,1.246 0.894,1.246c0.234,0.009 0.586,-0.039 1.054,-0.147l-0.219,2.212c-0.547,0.195 -1.099,0.283 -1.656,0.264c-0.888,0 -1.557,-0.367 -2.007,-1.099c-0.449,-0.732 -0.615,-1.768 -0.498,-3.105l1.612,-9.815l-2.359,0l0.381,-2.095l2.329,0l0.674,-3.837l2.52,0Z" style="fill:#4d4d4d;fill-rule:nonzero;"/><path d="M1021.43,295.5c-0.058,-0.293 -0.083,-0.581 -0.073,-0.864l0.059,-0.865c-1.123,1.358 -2.334,2.037 -3.633,2.037c-1.27,0 -2.258,-0.413 -2.966,-1.238c-0.708,-0.825 -1.023,-1.917 -0.945,-3.274c0.107,-1.641 0.783,-2.954 2.029,-3.941c1.245,-0.986 2.878,-1.479 4.9,-1.479l1.757,0l0.249,-1.685c0.176,-1.748 -0.483,-2.622 -1.977,-2.622c-0.772,0 -1.414,0.227 -1.926,0.681c-0.513,0.455 -0.838,1.048 -0.975,1.78l-2.504,0.015c0.126,-1.338 0.734,-2.461 1.823,-3.369c1.089,-0.908 2.371,-1.353 3.845,-1.333c1.426,0.019 2.522,0.456 3.289,1.311c0.767,0.854 1.077,2.048 0.93,3.581l-1.289,7.808c-0.088,0.557 -0.122,1.089 -0.102,1.597l0.088,1.611l-0.03,0.249l-2.549,0Zm-3.12,-2.036c1.27,0 2.364,-0.62 3.282,-1.86l0.659,-3.794l-1.158,-0.015c-0.996,0 -1.879,0.183 -2.651,0.549c-0.771,0.366 -1.316,0.874 -1.633,1.524c-0.318,0.649 -0.427,1.355 -0.33,2.116c0.127,0.987 0.738,1.48 1.831,1.48Z" style="fill:#4d4d4d;fill-rule:nonzero;"/><path d="M1036.18,282.067c-0.42,-0.088 -0.796,-0.131 -1.128,-0.131c-1.279,0 -2.334,0.737 -3.164,2.211l-1.963,11.353l-2.534,0l2.754,-15.85l2.447,-0.014l-0.352,1.626c0.928,-1.319 1.973,-1.963 3.135,-1.934c0.234,0.01 0.595,0.083 1.084,0.22l-0.279,2.519Z" style="fill:#4d4d4d;fill-rule:nonzero;"/></g><g><path d="M1043.3,279.357c1.553,0.039 2.671,0.733 3.355,2.08l0.527,-1.787l2.3,0l-2.71,15.982c-0.166,1.25 -0.535,2.348 -1.106,3.296c-0.571,0.947 -1.311,1.665 -2.219,2.153c-0.908,0.488 -1.944,0.713 -3.106,0.674c-0.83,-0.02 -1.665,-0.222 -2.505,-0.608c-0.839,-0.386 -1.518,-0.876 -2.036,-1.472l1.201,-1.743c0.948,1.035 2.027,1.572 3.238,1.611c1.064,0.039 1.941,-0.259 2.629,-0.894c0.689,-0.634 1.145,-1.591 1.37,-2.871l0.381,-1.845c-1.045,1.279 -2.266,1.899 -3.662,1.86c-1.358,-0.02 -2.391,-0.547 -3.099,-1.582c-0.708,-1.035 -1.052,-2.456 -1.032,-4.263c0,-0.771 0.092,-1.826 0.278,-3.164c0.342,-2.451 1.033,-4.314 2.073,-5.588c1.04,-1.275 2.414,-1.887 4.123,-1.839Zm-3.955,11.21c0.049,1.941 0.85,2.926 2.403,2.955c1.171,0.03 2.221,-0.629 3.149,-1.975l1.362,-7.944c-0.508,-1.248 -1.318,-1.897 -2.431,-1.946c-2.344,-0.088 -3.745,1.639 -4.204,5.179c-0.225,1.707 -0.318,2.951 -0.279,3.731Z" style="fill:#4d4d4d;fill-rule:nonzero;"/><path d="M1056.51,295.793c-1.777,-0.02 -3.105,-0.659 -3.984,-1.919c-0.879,-1.26 -1.201,-2.978 -0.967,-5.156l0.19,-1.568c0.303,-2.461 1.053,-4.387 2.249,-5.778c1.196,-1.392 2.717,-2.063 4.563,-2.015c1.504,0.039 2.634,0.555 3.391,1.546c0.757,0.991 1.116,2.385 1.077,4.182l-0.132,1.758l-0.22,1.509l-8.496,-0.015c-0.127,0.879 -0.185,1.567 -0.176,2.065c0.02,0.987 0.264,1.761 0.733,2.322c0.468,0.562 1.137,0.847 2.007,0.857c0.625,0.02 1.242,-0.105 1.853,-0.373c0.61,-0.269 1.252,-0.74 1.926,-1.414l1.186,1.655c-0.625,0.821 -1.396,1.421 -2.314,1.802c-0.918,0.381 -1.88,0.561 -2.886,0.542Zm1.89,-14.224c-1.729,-0.078 -2.94,0.967 -3.633,3.135l-0.395,1.421l6.079,0.015l0.073,-0.381c0.058,-0.449 0.088,-0.918 0.088,-1.406c-0.039,-1.778 -0.777,-2.706 -2.212,-2.784Z" style="fill:#4d4d4d;fill-rule:nonzero;"/><path d="M1071.1,275.813l-0.674,3.837l2.329,0l-0.366,2.095l-2.314,0l-1.67,9.859l-0.03,0.585c-0.039,0.831 0.259,1.246 0.894,1.246c0.234,0.009 0.586,-0.039 1.055,-0.147l-0.22,2.212c-0.547,0.195 -1.099,0.283 -1.655,0.264c-0.889,0 -1.558,-0.367 -2.007,-1.099c-0.449,-0.732 -0.615,-1.768 -0.498,-3.105l1.611,-9.815l-2.358,0l0.381,-2.095l2.329,0l0.673,-3.837l2.52,0Z" style="fill:#4d4d4d;fill-rule:nonzero;"/><path d="M1081.37,291.325c0.127,-0.928 -0.391,-1.699 -1.553,-2.314l-1.963,-1.026c-1.016,-0.566 -1.726,-1.167 -2.131,-1.801c-0.406,-0.635 -0.584,-1.372 -0.535,-2.212c0.078,-1.338 0.625,-2.447 1.641,-3.326c1.015,-0.878 2.255,-1.308 3.72,-1.289c1.416,0.039 2.525,0.506 3.325,1.399c0.801,0.894 1.172,2.034 1.114,3.421l-2.505,0c0.019,-0.791 -0.156,-1.414 -0.527,-1.868c-0.372,-0.454 -0.889,-0.691 -1.553,-0.71c-0.752,0 -1.372,0.212 -1.861,0.637c-0.488,0.425 -0.781,0.974 -0.878,1.648c-0.118,0.791 0.268,1.44 1.157,1.948l2.475,1.26c1.827,1.015 2.691,2.363 2.593,4.043c-0.098,1.435 -0.674,2.58 -1.728,3.435c-1.055,0.854 -2.339,1.262 -3.853,1.223c-1.455,-0.02 -2.637,-0.496 -3.545,-1.428c-0.908,-0.933 -1.333,-2.136 -1.274,-3.611l2.549,0.015c-0.02,0.918 0.18,1.613 0.6,2.087c0.42,0.474 1.016,0.71 1.787,0.71c0.811,0 1.482,-0.205 2.014,-0.615c0.533,-0.41 0.843,-0.952 0.931,-1.626Z" style="fill:#4d4d4d;fill-rule:nonzero;"/><path d="M1094.36,286.872c0.322,-2.275 1.101,-4.109 2.336,-5.5c1.236,-1.392 2.796,-2.063 4.68,-2.015c1.172,0.03 2.149,0.369 2.93,1.018c0.781,0.65 1.34,1.546 1.677,2.688c0.337,1.143 0.428,2.403 0.271,3.78l-0.176,1.494c-0.322,2.266 -1.103,4.087 -2.343,5.464c-1.24,1.377 -2.798,2.041 -4.673,1.992c-1.172,-0.029 -2.149,-0.366 -2.93,-1.011c-0.781,-0.644 -1.34,-1.538 -1.677,-2.68c-0.337,-1.143 -0.427,-2.398 -0.271,-3.765l0.176,-1.465Zm2.27,2.534c-0.029,1.309 0.174,2.324 0.608,3.047c0.435,0.723 1.091,1.104 1.97,1.143c1.133,0.049 2.071,-0.354 2.813,-1.209c0.742,-0.854 1.24,-2.136 1.494,-3.845l0.22,-1.714l0.073,-1.055c0.029,-1.318 -0.178,-2.338 -0.623,-3.061c-0.444,-0.723 -1.101,-1.104 -1.97,-1.143c-1.152,-0.048 -2.112,0.428 -2.878,1.429c-0.767,1.001 -1.262,2.39 -1.487,4.167l-0.176,1.45l-0.044,0.791Z" style="fill:#4d4d4d;fill-rule:nonzero;"/><path d="M1113.2,279.636l-0.337,1.728c1.152,-1.357 2.461,-2.026 3.926,-2.007c1.005,0.01 1.804,0.352 2.395,1.026c0.59,0.674 0.925,1.592 1.003,2.754c0.039,0.674 0.024,1.333 -0.044,1.977l-1.729,10.386l-2.519,0l1.743,-10.43l0.059,-1.157c0,-1.494 -0.616,-2.256 -1.846,-2.285c-1.006,-0.029 -1.943,0.542 -2.812,1.714l-0.44,0.63l-1.992,11.528l-2.534,0l2.754,-15.85l2.373,-0.014Z" style="fill:#4d4d4d;fill-rule:nonzero;"/><path d="M1134.84,293.61c0.83,0.03 1.529,-0.229 2.095,-0.776c0.567,-0.547 0.962,-1.318 1.187,-2.314l2.387,-0.015c-0.224,1.562 -0.883,2.847 -1.977,3.852c-1.094,1.006 -2.373,1.49 -3.838,1.451c-1.397,-0.03 -2.51,-0.45 -3.34,-1.26c-0.83,-0.811 -1.328,-1.948 -1.494,-3.413c-0.098,-0.879 -0.093,-1.763 0.015,-2.652l0.205,-1.596c0.322,-2.471 1.076,-4.356 2.263,-5.655c1.186,-1.298 2.732,-1.923 4.636,-1.875c1.465,0.039 2.6,0.577 3.406,1.612c0.805,1.035 1.174,2.417 1.106,4.145l-2.388,-0.014c0.059,-2.295 -0.698,-3.472 -2.27,-3.531c-2.295,-0.088 -3.682,1.548 -4.161,4.908c-0.302,2.08 -0.424,3.496 -0.366,4.248c0.098,1.894 0.943,2.856 2.534,2.885Z" style="fill:#4d4d4d;fill-rule:nonzero;"/><path d="M1145.44,295.5l-2.534,0l3.911,-22.5l2.534,0l-3.911,22.5Z" style="fill:#4d4d4d;fill-rule:nonzero;"/><path d="M1152.25,295.5l-2.534,0l2.754,-15.85l2.534,0l-2.754,15.85Zm0.806,-20.039c0.02,-0.42 0.156,-0.786 0.41,-1.099c0.254,-0.312 0.601,-0.478 1.04,-0.498c0.42,-0.019 0.767,0.122 1.04,0.425c0.274,0.303 0.401,0.679 0.381,1.128c-0.019,0.43 -0.159,0.798 -0.417,1.106c-0.259,0.308 -0.608,0.466 -1.048,0.476c-0.429,0.02 -0.776,-0.122 -1.04,-0.425c-0.263,-0.303 -0.385,-0.674 -0.366,-1.113Z" style="fill:#4d4d4d;fill-rule:nonzero;"/><path d="M1161.45,279.636l-0.308,1.479c1.123,-1.211 2.422,-1.797 3.896,-1.758c0.772,0.02 1.448,0.22 2.029,0.601c0.581,0.381 0.994,0.942 1.238,1.685c1.26,-1.553 2.7,-2.32 4.321,-2.3c1.065,0.029 1.905,0.366 2.52,1.011c0.615,0.644 0.972,1.542 1.069,2.695c0.059,0.674 0.054,1.352 -0.014,2.036l-1.744,10.415l-2.504,0l1.728,-10.444l0.044,-1.231c-0.02,-0.693 -0.203,-1.233 -0.549,-1.618c-0.347,-0.386 -0.843,-0.579 -1.487,-0.579c-0.772,-0.02 -1.465,0.293 -2.08,0.937c-0.615,0.645 -0.991,1.412 -1.128,2.3l0,0.073l-1.802,10.562l-2.549,0l1.743,-10.43c0.039,-0.39 0.049,-0.791 0.03,-1.201c-0.069,-1.435 -0.733,-2.178 -1.992,-2.226c-1.202,-0.02 -2.203,0.634 -3.003,1.962l-2.051,11.895l-2.52,0l2.754,-15.85l2.359,-0.014Z" style="fill:#4d4d4d;fill-rule:nonzero;"/><path d="M1186.5,295.5c-0.058,-0.293 -0.083,-0.581 -0.073,-0.864l0.059,-0.865c-1.123,1.358 -2.334,2.037 -3.633,2.037c-1.27,0 -2.258,-0.413 -2.966,-1.238c-0.708,-0.825 -1.023,-1.917 -0.945,-3.274c0.107,-1.641 0.784,-2.954 2.029,-3.941c1.245,-0.986 2.878,-1.479 4.9,-1.479l1.757,0l0.249,-1.685c0.176,-1.748 -0.483,-2.622 -1.977,-2.622c-0.772,0 -1.414,0.227 -1.926,0.681c-0.513,0.455 -0.838,1.048 -0.975,1.78l-2.504,0.015c0.127,-1.338 0.734,-2.461 1.823,-3.369c1.089,-0.908 2.371,-1.353 3.846,-1.333c1.425,0.019 2.521,0.456 3.288,1.311c0.767,0.854 1.077,2.048 0.93,3.581l-1.289,7.808c-0.088,0.557 -0.122,1.089 -0.102,1.597l0.088,1.611l-0.03,0.249l-2.549,0Zm-3.12,-2.036c1.27,0 2.364,-0.62 3.282,-1.86l0.659,-3.794l-1.157,-0.015c-0.997,0 -1.88,0.183 -2.652,0.549c-0.771,0.366 -1.316,0.874 -1.633,1.524c-0.318,0.649 -0.427,1.355 -0.33,2.116c0.127,0.987 0.738,1.48 1.831,1.48Z" style="fill:#4d4d4d;fill-rule:nonzero;"/><path d="M1199.2,275.813l-0.674,3.837l2.329,0l-0.366,2.095l-2.315,0l-1.67,9.859l-0.029,0.585c-0.039,0.831 0.259,1.246 0.894,1.246c0.234,0.009 0.586,-0.039 1.054,-0.147l-0.219,2.212c-0.547,0.195 -1.099,0.283 -1.656,0.264c-0.888,0 -1.557,-0.367 -2.007,-1.099c-0.449,-0.732 -0.615,-1.768 -0.498,-3.105l1.612,-9.815l-2.359,0l0.381,-2.095l2.329,0l0.674,-3.837l2.52,0Z" style="fill:#4d4d4d;fill-rule:nonzero;"/><path d="M1207.13,295.793c-1.777,-0.02 -3.105,-0.659 -3.984,-1.919c-0.879,-1.26 -1.201,-2.978 -0.967,-5.156l0.191,-1.568c0.302,-2.461 1.052,-4.387 2.248,-5.778c1.197,-1.392 2.717,-2.063 4.563,-2.015c1.504,0.039 2.634,0.555 3.391,1.546c0.757,0.991 1.116,2.385 1.077,4.182l-0.132,1.758l-0.22,1.509l-8.496,-0.015c-0.127,0.879 -0.185,1.567 -0.175,2.065c0.019,0.987 0.263,1.761 0.732,2.322c0.469,0.562 1.138,0.847 2.007,0.857c0.625,0.02 1.242,-0.105 1.853,-0.373c0.61,-0.269 1.252,-0.74 1.926,-1.414l1.187,1.655c-0.625,0.821 -1.397,1.421 -2.315,1.802c-0.918,0.381 -1.88,0.561 -2.886,0.542Zm1.89,-14.224c-1.728,-0.078 -2.939,0.967 -3.633,3.135l-0.395,1.421l6.079,0.015l0.073,-0.381c0.059,-0.449 0.088,-0.918 0.088,-1.406c-0.039,-1.778 -0.776,-2.706 -2.212,-2.784Z" style="fill:#4d4d4d;fill-rule:nonzero;"/><path d="M1229.92,295.5c-0.058,-0.293 -0.083,-0.581 -0.073,-0.864l0.059,-0.865c-1.123,1.358 -2.334,2.037 -3.633,2.037c-1.27,0 -2.258,-0.413 -2.966,-1.238c-0.708,-0.825 -1.023,-1.917 -0.945,-3.274c0.107,-1.641 0.783,-2.954 2.029,-3.941c1.245,-0.986 2.878,-1.479 4.9,-1.479l1.757,0l0.249,-1.685c0.176,-1.748 -0.483,-2.622 -1.977,-2.622c-0.772,0 -1.414,0.227 -1.926,0.681c-0.513,0.455 -0.838,1.048 -0.975,1.78l-2.504,0.015c0.126,-1.338 0.734,-2.461 1.823,-3.369c1.089,-0.908 2.371,-1.353 3.845,-1.333c1.426,0.019 2.522,0.456 3.289,1.311c0.767,0.854 1.077,2.048 0.93,3.581l-1.289,7.808c-0.088,0.557 -0.122,1.089 -0.102,1.597l0.088,1.611l-0.03,0.249l-2.549,0Zm-3.12,-2.036c1.27,0 2.364,-0.62 3.282,-1.86l0.659,-3.794l-1.158,-0.015c-0.996,0 -1.879,0.183 -2.651,0.549c-0.771,0.366 -1.316,0.874 -1.633,1.524c-0.318,0.649 -0.427,1.355 -0.33,2.116c0.127,0.987 0.738,1.48 1.831,1.48Z" style="fill:#4d4d4d;fill-rule:nonzero;"/><path d="M1241.01,279.636l-0.337,1.728c1.153,-1.357 2.461,-2.026 3.926,-2.007c1.006,0.01 1.804,0.352 2.395,1.026c0.591,0.674 0.925,1.592 1.004,2.754c0.039,0.674 0.024,1.333 -0.044,1.977l-1.729,10.386l-2.519,0l1.743,-10.43l0.058,-1.157c0,-1.494 -0.615,-2.256 -1.845,-2.285c-1.006,-0.029 -1.944,0.542 -2.813,1.714l-0.439,0.63l-1.993,11.528l-2.534,0l2.754,-15.85l2.373,-0.014Z" style="fill:#4d4d4d;fill-rule:nonzero;"/><path d="M1257.3,279.372c1.455,0.039 2.539,0.654 3.252,1.846l1.524,-8.218l2.534,0l-3.897,22.5l-2.299,0l0.278,-1.699c-1.045,1.367 -2.3,2.031 -3.765,1.992c-1.318,-0.02 -2.336,-0.532 -3.054,-1.538c-0.718,-1.006 -1.077,-2.446 -1.077,-4.321c0,-0.87 0.113,-2.022 0.337,-3.457c0.225,-1.436 0.572,-2.652 1.04,-3.648c1.114,-2.373 2.823,-3.525 5.127,-3.457Zm-3.984,11.191c0.049,1.944 0.854,2.93 2.417,2.959c0.557,0.02 1.089,-0.119 1.597,-0.417c0.507,-0.298 1.02,-0.808 1.538,-1.531l1.377,-8.027c-0.489,-1.221 -1.304,-1.856 -2.447,-1.904c-2.314,-0.118 -3.711,1.582 -4.189,5.097c-0.234,1.719 -0.332,2.993 -0.293,3.823Z" style="fill:#4d4d4d;fill-rule:nonzero;"/><path d="M1277.42,295.793c-1.777,-0.02 -3.105,-0.659 -3.984,-1.919c-0.879,-1.26 -1.201,-2.978 -0.967,-5.156l0.191,-1.568c0.302,-2.461 1.052,-4.387 2.248,-5.778c1.196,-1.392 2.717,-2.063 4.563,-2.015c1.504,0.039 2.634,0.555 3.391,1.546c0.757,0.991 1.116,2.385 1.077,4.182l-0.132,1.758l-0.22,1.509l-8.496,-0.015c-0.127,0.879 -0.185,1.567 -0.176,2.065c0.02,0.987 0.264,1.761 0.733,2.322c0.469,0.562 1.138,0.847 2.007,0.857c0.625,0.02 1.242,-0.105 1.853,-0.373c0.61,-0.269 1.252,-0.74 1.926,-1.414l1.186,1.655c-0.625,0.821 -1.396,1.421 -2.314,1.802c-0.918,0.381 -1.88,0.561 -2.886,0.542Zm1.89,-14.224c-1.729,-0.078 -2.94,0.967 -3.633,3.135l-0.395,1.421l6.079,0.015l0.073,-0.381c0.059,-0.449 0.088,-0.918 0.088,-1.406c-0.039,-1.778 -0.777,-2.706 -2.212,-2.784Z" style="fill:#4d4d4d;fill-rule:nonzero;"/><path d="M1290.4,279.636l-0.337,1.728c1.152,-1.357 2.461,-2.026 3.926,-2.007c1.006,0.01 1.804,0.352 2.395,1.026c0.59,0.674 0.925,1.592 1.003,2.754c0.039,0.674 0.025,1.333 -0.044,1.977l-1.728,10.386l-2.52,0l1.743,-10.43l0.059,-1.157c0,-1.494 -0.615,-2.256 -1.846,-2.285c-1.006,-0.029 -1.943,0.542 -2.812,1.714l-0.44,0.63l-1.992,11.528l-2.534,0l2.754,-15.85l2.373,-0.014Z" style="fill:#4d4d4d;fill-rule:nonzero;"/><path d="M1305.42,295.793c-1.777,-0.02 -3.105,-0.659 -3.984,-1.919c-0.879,-1.26 -1.201,-2.978 -0.967,-5.156l0.191,-1.568c0.302,-2.461 1.052,-4.387 2.248,-5.778c1.197,-1.392 2.718,-2.063 4.563,-2.015c1.504,0.039 2.634,0.555 3.391,1.546c0.757,0.991 1.116,2.385 1.077,4.182l-0.132,1.758l-0.22,1.509l-8.496,-0.015c-0.127,0.879 -0.185,1.567 -0.175,2.065c0.019,0.987 0.263,1.761 0.732,2.322c0.469,0.562 1.138,0.847 2.007,0.857c0.625,0.02 1.242,-0.105 1.853,-0.373c0.61,-0.269 1.252,-0.74 1.926,-1.414l1.187,1.655c-0.625,0.821 -1.397,1.421 -2.315,1.802c-0.918,0.381 -1.88,0.561 -2.886,0.542Zm1.89,-14.224c-1.728,-0.078 -2.939,0.967 -3.633,3.135l-0.395,1.421l6.079,0.015l0.073,-0.381c0.059,-0.449 0.088,-0.918 0.088,-1.406c-0.039,-1.778 -0.776,-2.706 -2.212,-2.784Z" style="fill:#4d4d4d;fill-rule:nonzero;"/><path d="M1322.06,282.067c-0.42,-0.088 -0.796,-0.131 -1.128,-0.131c-1.279,0 -2.334,0.737 -3.164,2.211l-1.963,11.353l-2.534,0l2.754,-15.85l2.446,-0.014l-0.351,1.626c0.927,-1.319 1.972,-1.963 3.134,-1.934c0.235,0.01 0.596,0.083 1.084,0.22l-0.278,2.519Z" style="fill:#4d4d4d;fill-rule:nonzero;"/></g><g><path d="M1329.18,279.357c1.553,0.039 2.671,0.733 3.355,2.08l0.527,-1.787l2.3,0l-2.71,15.982c-0.166,1.25 -0.535,2.348 -1.106,3.296c-0.571,0.947 -1.311,1.665 -2.219,2.153c-0.908,0.488 -1.944,0.713 -3.106,0.674c-0.83,-0.02 -1.665,-0.222 -2.505,-0.608c-0.839,-0.386 -1.518,-0.876 -2.036,-1.472l1.201,-1.743c0.948,1.035 2.027,1.572 3.238,1.611c1.064,0.039 1.941,-0.259 2.629,-0.894c0.689,-0.634 1.145,-1.591 1.37,-2.871l0.381,-1.845c-1.045,1.279 -2.266,1.899 -3.662,1.86c-1.358,-0.02 -2.391,-0.547 -3.099,-1.582c-0.708,-1.035 -1.052,-2.456 -1.032,-4.263c0,-0.771 0.092,-1.826 0.278,-3.164c0.342,-2.451 1.033,-4.314 2.073,-5.588c1.04,-1.275 2.414,-1.887 4.123,-1.839Zm-3.955,11.21c0.049,1.941 0.85,2.926 2.403,2.955c1.171,0.03 2.221,-0.629 3.149,-1.975l1.362,-7.944c-0.508,-1.248 -1.318,-1.897 -2.431,-1.946c-2.344,-0.088 -3.745,1.639 -4.204,5.179c-0.225,1.707 -0.318,2.951 -0.279,3.731Z" style="fill:#4d4d4d;fill-rule:nonzero;"/><path d="M1341.4,291.149l4.805,-11.499l2.768,0l-8.203,18.311c-0.556,1.328 -1.218,2.331 -1.985,3.01c-0.766,0.679 -1.599,1.004 -2.497,0.974c-0.303,-0.009 -0.781,-0.097 -1.436,-0.263l0.249,-2.198l0.542,0.088c1.28,0.059 2.276,-0.595 2.989,-1.963l1.069,-2.402l-1.787,-15.557l2.666,0l0.82,11.499Z" style="fill:#4d4d4d;fill-rule:nonzero;"/></g></g></g></svg>